<svg id="Layer_1" data-name="Layer 1" xmlns="http://www.w3.org/2000/svg" xmlns:xlink="http://www.w3.org/1999/xlink" viewBox="0 0 750 1334"><defs><clipPath id="clip-path"><rect x="2" width="748" height="1331" style="fill:none"/></clipPath></defs><title>bg</title><g style="clip-path:url(#clip-path)"><rect x="-55.67" y="-75.5" width="831.95" height="1322.45" style="fill:#bbaeb0"/><rect x="-105.19" y="1208.5" width="1002" height="275" style="fill:#312a25"/><path d="M-145.38,967.05q-.47-9.62-.94-19.21a129.14,129.14,0,0,0,0-26.3,192.51,192.51,0,0,0,0-26.31c2.25-1.86.26-6.86,5.35-6.91,1.34,0,.88-2.58-.36-3-5.9-2.1-3.19-6.42-2-10.65,2.3,4.51,4.84,8.92,6.79,13.59,1,2.29-1.87,3.1-3.11,4.49-.71.79-1.72,1.46-1.22,2.77s1.66,1.27,2.72,1.23c3-.13,6.1-.76,8.42,2.15.29.37,2.23,0,2.24-.1.31-2.66,3.59-4.72,2.09-7.52-1.71-3.21-1.54-4.84,2.41-5.17,1.78-.15,2.27-1.85,3-3.2,1.06-2,2-4.18,4.75-1.7a2.38,2.38,0,0,0,3.52.12,2.39,2.39,0,0,0-.28-3.52c-2.47-2.44.15-5-.28-7.48-.19-1.09,0-4.3,1.76-2.59,1.92,1.9,6.25-3.67,5.85,2.35s5.35,4.68,8.2,6.45c2.48,1.54,3.38-2.47,5-4.09,3-3.07-1.31-3.54-2.24-4.93,2.25-2.6,6.71-1.91,6.54-6.32,0-.92,1.44-1.16,2.07-.49,2.79,3,7.55,4.94,7.61,9.41.11,8.61,5.12,16.31,10.52,19.51s7.84,9.25,14.23,10.85c-6.34,0-8.83,6-13.75,7.9-1.63.64-1.46,2-.84,3.28.92,1.84,1,4.45,3.77,4.76,2.15.24,4.69,1.08,6.35-.38,3.12-2.75,6.86-2.65,10.44-3,3.17-.3,6.78.07,6.39-4.35-.3-3.49,1.67-8.81-5.5-8.77-4,0-7-9.09-4.28-12,26.13-27.71,54.25-52.85,89.33-68.78C43.88,817,48.7,815,53.52,813c2.53-1,3.5-1.25,2.43-5.18-1.53-5.6-1.43-11.78-3.22-17.58-.67-2.19-.5-4.44-1.94-6.68-3.06-4.73,1.1-8.58,2.8-12.51.58-1.35,2.83-.81,3.65,1.62,3.39,10,9.86,18.09,16.64,25.86,2.53,2.9,3.84,5.66,2.64,9.69-2.5,0-5.13-3.81-7.71-.17-1.87,2.63-3.08,4.7-.32,8,2.1,2.51-2.13,9.54-5.54,10.36-4.74,1.14-12.57,15.26-10.87,19.73,1,2.58,3.23,3.42,5.76,3.46,3.19.05,3.12-2.31,3.25-4.58.08-1.45-.41-3.1,1-4.27,2.85,7.57.33,35.11-4,40.87,5.38-.37,8.26-4.8,13.26-6.55-5.47-.38-5-3.15-4.35-6.85A160.53,160.53,0,0,0,69,850.73c1-14.89,4.71-28.29,16.09-39.26,5.13-5,11.34-5.56,16.53-6,15.79-1.27,31.62-2.65,48.67-3.84-4.94,5.08-10,7.87-14.79,11-6.84,4.48-13.21,8.27-18.26,16C106.52,845,94,860.55,75.56,870.14A15.93,15.93,0,0,0,84.41,868c17.44-11.51,35.53-22,52.89-33.62,9.36-6.3,19.64-11.25,28.93-17.79,1.49-1.05,4.08-3.11,5.45-.14,1,2.12-1.53,3.15-3.15,4.21-7.78,5.1-16.11,9.44-23.5,15.7,2.43,1.59,3.68.42,5.17-.49,19.66-12,39.53-23.64,59-36,6.51-4.13,13-8.22,19.64-12.19,2.57-1.54,4.84-3.42,2.84-5.87s-4.27.36-6.07,1.75c-12.32,9.46-26,16.88-38.71,25.67-.85.58-2.14.45-3.06,1-1.59.86-3.18,2.09-4.3-.34-.91-2,1-2.55,2.17-3.35q12.42-8.28,24.85-16.53c10.53-7,21.39-13.53,31.5-21.08a37.29,37.29,0,0,1,21-7.62c16.14-.82,28.49-8.86,39.2-20.17a6.83,6.83,0,0,1,4.31-2.37c5.27-.84,9.34-4,12.75-8l0,0c3.86-.42,6.57-2.79,9.08-5.49,1,.13,2,.28,2.75-.61,3.21.09,6.51.51,8.92-2.4,5.59,1.28,9.07-2,11.95-6,2.57-3.54,4.09-7.06,3.37-12.21-.32-2.28,7.45-4.15,9.31-8.73.56-1.39,1.37-2.71,1-4.37-.43-2,.43-3.81,2.28-4.13,5.24-.9,6.86-5.7,10-8.83.51-1.38,0-3.29,1.55-4.09,2.38-1.19,5.51-4.43,7.1-2.89,3.14,3-2.07,3.52-3.08,5.5-.68,1.34-1.93,2.36-1,4.59,5.78-3.36,10-8.52,14.6-12.92,5-4.75,11.34-7.79,15.68-13.34a7,7,0,0,0,1.81-4.51l.35-.23-.23.35c-6,4.57-12.57,8.37-18,13.72-1.11,1.09-2.37,3.49-4.06,1.37a3.26,3.26,0,0,1,1.34-5c1.89-1,4.21-1.4,4.82-4-1.11-1.09-2.33-.34-3.46-.09-11.28,2.55-16.88-1.21-14.56-12.4,1.29-6.23-.48-11.6,0-17.35.35-4.13-.07-8.32-.22-12.49-.06-1.69.49-3.89-1.47-4.69-5.07-2.07-4.43-4.94-1.91-8.74,1.21-1.82-4.58-9.51-7.76-10.63-.6-.22-1.32-.08-1.93-.28-4.87-1.6-10.37-3-11.58-8.77-1.32-6.22,4.52-8.19,8.49-10.06a134.76,134.76,0,0,1,46.11-12.34c14.94-1.27,29.91-3.74,44.9-1.91,11.72,1.42,23.85,1.26,34.63,7.68,7.2,4.29,7.35,9.82.31,15.09-2.89,2.16-7.19,2.16-8.9,6-.56,1-2.41.9-2.09,2.61-2.25,1.27-4.07,3.2-3.4,5.77,1.76,6.86-.93,13.4-1.13,20.1-.09,3.39,1.34,4.37,3.5,3.4,5-2.24,11,.07,15.43-3.92a3.05,3.05,0,0,1,1.85-.56c13.75-.46,27.18-4.65,41.13-3.29,2.56.25,4.84,3.67,7.68.92,1.23.89,2.45.33,3.66,0,1.7,2.67,4.18,1.77,6.53,1.44a6.46,6.46,0,0,0,5.08.66c9.34,3.63,19,5.91,28.83,7.89l1.4.63c.61,2,2,2.45,3.85,1.94l1.58.33c1.42,1.42,2.59,3.3,5.07,2.75l2.53.59c.61,3.3,3.25,2.24,5.27,2.5,1.48,2.37,3.8,3.1,6.39,3.29.06,1.67,1.49,2,2.58,2.56,8.73,4.83,16.24,11.28,23.6,17.93,1.25,1.13,3,1.9,3,4,0,2.62-11.41,16.56-13.91,17.27-1.54.44-3.91-1.57-4.5.87-.51,2.07,2,3.14,3.24,4.48,8.58,9,19.22,16.28,25.44,27.17,8.92,15.59,23.4,19.18,39.18,21l4,.92c.25,2.29,2.21,1.86,3.63,2.3.2,2.32,2.84,3.68,2.41,6.25-3.65,3.47-9.26,3.32-12.78,7A2.43,2.43,0,0,0,684,745c-1.65-.08-3.44-.43-3.8,2a6.58,6.58,0,0,0-5.83,3.77,5.13,5.13,0,0,0-4.1,3.39c-1.83,3.08.61,5.5,1.27,8.19,1.83,9.18,2.57,18.58,5.49,27.53l.24,26.41c-1.13,8.55-3.65,16.88-3.75,25.58l-.1.54c-4.5,2.18-1.78,6.22-2.38,9.41a1.9,1.9,0,0,0-.91,2.4c-1.55,1-1.53,2.43-1.21,4-.49,1.73-1,3.46-1.48,5.19-4.54,6.42-7.36,13.94-10.47,20.91-12.71,28.51-35.1,47.85-59.13,65.49-4.61,3.39-5.71,6.1-4.92,10.11a240.53,240.53,0,0,0,6.82,26.56c.71,2.23-.29,7.19,3.31,6.54,3.22-.58,1.34-5,1.15-7.49-.38-5.38,3.68-5.44,6.77-6.13,3.53-.78,4.46,1.92,5.5,4.95,1.84,5.34.16,11,2,16.21a19.17,19.17,0,0,0,.13,9.25c.88,4.36,4.31,1.92,6.6,2.51l2.54.27c12.1,3,24.31-.28,36.55.84,16,1.45,32.22-.38,48.33.94,2.07.17,4.82,1.57,6.38-1.39l6.84-.41c8.23,4.43,17,2.34,25.24.94,4.42-.75,7.91,1.1,11.84.79,7.16-.57,3.09,6.42,5.91,8.75a4,4,0,0,0,.43,3.84c-.83,8.17,1.6,16,3.72,23.55.62,2.24.41,7,4.8,7.55-.49,2.58,1.59,3.49,3.08,4.77,1.28,3.86,4.61,2.65,7.17,2.68,11.31.16,22.62.1,33.94.1q28.34,0,56.67-.07l-.09-.08c2.1,3.63-1.16,8.43,2.52,11.72a2.07,2.07,0,0,0,.34,2.47c.08,9.82.18,19.63.25,29.45,0,1.9,1.07,3.22,2.14,4.64,15.47,20.31,17.25,41.69,4.79,64.13a9.71,9.71,0,0,0-.58,1.8l-.3.21.06.36c-3,1.49-4.76,4.34-6.86,6.76-5.11,5.87-13.07,6.73-19,11.16l-2.6.41c-10.25.38-20.54,1.39-30.33-3.1-2.82-1.3-5.37-3.81-8.93-2.65a182.87,182.87,0,0,0-26.17,0,188.61,188.61,0,0,0-26.15,0,45.86,45.86,0,0,0-13.08,0c-3.72-.35-3.76,2.59-3.66,4.8.21,4.59-1.52,8.27-3.66,12.17a146.68,146.68,0,0,1-9.72,15.11c-1.25,1.73-2.55,3.17-.35,4.92,3.82,3,4.85,7.62,5.87,11.92,1.24,5.25,3.44,9.08,8.93,10.35l-.29,2.53c-4.58-.28-4.66,2.43-4.25,6,1.17,10,2.15,20,3.09,30,.55,5.86-.13,12.21-3.21,16.62-1.8,2.58-3.51,4.06-1.7,6.55,2,2.8,4.92,3.84,8.47,1.85,5.54-3.1,8-2,9.59,4.26.53,2.06.21,4.57,3.32,4.74l0,.06c.53,3.33,5,3.1,5.62,6.38l-3,4.21c-4,2-2.71,4.05-.07,6.13.24.5.48,1,.73,1.51-1.25,2.88-3.42,1.37-5.32,1.12l-1.17-1.13c-3.6-6.25-8.19-11.36-15.27-13.72-2.23-.74-5.36-2.52-6.4,0-1.23,3-5.14,6.54-1.17,10,8.26,7.22,7.39,17.19,8.28,26.59.52,5.45-2.53,7.81-7.9,8-7.5.23-10.41-4.69-12.45-11.58-6.37,9-14.58,13.13-24.71,13.52-2,.08-3.49,1.61-5.23,2.41-11.52,5.33-22.5,4.72-33.13-2.86-5.94-4.24-8.43-11.42-14.28-15.58-.35-1.64-1.68-1.92-3-2-8-.41-16.07-.53-24.07-1.22s-15.86,3.81-22.87,2.24c-10.51-2.37-20.7-1.26-31-1.31-23.45-.11-46.91,0-70.36.6-24.65.62-49.34-.48-73.94,3.46-10.75,1.72-21.86-1.31-32.48-4.37-5-1.44-8.07-.87-7.55,5.48a40.89,40.89,0,0,1-.45,9.82c-.37,2.3-1.26,4.58-4.44,4.79-3.43.23-3.87-2.27-4.47-4.51s-.72-4.39-1.28-8.12c-3.6,9.14-7.2,16.73-16,19.66l-6.65.11c-2.17-.95-4.71-.6-6.75-2.2-4.64-3.65-10-4.4-15.82-4.44-8.14-.06-11.77-6.72-15-12.88-7.94-15-10.49-31.63-13.39-48.08-.83-4.72-2.77-7-7.27-8.7-11.14-4.28-23.49-4.29-34.14-10.27-3.13-1.76-2.8,1.47-3,3.22-.77,8-1.17,16.14-3.44,24-1.92,6.65-3.19,13.5-5.24,20.11-1.66,5.33-13.31,7.54-19.8,4.61A44.34,44.34,0,0,0,199.4,1347c-3,.75-5.66,1.66-7-2.1-.8-2.26-2.52-2-4.23-2.09a32.48,32.48,0,0,0-5.22,0c-9.85,1.38-18.47-2.74-27.44-5.71-5.39-1.79-11.27-1.52-16.88-3.15-9.52-2.75-19.77-1.27-28.69-8.51-4.58-3.72-12.52-4.64-19.06-6.06-4.27-.93-8.12-1-11.27-4.9-1.26-1.53-4-2.67-6.91-3-16.35-1.74-32-5.74-45.22-16.39-2.55-2.06-5.75-1-8.66-2.19-6.16-2.52-11-7.23-17.2-9.47-5.92-2.14-11.7-8.62-18.39-1.11-.66.75-3.07.49-4.38,0a40.34,40.34,0,0,0-19.12-3.14c-.74.08-2.15-.38-2.21-.77-1.06-6.21-5.91-3.51-9.32-4.09-4.85-.81-10.09-3-14.49-1.94-5.79,1.45-10.74-.46-16.07-.67-4.06-.16-7.69-.49-10.42-3.8-4.9-6-12.38-3.15-18.29-5.52-10.42-4.2-22.81-5.26-28-18-1.22-3-6.43-2.75-7.14-6.88q-.3-13.15-.59-26.32v-26.38q0-13.14,0-26.28v-26.38q0-13.12,0-26.27v-52.66q0-13.18,0-26.37l.05-26.28c.1-4.12.22-8.23.28-12.34.06-4.61-.94-9.24,4.58-12.2,2.81-1.51,2.37-5.49,1.19-8.36C-141.61,965.38-143.57,965.35-145.38,967.05Zm436.67-210.4c4.41.33,5.52,2.69,5.18,7-.43,5.56,2.93,8.41,8.13,6.74A37.3,37.3,0,0,0,320,761.53c3.81-3.83,2.23-7.57-.79-10.24-7.29-6.44-22.19-3.25-27.7,5.53-4.27,1.39-8.9,2.29-10.85,7.48C290,765.77,291.52,764.61,291.29,756.65ZM589.91,900.07c2.61-9-5.71-16.91-5.44-26.57,0-.62-.84-1.43-1.48-1.88-7.64-5.34-16.7-7.5-25-11.29-1.64-.75-3.34-.3-5.08-.22-10.56.51-19.2,5.86-26.59,12.39a30.09,30.09,0,0,0-9.69,16.82c-2.46,11.81,4.32,21.58,4.53,32.58,0,2.4,2.24,4.58,4.39,5.41a139.69,139.69,0,0,0,18.66,6.19c12.66,2.93,23.82-3.31,34.45-8.25C587.62,921.08,590.79,911.39,589.91,900.07ZM20.6,879.89c-.14-8.58.32-16-.91-23.43-.27-1.65.22-3.83-2-4.38-1.92-.47-3.44.28-5.15,1.75-5,4.31-10.56,8-15.71,12.17-6.88,5.57-15.67,9.69-14.71,21.08.88,10.46,1.12,21,1.63,31.46.17,3.39,2.53,6,5.21,5.76,8.61-.65,19.26,5.33,24.61-7.46,1.19-2.86,6.07-4.54,6-8.07C19.27,898.72,22.25,888.81,20.6,879.89Zm217.16-74.58c-1.46-2.3-1.37-3.83.19-4.76,2.48-1.48,2.69,1,3.58,2.3.75,1.15,1.83,1.89,3.3,1.11,1-.52,1.82-1.14,1.59-2.49-.63-3.57-8.79-7-12.08-5.1-13.92,8.14-28,16.08-41.69,24.56-4.17,2.58-10.36,4.34-9,11.7.54,2.86,1.07,4.67,4.5,2.83,13.09-7,26.85-12.53,40.55-18.18C234.2,815,235.05,809.26,237.76,805.31ZM141,856.71c-.36,3.32.95,4.73,4.1,3.19,12.87-6.32,26.14-12,35.73-23.49,2-2.37,1.8-4.58.66-6.43-1.29-2.09-3.51-.75-5.17.24-10.35,6.19-20.55,12.62-31.06,18.51C141.74,850.71,141.15,853.37,141,856.71Zm358.07,489.8c-5.11-3.52-6.18-8.81-12-8.82-3.33,0-7.93.65-7.62-5.4.06-1-1.78-.84-2.83-.84-3.69,0-7.39-.22-11,0-4.71.34-9.78,7.56-9.24,12.39.23,2,1,2.65,2.82,2.65C471.86,1346.5,484.53,1346.51,499.07,1346.51ZM182.36,857.56c5.76-1.88,11.32-2.88,14.81-7.84.3-.43,1.63-.3,2.44-.16,6.46,1.12,11-2.35,15.19-6.5,1.75-1.75,3.26-3.16,6-3.22,9.61-.22,11.25-2.37,10-12.79-15.77,8.31-31.35,16.57-47,24.72C181.07,853.2,181.89,855.18,182.36,857.56Zm28.1,185.52a18.84,18.84,0,0,0,.11,12.9c.57,1.65,1.3,3.92,3.83,3.89,8.45-.11,16.9-.17,25.35-.43,3.47-.11,4.43-3.48,5.44-5.82.79-1.83-1.78-4-3.31-4.06-6.25-.43-12.93-1.62-18.72,0C213.19,1052.46,213.42,1053.27,210.46,1043.08ZM262,953.66c-.78.51-1.29.65-1.39.94-6.22,16.86-6.84,34.94-11.17,52.22-.38,1.51,0,2.61,1.82,2.57,1.51,0,2.14-.82,2.47-2.39,3.08-14.88,6.2-29.76,9.48-44.6C264,959.2,263,956.62,262,953.66Zm-1-6.5c2.19-1.52,3.67-2.87,4.13-4.86,3.67-15.92,6.84-31.94,9.3-48.1.35-2.3.93-5.55-2.11-6-2.74-.39-2.79,3.12-3.12,4.93-2.28,12.48-4.63,25-6.14,37.55C262.48,936,259,941,261.06,947.16ZM492.14,1067c1.63,2.08,2.71.92,3.75.33,4.68-2.66,9.44-5.2,14-8.07,8.58-5.42,17.42-10.52,24.27-18.25,1.35-1.52,4.19-3.1,2.07-5.32s-3.69.36-5.38,1.74c-8.53,7-16.48,14.63-25.91,20.46C500.5,1060.63,496.41,1063.94,492.14,1067Zm-353-211.77a2.48,2.48,0,0,0-3-.66C125.59,859.43,116,866,106.13,872a2.6,2.6,0,0,0-.77,3.5c.72,1.4,2.16,1.4,3.41,1a43.34,43.34,0,0,0,6.52-2.82C124.08,868.66,135.85,867.5,139.09,855.23Zm-60.76,161c4.89-13-8.27-40.42-18.44-39.41C72.19,986.81,72.4,1002.4,78.33,1016.27ZM483.9,750.45c5.48.25,8.8-1.09,10-5.1,1.43-4.63-.5-8-4.88-10-1.63-.75-4.31-1-3.66-3.59.56-2.27,2.92-1,4.49-1.24,1.07-.16,2.25,0,2.66-1.32a2.27,2.27,0,0,0-1.21-2.75,11.7,11.7,0,0,0-9.42,0c-2.27,1.11-3.11,3.53-2.38,6.18s.12,6.38,4.91,6.11c3.21-.17,4.84,3,4.52,5.15-.43,2.82-3,3.8-6.05,2.08-1.2-.69-3.19-1.09-3.49,1.24-.23,1.81,1,2.77,2.72,3A7.26,7.26,0,0,0,483.9,750.45Zm62.88-23.14a10.83,10.83,0,0,1-1.39.24,6,6,0,0,0-5,3.66,2.38,2.38,0,0,0,.6,2.22c2,.91,3.62.09,5.09-1.53a2.59,2.59,0,0,1,4-.13c1.54,1.71,2.16,3.94.71,6a93.56,93.56,0,0,1-7.35,9.44c-2.34,2.54-.86,5.06,1,4.63,3.37-.78,6.3.81,9.43.36a2.43,2.43,0,0,0,2.37-1.81c.3-1.23-.12-2-1.51-2.26-8.39-1.58-2.28-4.51-.76-7.24,1.18-2.12,5.15-2.9,3.11-6.65S552.8,727.2,546.78,727.31ZM313.11,741c4.46,1.57,8.16,3.59,11.84,1.67s5-1,5.86,2.66c.53,2.28,2.16,3.45,4.36,2,1.66-1.11,3.08-2.88,1.26-4.89-3-3.31-1.27-4.75,1.85-6.21a3.62,3.62,0,0,0,2.1-4.31c-.69-2.71-2.77-1.41-4.26-1.28C327.68,731.39,320.71,735.57,313.11,741Zm65.31-44.95c12.25-11.52,24.43-23.11,37.12-34.16C400.81,670.76,388.17,681.86,378.42,696.09Zm136.47,39.59c-.39-4-1.77-7.78-6.21-8.5-4.11-.66-8.08.29-10.18,4.71s1.86,5.82,4,8.1c2,2.11,7.62,3.17,1.94,7.5-1.65,1.26.3,2.83,1.13,3.65a2.16,2.16,0,0,0,3.36-.66C511.12,745.63,514.84,741.42,514.89,735.68Zm-232.72,518c.14-6-1.81-10.91-4.48-10.78-4.95.25-8.48,2.73-8.43,8,.07,7.19,6.81,4,10.29,5.85C281.71,1257.85,282.36,1255.62,282.17,1253.63ZM670.58,742.29c3.4.25,6.29-2.74,9.92-3.41,1.58-.29,3.14-.79,3.12-2.71,0-2.46-2-2.53-3.76-2.61a44.81,44.81,0,0,1-16.75-4.46c-2.18-1-2.66-.4-2.9,1.56C659.63,735.33,665.55,742.35,670.58,742.29ZM528.71,727.1a21.28,21.28,0,0,0-3.51,0c-1.71.31-4.62-.78-4.54,2.1.06,2.47,2.75,1.52,4.24,1.45,4-.18,4.3,2.06,3.52,5-.95,3.57-2.07,7.1-3.14,10.64-.45,1.5-2.24,3.26.67,4.11,2.57.75,2.66-1.51,3.25-3,1.69-4.39,2.67-9.17,4.63-13.29C537.23,727,533.37,727,528.71,727.1ZM337,1010c3.53-.51,7.11.27,10.09-2.36,1.73-1.52,3.54-2.91,2.56-5.39-.9-2.29-3.2-1.77-5.13-1.84-4.94-.19-8.44,3.08-12.41,5.22-1.07.57-2.64,1.16-2.16,2.81s2.05,1.4,3.3,1.53A33.75,33.75,0,0,0,337,1010Zm-47.09,36.78c-1.12-.16-3.18.81-2.49,3.61.54,2.2.29,7.27,2.92,6,4.34-2.12,8.62-1.73,12.88-2.64.79-.16,1.51-1.48,1.91-2.42a1.12,1.12,0,0,0-1.33-1.57C299.23,1050.44,295.65,1047.07,289.86,1046.74Zm-323.78-119h1.66c.32-.51.9-1,.92-1.53.44-11.15.86-22.3,1.15-33.45,0-1.43-.37-3.46-2.25-3.45s-1.93,2.18-2.18,3.52C-36.78,904.57-33.36,916.07-33.92,927.75ZM94.22,881.83c-.34-2-1.45-2.34-2.82-1.57-4.31,2.45-8.59,4.94-12.81,7.54a2.34,2.34,0,0,0-.69,3c.53,1.35,1.68,1.25,2.72.85,4.41-1.71,8.79-3.54,12.12-7.09A11.78,11.78,0,0,0,94.22,881.83Zm156.94,168.48c.22,2.36-.61,5.06,1.14,6.94,1.43,1.55.71,5.18,3.51,4.86,3.84-.45-.51-3.07.68-4.51.41-.48.45-1.47.9-1.67,7.49-3.37,1.59-5.88-.62-8.38-1.18-1.35-2.39-3.84-4.62-2.66C250.14,1046,251.3,1048.44,251.16,1050.31ZM454.94,630.84c-.86.24-1.94.76-1.47,1.66,2.36,4.44,4.87,8.81,7.47,13.12.21.35,1.7.28,2.32-.08.95-.56.39-1.4-.09-2.17-2.25-3.62-4.43-7.29-6.68-10.91C456.1,631.83,456.24,630.61,454.94,630.84Zm-314.3,376c8.24,8,9.36,8,13.87.24C149.87,1008.75,145.8,1006,140.64,1006.81Zm382.82-350.7a21.74,21.74,0,0,0,2.78-15.47c-.2-1.18-.23-2.35-1.54-2.36-1.52,0-1.27,1.28-1.26,2.4C523.49,645.82,523.46,651,523.46,656.11ZM277.61,882.76a11.32,11.32,0,0,0-4.77-7.24,2.78,2.78,0,0,0-3.62.32,4.36,4.36,0,0,0-1.46,2.77c.06,1.9,1.82,1.5,3,1.43C273.39,879.89,274.77,882.47,277.61,882.76ZM368.05,711.1c-5.47,1.79-10,5.73-15.81,6.74C359.39,719.9,364.69,717.71,368.05,711.1Zm114.24-74.9c4.11-6.59,2-11.9-5.23-13.67C480.6,626.48,482.51,630.86,482.29,636.2ZM491,619.79c-3.65,7.35-2.69,10.68,4.66,14.42C492,629.38,491.17,624.73,491,619.79Zm-19.65,19.56c-2.89-3.56-3.24-8.36-5.59-12.74C463,634.15,464.16,636.85,471.33,639.35ZM466.21,665c2.43-5.64-2.8-7.93-2.51-11.91.09-1.14-1.59-1.1-2.64-.7-1.34.53-1.25,1.36-.57,2.51C462.3,658,464,661.07,466.21,665Zm63.86-33.62c2.54-4.57-2.56-6.64-2.6-10.11,0-.73-.81-2.48-2.12-1.21-.62.59-2.08,1.46-.71,3.15A95.72,95.72,0,0,1,530.07,631.4ZM501,659.69c-2.12-3.62-4.29-5.81-8.24-5.37C495,656.3,496.2,660,501,659.69Zm-12.67-10.82c-1.87-1.93-2.63-5.43-7-4.55C483.8,648.35,483.8,648.35,488.29,648.87ZM602.92,901.48a1.94,1.94,0,0,0,1.71-2.47,2.43,2.43,0,0,0-2.59-2.27c-1.28,0-2.69.23-2.54,2S600.89,901.26,602.92,901.48ZM425.44,638.86c-5.05-.65-5.05-.65-4.44,4.16A8.85,8.85,0,0,0,425.44,638.86ZM41.67,853.44c3,1.39,4.74.69,6.06-1.75.5-.92.46-1.87-.47-2C44.49,849.19,43.25,851.19,41.67,853.44ZM375.55,698.35c-.32.8-.63,1.51-.85,2.25a4.34,4.34,0,0,0,.91.4,15,15,0,0,0,1-2.07A9.21,9.21,0,0,0,375.55,698.35Zm-2-11.21a5.83,5.83,0,0,0-.8-.61c-.07,0-.45.28-.42.35a5.67,5.67,0,0,0,.47,1Zm-2.83,19.15a6,6,0,0,0-.43,1c0,.1.25.28.38.42a6.28,6.28,0,0,0,.45-1C371.11,706.59,370.83,706.42,370.69,706.29Z" style="fill:#312a25"/><path d="M239.82,722c3.73,1.9,7.84,2.35,11.87,3.06a5.9,5.9,0,0,1,4.49,3.4c1.08,2.47-1.94,2.37-3.06,3.34-5.56,4.8-10.52,10-13.78,16.73-1.38,2.86-13.41,5.91-17.74,4.13-5-2.07-10.1-2.37-15.32-2.07-3.53.2-5.25-1.1-5.05-4.89s-.19-7.12-5.38-8.07c-2.49-.46-5.65-3.07-5.65-6.32,0-3,3.2-3.72,5.59-4.76,8.09-3.51,17-2.47,25.33-4.85C227.35,722.13,233.57,722.6,239.82,722Z" style="fill:#312a25"/><path d="M158.65,802.21c6.8-12.84,11.14-26.55,14.5-40.62,1-4.18,4.64-5.55,8.55-5.71,4.08-.16,8.35.6,10.93-3.92.7-1.22,2.24-1.32,3.54-.89,2,.66,1.41,2.47,1.41,3.89,0,7.55-4.33,13.5-7.69,19.67-6.47,11.85-16.53,20.23-27.79,27.25A3.47,3.47,0,0,1,158.65,802.21Z" style="fill:#312a25"/><path d="M410.66,544.65c8.48,1.13,16.92-.54,25.4-.37a101.62,101.62,0,0,1,30.33,4.78c2,.68,4.19,1.93,3.79,3.7-.58,2.61-3.25,2.09-5.5,1.78-25.14-3.46-50.18-3.16-75.09,2.09-4.38.92-8.84,1.43-13,3.31-1.48.67-3.45,2.18-4.61.15-1-1.71.64-3.15,2-4.33.58-.5.75-1.48,1.1-2.25l.34-.13c3.82.4,7.17-1.76,10.09-3.31,5.58-3,12.41-.39,17.37-4.81a2.07,2.07,0,0,0,2.54-.21,2,2,0,0,0,2.63-.23Z" style="fill:#312a25"/><path d="M510.94,734.72c-.69,1.62-1.83,3-3.34,2.7a4,4,0,0,1-3.63-4.56c.17-2.3,2-2.24,3.31-2.08C509.43,731.05,510.16,733,510.94,734.72Z" style="fill:#312a25"/><path d="M91,348c65-47,51.07-31.67,83.37-89.55a189.22,189.22,0,0,0,188.78-43.67C378.89,303.28,481.25,286.45,551,348c71.27,62.89,141.45-11.56,175.38-100.54a190.77,190.77,0,0,0,33.85,3A188.35,188.35,0,0,0,837.64,234a189.07,189.07,0,0,0,176.59,121.53c104.38,0,189-84.62,189-189s-84.62-189-189-189A188.33,188.33,0,0,0,936.82-6,189.06,189.06,0,0,0,583.07-4.49a189.64,189.64,0,0,0-33.84-3C498.4-7.52,457-133.64,423-101c-15.73-88.5-97.75-9.52-190.77-9.52a188.91,188.91,0,0,0-165.14,97,188.85,188.85,0,0,0-57.86-9c-104.38,0-189,84.62-189,189S-13.38,348,91,348Z" style="fill:#2d2a27"/><path d="M649.23-233.52a188.91,188.91,0,0,0-165.14,97,188.85,188.85,0,0,0-57.86-9A188.36,188.36,0,0,0,295.3-92.81c-15.73-88.51-93.05-155.71-186.07-155.71a189.07,189.07,0,0,0-177.16,123,189.64,189.64,0,0,0-33.84-3A188.33,188.33,0,0,0-179.18-112,189.07,189.07,0,0,0-355.77-233.52c-104.38,0-189,84.62-189,189s84.62,189,189,189A188.35,188.35,0,0,0-278.36,128,189.07,189.07,0,0,0-101.77,249.48c81.17,0,150-16.63,176.77-88.48,11,2,60.45-57,72-57,50.82,0,84,71.64,118,39,15.73,88.5,68.21,89.48,161.23,89.48,71,0,229.47-14.6,261.77-72.48,18.24,5.86,82.82-41,103-41,104.38,0,47.23-59.14,47.23-163.52S753.61-233.52,649.23-233.52Z" style="fill:#47423d;opacity:0.71"/><rect x="-157.5" y="-433.5" width="1056" height="1990" style="fill:#fff;stroke:#000;stroke-miterlimit:10;opacity:0.25"/></g></svg>