<svg id="Layer_1" data-name="Layer 1" xmlns="http://www.w3.org/2000/svg" xmlns:xlink="http://www.w3.org/1999/xlink" viewBox="0 0 750 1334"><defs><clipPath id="clip-path"><rect width="750" height="1331" style="fill:none"/></clipPath></defs><title>bg</title><g style="clip-path:url(#clip-path)"><g id="rain"><rect x="-46.48" width="831.95" height="1322.45" style="fill:#bbaeb0"/><rect x="-96" y="1210" width="1002" height="275" style="fill:#312a25"/><g id="rain_drops" data-name="rain drops"><path d="M216-1134.07V702.66" style="fill:none;stroke:#312a25;stroke-miterlimit:10;stroke-width:2px"/><path d="M328.23-1553V487.16" style="fill:none;stroke:#312a25;stroke-miterlimit:10;stroke-width:2px"/><path d="M585.56-1181Q580.39-285.86,590,609.27" style="fill:none;stroke:#312a25;stroke-miterlimit:10;stroke-width:2px"/><path d="M746.88-738.31q-14.19,1049.23,15.5,2098.42" style="fill:none;stroke:#312a25;stroke-miterlimit:10;stroke-width:2px"/><path d="M72.23-838V1202.16" style="fill:none;stroke:#312a25;stroke-miterlimit:10;stroke-width:2px"/><path d="M466.88-884.31Q452.69-232.63,482.38,419" style="fill:none;stroke:#312a25;stroke-miterlimit:10;stroke-width:2px"/><path d="M400.88-768.31Q386.69-116.63,416.38,535" style="fill:none;stroke:#312a25;stroke-miterlimit:10;stroke-width:2px"/><path d="M146-1194.07V642.66" style="fill:none;stroke:#312a25;stroke-miterlimit:10;stroke-width:2px"/><path d="M270.23-1416V624.16" style="fill:none;stroke:#312a25;stroke-miterlimit:10;stroke-width:2px"/><path d="M515.56-1241Q510.39-345.86,520,549.27" style="fill:none;stroke:#312a25;stroke-miterlimit:10;stroke-width:2px"/><path d="M676.88-798.31q-14.19,1049.24,15.5,2098.42" style="fill:none;stroke:#312a25;stroke-miterlimit:10;stroke-width:2px"/></g><path d="M-136.18,968.55q-.48-9.62-.94-19.21a129.86,129.86,0,0,0,0-26.3,192.51,192.51,0,0,0,0-26.31c2.25-1.86.27-6.86,5.35-6.91,1.35,0,.88-2.58-.36-3-5.89-2.1-3.18-6.42-2-10.65,2.29,4.51,4.83,8.92,6.78,13.59,1,2.29-1.86,3.1-3.11,4.49-.71.79-1.71,1.46-1.22,2.77s1.66,1.27,2.73,1.23c3-.13,6.1-.76,8.41,2.15.29.37,2.23,0,2.25-.1.31-2.66,3.59-4.72,2.09-7.52-1.71-3.21-1.55-4.84,2.41-5.17,1.77-.15,2.26-1.85,3-3.2,1-2,2-4.18,4.74-1.7a2.39,2.39,0,0,0,3.52.12,2.38,2.38,0,0,0-.27-3.52c-2.48-2.44.15-5-.29-7.48-.19-1.09,0-4.3,1.76-2.59,1.93,1.9,6.25-3.67,5.85,2.35s5.36,4.68,8.2,6.45c2.48,1.54,3.38-2.47,5-4.09,3-3.07-1.32-3.54-2.25-4.93,2.25-2.6,6.71-1.91,6.54-6.32,0-.92,1.45-1.16,2.07-.49,2.8,3,7.55,4.94,7.61,9.41.12,8.61,5.12,16.31,10.52,19.51S-50,900.36-43.57,902c-6.35,0-8.84,6-13.76,7.9-1.63.64-1.46,2-.83,3.28.92,1.84,1,4.45,3.76,4.76,2.15.24,4.7,1.08,6.35-.38,3.12-2.75,6.86-2.65,10.44-3,3.17-.3,6.78.07,6.39-4.35-.3-3.49,1.68-8.81-5.5-8.77-4,0-7-9.09-4.28-12,26.14-27.71,54.25-52.85,89.34-68.78,4.74-2.15,9.55-4.14,14.37-6.1,2.53-1,3.51-1.25,2.44-5.18-1.53-5.6-1.44-11.78-3.22-17.58-.68-2.19-.51-4.44-2-6.68-3.06-4.73,1.1-8.58,2.8-12.51.59-1.35,2.84-.81,3.66,1.62,3.38,10,9.85,18.09,16.64,25.86,2.53,2.9,3.84,5.66,2.64,9.69-2.51,0-5.13-3.81-7.72-.17-1.87,2.63-3.08,4.7-.31,8,2.09,2.51-2.13,9.54-5.55,10.36-4.74,1.14-12.57,15.26-10.86,19.73,1,2.58,3.22,3.42,5.75,3.46,3.19.05,3.12-2.31,3.25-4.58.09-1.45-.4-3.1,1-4.27,2.85,7.57.34,35.11-4,40.87,5.37-.37,8.26-4.8,13.25-6.55-5.46-.38-5-3.15-4.35-6.85a155.76,155.76,0,0,0,1.94-17.54c1.06-14.89,4.72-28.29,16.09-39.26,5.13-5,11.34-5.56,16.54-6,15.79-1.27,31.62-2.65,48.66-3.84-4.94,5.08-10,7.87-14.79,11-6.84,4.48-13.21,8.27-18.26,16-10.69,16.38-23.21,31.91-41.64,41.5a15.9,15.9,0,0,0,8.84-2.15c17.44-11.51,35.54-22,52.89-33.62,9.36-6.3,19.64-11.25,28.93-17.79,1.49-1.05,4.08-3.11,5.46-.14,1,2.12-1.54,3.15-3.15,4.21-7.79,5.1-16.11,9.44-23.51,15.7,2.44,1.59,3.69.42,5.18-.49,19.66-12,39.52-23.64,59-36,6.5-4.13,13-8.22,19.64-12.19,2.56-1.54,4.83-3.42,2.83-5.87s-4.26.36-6.07,1.75c-12.31,9.46-26,16.88-38.71,25.67-.84.58-2.14.45-3.06,1-1.58.86-3.18,2.09-4.29-.34-.92-2,1-2.55,2.16-3.35q12.42-8.28,24.85-16.53c10.54-7,21.39-13.53,31.5-21.08a37.32,37.32,0,0,1,21-7.62c16.13-.82,28.48-8.86,39.19-20.17a6.83,6.83,0,0,1,4.31-2.37c5.28-.84,9.35-4,12.75-8l0,0c3.87-.42,6.58-2.79,9.08-5.49,1,.13,2,.28,2.75-.61,3.21.09,6.51.51,8.93-2.4,5.58,1.28,9.06-2,11.94-6,2.58-3.54,4.09-7.06,3.38-12.21-.32-2.28,7.44-4.15,9.3-8.73.57-1.39,1.37-2.71,1-4.37-.43-2,.43-3.81,2.28-4.13,5.25-.9,6.86-5.7,10-8.83.51-1.38-.05-3.29,1.55-4.09,2.37-1.19,5.51-4.43,7.1-2.89,3.13,3-2.07,3.52-3.09,5.5-.68,1.34-1.93,2.36-1,4.59,5.79-3.36,10-8.52,14.61-12.92,5-4.75,11.33-7.79,15.67-13.34a7,7,0,0,0,1.82-4.51l.35-.23-.23.35c-6,4.57-12.57,8.37-18,13.72-1.12,1.09-2.37,3.49-4.07,1.37a3.26,3.26,0,0,1,1.34-5c1.89-1,4.21-1.4,4.82-4-1.1-1.09-2.32-.34-3.46-.09-11.28,2.55-16.87-1.21-14.55-12.4,1.29-6.23-.49-11.6,0-17.35.35-4.13-.07-8.32-.21-12.49-.06-1.69.48-3.89-1.48-4.69-5.07-2.07-4.43-4.94-1.91-8.74,1.22-1.82-4.58-9.51-7.75-10.63-.6-.22-1.32-.08-1.93-.28-4.87-1.6-10.38-3-11.59-8.77-1.31-6.22,4.52-8.19,8.49-10.06a134.81,134.81,0,0,1,46.12-12.34c14.93-1.27,29.9-3.74,44.89-1.91,11.72,1.42,23.85,1.26,34.63,7.68,7.21,4.29,7.36,9.82.31,15.09-2.89,2.16-7.18,2.16-8.9,6-.56,1-2.41.9-2.08,2.61-2.26,1.27-4.07,3.2-3.41,5.77,1.77,6.86-.93,13.4-1.12,20.1-.1,3.39,1.33,4.37,3.49,3.4,5-2.24,11,.07,15.43-3.92a3.06,3.06,0,0,1,1.86-.56c13.74-.46,27.17-4.65,41.12-3.29,2.56.25,4.84,3.67,7.69.92,1.23.89,2.44.33,3.66,0,1.7,2.67,4.17,1.77,6.53,1.44a6.44,6.44,0,0,0,5.07.66c9.34,3.63,19,5.91,28.83,7.89l1.41.63c.61,2,2,2.45,3.85,1.94l1.57.33c1.42,1.42,2.6,3.3,5.07,2.75l2.54.59c.6,3.3,3.24,2.24,5.27,2.5,1.48,2.37,3.79,3.1,6.38,3.29.06,1.67,1.49,2,2.59,2.56,8.73,4.83,16.24,11.28,23.6,17.93,1.25,1.13,3,1.9,3,4,0,2.62-11.4,16.56-13.9,17.27-1.54.44-3.92-1.57-4.51.87-.5,2.07,2,3.14,3.24,4.48,8.59,9,19.22,16.28,25.45,27.17,8.91,15.59,23.39,19.18,39.17,21l4,.92c.25,2.29,2.22,1.86,3.63,2.3.21,2.32,2.85,3.68,2.42,6.25-3.65,3.47-9.27,3.32-12.79,7a2.43,2.43,0,0,0-2.57.67c-1.65-.08-3.43-.43-3.79,2a6.59,6.59,0,0,0-5.84,3.77,5.1,5.1,0,0,0-4.09,3.39c-1.84,3.08.61,5.5,1.26,8.19,1.84,9.18,2.58,18.58,5.49,27.53l.24,26.41c-1.13,8.55-3.65,16.88-3.75,25.58l-.09.54c-4.51,2.18-1.79,6.22-2.39,9.41a1.91,1.91,0,0,0-.91,2.4c-1.55,1-1.52,2.43-1.21,4q-.74,2.6-1.48,5.19c-4.54,6.42-7.36,13.94-10.46,20.91-12.72,28.51-35.1,47.85-59.13,65.49-4.62,3.39-5.71,6.1-4.92,10.11A238.27,238.27,0,0,0,609,987.9c.71,2.23-.29,7.19,3.31,6.54,3.22-.58,1.34-5,1.16-7.49-.39-5.38,3.68-5.44,6.77-6.13,3.53-.78,4.45,1.92,5.49,4.95,1.84,5.34.16,11,2,16.21a19.05,19.05,0,0,0,.14,9.25c.87,4.36,4.3,1.92,6.6,2.51l2.54.27c12.09,3,24.31-.28,36.54.84,16,1.45,32.23-.38,48.34.94,2.07.17,4.81,1.57,6.37-1.39L735,1014c8.23,4.43,17,2.34,25.25.94,4.41-.75,7.91,1.1,11.83.79,7.16-.57,3.1,6.42,5.91,8.75a4,4,0,0,0,.44,3.84c-.84,8.17,1.59,16,3.71,23.55.63,2.24.41,7,4.8,7.55-.49,2.58,1.59,3.49,3.09,4.77,1.27,3.86,4.6,2.65,7.16,2.68,11.31.16,22.63.1,33.94.1q28.33,0,56.67-.07l-.08-.08c2.1,3.63-1.16,8.43,2.52,11.72a2.07,2.07,0,0,0,.33,2.47c.09,9.82.19,19.63.25,29.45,0,1.9,1.07,3.22,2.15,4.64,15.47,20.31,17.25,41.69,4.79,64.13a9.73,9.73,0,0,0-.59,1.8l-.29.21.05.36c-3,1.49-4.75,4.34-6.86,6.76-5.11,5.87-13.07,6.73-19,11.16l-2.61.41c-10.25.38-20.54,1.39-30.32-3.1-2.82-1.3-5.37-3.81-8.94-2.65a182.73,182.73,0,0,0-26.16,0,188.75,188.75,0,0,0-26.16,0,45.86,45.86,0,0,0-13.08,0c-3.71-.35-3.75,2.59-3.66,4.8.21,4.59-1.51,8.27-3.66,12.17a143.4,143.4,0,0,1-9.72,15.11c-1.25,1.73-2.55,3.17-.35,4.92,3.82,3,4.86,7.62,5.87,11.92,1.24,5.25,3.45,9.08,8.94,10.35L761,1256c-4.59-.28-4.67,2.43-4.25,6,1.16,10,2.14,20,3.09,30,.55,5.86-.14,12.21-3.22,16.62-1.8,2.58-3.5,4.06-1.7,6.55,2,2.8,4.92,3.84,8.48,1.85,5.54-3.1,8-2,9.58,4.26.54,2.06.21,4.57,3.32,4.74l.05.06c.53,3.33,5,3.1,5.63,6.38l-3,4.21c-4,2-2.71,4.05-.07,6.13l.73,1.51c-1.25,2.88-3.41,1.37-5.31,1.12l-1.17-1.13c-3.6-6.25-8.2-11.36-15.27-13.72-2.24-.74-5.37-2.52-6.4,0-1.23,3-5.15,6.54-1.17,10,8.26,7.22,7.39,17.19,8.27,26.59.52,5.45-2.52,7.81-7.89,8-7.51.23-10.42-4.69-12.46-11.58-6.37,9-14.57,13.13-24.7,13.52-2,.08-3.5,1.61-5.24,2.41-11.51,5.33-22.5,4.72-33.13-2.86-5.94-4.24-8.42-11.42-14.27-15.58-.36-1.64-1.68-1.92-3-2-8-.41-16.08-.53-24.08-1.22S618,1361.54,611,1360c-10.52-2.37-20.71-1.26-31-1.31-23.45-.11-46.91,0-70.35.6-24.66.62-49.35-.48-73.94,3.46-10.76,1.72-21.87-1.31-32.49-4.37-5-1.44-8.07-.87-7.55,5.48a40.89,40.89,0,0,1-.45,9.82c-.36,2.3-1.26,4.58-4.43,4.79-3.43.23-3.88-2.27-4.47-4.51s-.72-4.39-1.29-8.12c-3.6,9.14-7.19,16.73-16,19.66l-6.64.11c-2.18-.95-4.71-.6-6.75-2.2-4.65-3.65-10-4.4-15.82-4.44-8.15-.06-11.78-6.72-15-12.88-7.95-15-10.49-31.63-13.39-48.08-.83-4.72-2.78-7-7.27-8.7C293,1305,280.61,1305,270,1299c-3.13-1.76-2.79,1.47-3,3.22-.77,8-1.16,16.14-3.43,24-1.92,6.65-3.19,13.5-5.24,20.11-1.66,5.33-13.32,7.54-19.81,4.61a44.34,44.34,0,0,0-29.93-2.49c-3,.75-5.66,1.66-7-2.1-.81-2.26-2.52-2-4.23-2.09a32.61,32.61,0,0,0-5.23,0c-9.85,1.38-18.46-2.74-27.43-5.71-5.39-1.79-11.28-1.52-16.88-3.15-9.53-2.75-19.77-1.27-28.7-8.51-4.58-3.72-12.51-4.64-19.06-6.06-4.26-.93-8.12-1-11.27-4.9-1.26-1.53-4-2.67-6.9-3-16.36-1.74-32-5.74-45.22-16.39-2.55-2.06-5.76-1-8.67-2.19-6.16-2.52-11-7.23-17.2-9.47-5.91-2.14-11.7-8.62-18.39-1.11-.66.75-3.06.49-4.37,0a40.38,40.38,0,0,0-19.13-3.14c-.74.08-2.14-.38-2.21-.77-1.06-6.21-5.9-3.51-9.31-4.09-4.86-.81-10.1-3-14.5-1.94-5.78,1.45-10.74-.46-16.07-.67-4.06-.16-7.69-.49-10.42-3.8-4.9-6-12.38-3.15-18.29-5.52-10.42-4.2-22.8-5.26-28-18-1.23-3-6.44-2.75-7.15-6.88q-.28-13.15-.58-26.32v-79q0-13.12,0-26.27t0-26.38v-26.28q0-13.18,0-26.37l.06-26.28c.09-4.12.21-8.23.27-12.34.06-4.61-.93-9.24,4.59-12.2,2.81-1.51,2.37-5.49,1.18-8.36C-132.41,966.88-134.38,966.85-136.18,968.55Zm436.67-210.4c4.41.33,5.51,2.69,5.18,7-.43,5.56,2.92,8.41,8.12,6.74A37.4,37.4,0,0,0,329.17,763c3.81-3.83,2.22-7.57-.79-10.24-7.3-6.44-22.19-3.25-27.71,5.53-4.27,1.39-8.89,2.29-10.85,7.48C299.19,767.27,300.72,766.11,300.49,758.15ZM599.11,901.57c2.61-9-5.72-16.91-5.44-26.57,0-.62-.85-1.43-1.49-1.88-7.63-5.34-16.7-7.5-25-11.29-1.64-.75-3.34-.3-5.08-.22-10.56.51-19.19,5.86-26.58,12.39a30.1,30.1,0,0,0-9.7,16.82c-2.46,11.81,4.33,21.58,4.54,32.58,0,2.4,2.23,4.58,4.38,5.41A139.69,139.69,0,0,0,553.37,935c12.66,2.93,23.82-3.31,34.45-8.25C596.82,922.58,600,912.89,599.11,901.57ZM29.8,881.39c-.15-8.58.32-16-.92-23.43-.27-1.65.22-3.83-2-4.38-1.93-.47-3.45.28-5.16,1.75-5,4.31-10.56,8-15.71,12.17-6.87,5.57-15.67,9.69-14.71,21.08C-7.8,899-7.56,909.55-7,920c.17,3.39,2.52,6,5.21,5.76,8.6-.65,19.26,5.33,24.6-7.46,1.19-2.86,6.07-4.54,6-8.07C28.46,900.22,31.45,890.31,29.8,881.39ZM247,806.81c-1.46-2.3-1.37-3.83.19-4.76,2.49-1.48,2.69,1,3.58,2.3.76,1.15,1.83,1.89,3.31,1.11,1-.52,1.81-1.14,1.58-2.49-.62-3.57-8.78-7-12.08-5.1-13.92,8.14-28,16.08-41.69,24.56-4.17,2.58-10.35,4.34-9,11.7.53,2.86,1.07,4.67,4.5,2.83,13.09-7,26.84-12.53,40.55-18.18C243.39,816.52,244.24,810.76,247,806.81Zm-96.76,51.4c-.36,3.32,1,4.73,4.1,3.19,12.88-6.32,26.14-12,35.73-23.49,2-2.37,1.8-4.58.66-6.43-1.28-2.09-3.5-.75-5.17.24-10.34,6.19-20.55,12.62-31.06,18.51C150.94,852.21,150.34,854.87,150.19,858.21ZM508.26,1348c-5.11-3.52-6.17-8.81-12-8.82-3.33,0-7.93.65-7.61-5.4.05-1-1.79-.84-2.84-.84-3.68,0-7.38-.22-11,0-4.71.34-9.78,7.56-9.23,12.39.22,2,1,2.65,2.81,2.65C481.05,1348,493.73,1348,508.26,1348ZM191.56,859.06c5.75-1.88,11.31-2.88,14.8-7.84.3-.43,1.64-.3,2.45-.16,6.46,1.12,11-2.35,15.18-6.5,1.75-1.75,3.26-3.16,6-3.22,9.6-.22,11.25-2.37,10-12.79-15.77,8.31-31.35,16.57-47,24.72C190.26,854.7,191.08,856.68,191.56,859.06Zm28.1,185.52a18.79,18.79,0,0,0,.1,12.9c.57,1.65,1.31,3.92,3.83,3.89,8.45-.11,16.91-.17,25.35-.43,3.47-.11,4.43-3.48,5.44-5.82.8-1.83-1.78-4-3.31-4.06-6.24-.43-12.92-1.62-18.71,0C222.38,1054,222.61,1054.77,219.66,1044.58Zm51.56-89.42c-.77.51-1.28.65-1.39.94C263.61,973,263,991,258.67,1008.32c-.38,1.51,0,2.61,1.81,2.57,1.52,0,2.14-.82,2.47-2.39,3.08-14.88,6.2-29.76,9.49-44.6C273.15,960.7,272.15,958.12,271.22,955.16Zm-1-6.5c2.18-1.52,3.66-2.87,4.12-4.86,3.67-15.92,6.84-31.94,9.3-48.1.36-2.3.94-5.55-2.1-6-2.75-.39-2.79,3.12-3.13,4.93-2.28,12.48-4.63,25-6.14,37.55C271.67,937.51,268.24,942.47,270.26,948.66ZM501.34,1068.5c1.62,2.08,2.7.92,3.75.33,4.68-2.66,9.43-5.2,14-8.07,8.58-5.42,17.42-10.52,24.28-18.25,1.34-1.52,4.18-3.1,2.07-5.32s-3.69.36-5.38,1.74c-8.53,7-16.49,14.63-25.92,20.46C509.69,1062.13,505.6,1065.44,501.34,1068.5Zm-353-211.77a2.49,2.49,0,0,0-3-.66c-10.55,4.86-20.16,11.38-30,17.46a2.6,2.6,0,0,0-.77,3.5c.72,1.4,2.17,1.4,3.41,1a43.46,43.46,0,0,0,6.53-2.82C133.28,870.16,145.05,869,148.29,856.73Zm-60.76,161c4.88-13-8.28-40.42-18.45-39.41C81.39,988.31,81.59,1003.9,87.53,1017.77ZM493.09,752c5.48.25,8.8-1.09,10-5.1,1.43-4.63-.5-8-4.88-10-1.63-.75-4.31-1-3.66-3.59.56-2.27,2.93-1,4.5-1.24,1.07-.16,2.25,0,2.66-1.32a2.28,2.28,0,0,0-1.21-2.75,11.72,11.72,0,0,0-9.43,0c-2.27,1.11-3.11,3.53-2.37,6.18s.11,6.38,4.91,6.11c3.2-.17,4.83,3,4.51,5.15-.42,2.82-3,3.8-6.05,2.08-1.2-.69-3.18-1.09-3.49,1.24-.23,1.81,1.05,2.77,2.72,3A7.28,7.28,0,0,0,493.09,752ZM556,728.81a12.16,12.16,0,0,1-1.4.24,6,6,0,0,0-5,3.66,2.4,2.4,0,0,0,.6,2.22c2,.91,3.62.09,5.1-1.53a2.59,2.59,0,0,1,4-.13c1.53,1.71,2.16,3.94.7,6a93.47,93.47,0,0,1-7.34,9.44c-2.34,2.54-.86,5.06,1,4.63,3.37-.78,6.3.81,9.43.36,1.2-.17,2.09-.61,2.38-1.81s-.13-2-1.52-2.26c-8.38-1.58-2.28-4.51-.76-7.24,1.18-2.12,5.16-2.9,3.12-6.65S562,728.7,556,728.81ZM322.3,742.54c4.47,1.57,8.16,3.59,11.85,1.67s5-1,5.85,2.66c.53,2.28,2.17,3.45,4.36,2,1.67-1.11,3.09-2.88,1.26-4.89-3-3.31-1.27-4.75,1.85-6.21a3.62,3.62,0,0,0,2.1-4.31c-.68-2.71-2.76-1.41-4.25-1.28C336.87,732.89,329.9,737.07,322.3,742.54Zm65.32-44.95c12.25-11.52,24.43-23.11,37.11-34.16C410,672.26,397.36,683.36,387.62,697.59Zm136.47,39.59c-.39-4-1.77-7.78-6.22-8.5-4.11-.66-8.08.29-10.18,4.71s1.86,5.82,4,8.1c2,2.11,7.62,3.17,1.94,7.5-1.64,1.26.31,2.83,1.14,3.65a2.16,2.16,0,0,0,3.36-.66C520.31,747.13,524,742.92,524.09,737.18Zm-232.73,518c.15-6-1.81-10.91-4.48-10.78-4.95.25-8.48,2.73-8.43,8,.07,7.19,6.82,4,10.3,5.85C290.9,1259.35,291.56,1257.12,291.36,1255.13ZM679.78,743.79c3.39.25,6.28-2.74,9.92-3.41,1.58-.29,3.13-.79,3.12-2.71,0-2.46-2.05-2.53-3.77-2.61a44.76,44.76,0,0,1-16.74-4.46c-2.18-1-2.66-.4-2.9,1.56C668.83,736.83,674.74,743.85,679.78,743.79ZM537.9,728.6a21.28,21.28,0,0,0-3.51,0c-1.7.31-4.61-.78-4.54,2.1.07,2.47,2.76,1.52,4.24,1.45,4-.18,4.3,2.06,3.52,5-1,3.57-2.07,7.1-3.13,10.64-.46,1.5-2.24,3.26.66,4.11,2.57.75,2.67-1.51,3.25-3,1.7-4.39,2.68-9.17,4.63-13.29C546.42,728.46,542.57,728.47,537.9,728.6ZM346.14,1011.46c3.54-.51,7.11.27,10.1-2.36,1.73-1.52,3.53-2.91,2.55-5.39-.9-2.29-3.2-1.77-5.13-1.84-4.94-.19-8.44,3.08-12.41,5.22-1.07.57-2.63,1.16-2.16,2.81s2.06,1.4,3.3,1.53A33.75,33.75,0,0,0,346.14,1011.46Zm-47.08,36.78c-1.13-.16-3.19.81-2.5,3.61.55,2.2.3,7.27,2.92,6,4.34-2.12,8.63-1.73,12.89-2.64.78-.16,1.5-1.48,1.9-2.42a1.12,1.12,0,0,0-1.33-1.57C308.42,1051.94,304.84,1048.57,299.06,1048.24Zm-323.79-119h1.66c.32-.51.91-1,.93-1.53.44-11.15.86-22.3,1.14-33.45,0-1.43-.37-3.46-2.25-3.45s-1.93,2.18-2.18,3.52C-27.59,906.07-24.16,917.57-24.73,929.25Zm128.14-45.92c-.33-2-1.44-2.34-2.81-1.57-4.31,2.45-8.59,4.94-12.81,7.54a2.32,2.32,0,0,0-.69,3c.52,1.35,1.67,1.25,2.71.85,4.41-1.71,8.79-3.54,12.12-7.09A11.41,11.41,0,0,0,103.41,883.33Zm156.94,168.48c.22,2.36-.6,5.06,1.14,6.94,1.43,1.55.71,5.18,3.52,4.86,3.84-.45-.52-3.07.68-4.51.4-.48.44-1.47.89-1.67,7.49-3.37,1.59-5.88-.61-8.38-1.19-1.35-2.4-3.84-4.62-2.66C259.34,1047.46,260.5,1049.94,260.35,1051.81ZM464.14,632.34c-.86.24-1.95.76-1.47,1.66q3.54,6.66,7.47,13.12c.21.35,1.69.28,2.31-.08.95-.56.4-1.4-.08-2.17-2.25-3.62-4.43-7.29-6.68-10.91C465.3,633.33,465.43,632.11,464.14,632.34Zm-314.31,376c8.25,8,9.36,8,13.88.24C159.06,1010.25,155,1007.52,149.83,1008.31Zm382.83-350.7a21.73,21.73,0,0,0,2.77-15.47c-.2-1.18-.23-2.35-1.53-2.36-1.52,0-1.28,1.28-1.27,2.4C532.68,647.32,532.66,652.47,532.66,657.61ZM286.8,884.26A11.25,11.25,0,0,0,282,877a2.78,2.78,0,0,0-3.62.32,4.36,4.36,0,0,0-1.46,2.77c.07,1.9,1.83,1.5,3,1.43C282.58,881.39,284,884,286.8,884.26ZM377.24,712.6c-5.47,1.79-10,5.73-15.81,6.74C368.58,721.4,373.88,719.21,377.24,712.6Zm114.24-74.9c4.11-6.59,2-11.9-5.23-13.67C489.8,628,491.71,632.36,491.48,637.7Zm8.7-16.41c-3.65,7.35-2.69,10.68,4.66,14.42C501.16,630.88,500.36,626.23,500.18,621.29Zm-19.65,19.56c-2.9-3.56-3.24-8.36-5.6-12.74C472.17,635.65,473.36,638.35,480.53,640.85Zm-5.12,25.67c2.42-5.64-2.81-7.93-2.51-11.91.08-1.14-1.6-1.1-2.64-.7-1.34.53-1.26,1.36-.58,2.51C471.49,659.46,473.18,662.57,475.41,666.52Zm63.85-33.62c2.55-4.57-2.55-6.64-2.59-10.11,0-.73-.82-2.48-2.13-1.21-.61.59-2.08,1.46-.7,3.15A93.39,93.39,0,0,1,539.26,632.9Zm-29.11,28.29c-2.11-3.62-4.28-5.81-8.23-5.37C504.23,657.8,505.39,661.48,510.15,661.19Zm-12.66-10.82c-1.88-1.93-2.64-5.43-7-4.55C493,649.85,493,649.85,497.49,650.37ZM612.12,903a1.94,1.94,0,0,0,1.71-2.47,2.43,2.43,0,0,0-2.59-2.27c-1.28,0-2.7.23-2.55,2S610.08,902.76,612.12,903ZM434.63,640.36c-5.05-.65-5.05-.65-4.44,4.16A8.85,8.85,0,0,0,434.63,640.36ZM50.86,854.94c3,1.39,4.74.69,6.06-1.75.5-.92.47-1.87-.47-2C53.68,850.69,52.45,852.69,50.86,854.94ZM384.74,699.85c-.32.8-.62,1.51-.85,2.25a4.34,4.34,0,0,0,.91.4,13.9,13.9,0,0,0,1-2.07A8.23,8.23,0,0,0,384.74,699.85Zm-2-11.21a6.6,6.6,0,0,0-.81-.61c-.07,0-.44.28-.42.35a6.54,6.54,0,0,0,.47,1Zm-2.83,19.15a5.2,5.2,0,0,0-.43,1c0,.1.24.28.38.42a6.23,6.23,0,0,0,.44-1C380.31,708.09,380,707.92,379.89,707.79Z" style="fill:#312a25"/><path d="M249,723.45c3.73,1.9,7.85,2.35,11.87,3.06a5.94,5.94,0,0,1,4.5,3.4c1.07,2.47-1.94,2.37-3.06,3.34-5.57,4.8-10.52,10-13.78,16.73-1.38,2.86-13.42,5.91-17.75,4.13-5-2.07-10.09-2.37-15.32-2.07-3.52.2-5.25-1.1-5.05-4.89s-.19-7.12-5.37-8.07c-2.5-.46-5.66-3.07-5.65-6.32,0-3,3.19-3.72,5.58-4.76,8.09-3.51,17-2.47,25.34-4.85C236.54,723.63,242.77,724.1,249,723.45Z" style="fill:#312a25"/><path d="M167.84,803.71c6.8-12.84,11.15-26.55,14.51-40.62,1-4.18,4.63-5.55,8.55-5.71,4.08-.16,8.34.6,10.92-3.92.7-1.22,2.24-1.32,3.54-.89,2,.66,1.41,2.47,1.41,3.89,0,7.55-4.33,13.5-7.69,19.67-6.47,11.85-16.52,20.23-27.79,27.25A3.47,3.47,0,0,1,167.84,803.71Z" style="fill:#312a25"/><path d="M419.86,546.15c8.48,1.13,16.92-.54,25.4-.37a101.67,101.67,0,0,1,30.33,4.78c2,.68,4.18,1.93,3.79,3.7-.59,2.61-3.26,2.09-5.5,1.78-25.15-3.46-50.18-3.16-75.1,2.09-4.38.92-8.83,1.43-13,3.31-1.49.67-3.46,2.18-4.62.15-1-1.71.64-3.15,2.05-4.33.58-.5.74-1.48,1.1-2.25l.33-.13c3.83.4,7.17-1.76,10.09-3.31,5.58-3,12.42-.39,17.37-4.81a2.07,2.07,0,0,0,2.54-.21,2,2,0,0,0,2.63-.23Z" style="fill:#312a25"/><path d="M-11.6,850.72c-.46-2.37,1.1-3.92,2.69-4.85,3.7-2.17,7.44-4.08,7.21-9.78,1.06,3.41,6.29,5.69,2.7,8.77s-6.07,9.48-12.75,5.72Z" style="fill:#312a25"/><path d="M432.6,535c2,.1,2.55,1.29,2.31,3.09a2.53,2.53,0,0,1-3.15,2.44c-1.63-.21-1.91-1.49-2-2.88C429.72,535.62,430.76,534.86,432.6,535Z" style="fill:#312a25"/><path d="M232.6,712c2,.1,2.55,1.29,2.31,3.09a2.53,2.53,0,0,1-3.15,2.44c-1.63-.21-1.91-1.49-2-2.88C229.72,712.62,230.76,711.86,232.6,712Z" style="fill:#312a25"/><path d="M602.6,609c2,.1,2.55,1.29,2.31,3.09a2.53,2.53,0,0,1-3.15,2.44c-1.63-.21-1.91-1.49-2-2.88C599.72,609.62,600.76,608.86,602.6,609Z" style="fill:#312a25"/><path d="M86.6,789c2,.1,2.55,1.29,2.31,3.09a2.53,2.53,0,0,1-3.15,2.44c-1.63-.21-1.91-1.49-2-2.88C83.72,789.62,84.76,788.86,86.6,789Z" style="fill:#312a25"/><path d="M520.13,736.22c-.68,1.62-1.83,3-3.34,2.7a4,4,0,0,1-3.62-4.56c.17-2.3,2-2.24,3.3-2.08C518.62,732.55,519.35,734.52,520.13,736.22Z" style="fill:#312a25"/><path d="M158,339.8c65-47,51.07-31.67,83.37-89.56a189.19,189.19,0,0,0,188.79-43.66C445.89,295.08,548.25,278.25,618,339.8c71.27,62.89,141.45-11.56,175.39-100.55a189.64,189.64,0,0,0,33.84,3,188.32,188.32,0,0,0,77.41-16.53,189.07,189.07,0,0,0,176.59,121.53c104.38,0,189-84.62,189-189s-84.62-189-189-189a188.35,188.35,0,0,0-77.41,16.53,189.07,189.07,0,0,0-353.75,1.5,189.64,189.64,0,0,0-33.84-3C565.41-15.72,524-141.84,490-109.2c-15.73-88.5-97.75-9.52-190.77-9.52a188.94,188.94,0,0,0-165.14,97,189.14,189.14,0,0,0-57.86-9c-104.38,0-189,84.62-189,189S53.62,339.8,158,339.8Z" style="fill:#2d2a27"/><path d="M716.23-241.72a188.94,188.94,0,0,0-165.14,97,189.14,189.14,0,0,0-57.86-9A188.41,188.41,0,0,0,362.3-101c-15.73-88.5-93.05-155.7-186.07-155.7A189.08,189.08,0,0,0-.93-133.69a189.64,189.64,0,0,0-33.84-3,188.35,188.35,0,0,0-77.41,16.53A189.07,189.07,0,0,0-288.77-241.72c-104.38,0-189,84.62-189,189s84.62,189,189,189a188.32,188.32,0,0,0,77.41-16.53A189.07,189.07,0,0,0-34.77,241.28c81.17,0,150-16.64,176.77-88.48,11,2,60.45-57,72-57,50.83,0,84,71.63,118,39,15.73,88.5,68.21,89.48,161.23,89.48,71,0,229.47-14.6,261.77-72.48,18.24,5.86,82.82-41,103-41,104.38,0,47.23-59.14,47.23-163.52S820.61-241.72,716.23-241.72Z" style="fill:#47423d;opacity:0.71"/></g><rect x="-208.5" y="-457.5" width="1056" height="1990" style="fill:#fff;stroke:#000;stroke-miterlimit:10;opacity:0.25"/></g></svg>