<svg id="Layer_1" data-name="Layer 1" xmlns="http://www.w3.org/2000/svg" xmlns:xlink="http://www.w3.org/1999/xlink" viewBox="0 0 1280 800"><defs><clipPath id="clip-path"><rect width="1280" height="800" style="fill:none"/></clipPath></defs><title>bg</title><g style="clip-path:url(#clip-path)"><rect x="-4" y="-261.09" width="1280" height="1322.45" style="fill:#bbaeb0"/><path d="M365.78,335c75.52,12.2,150.76,26.74,226.63,36.09,120.77,14.88,242.46,20.22,358.15-25.19,45.94-18,89.81-46.94,127.37-79.32,51.14-44.07,56.29-124.3,21-187.89C1064.71,17,1005.14-9.86,935.58,4.93,880.31,16.69,845.53,60.74,842,126.12c-1.63,30.43-.28,61-.28,91.53l-9.39,2.46c-7.39-19.44-18.48-38.33-21.51-58.43C800.3,91.79,846.89,4.91,909-26.42c59-29.77,135.27-15.19,191.14,36.54,111.43,103.16,92.89,269-38.56,345-73.71,42.61-155.5,57.49-238.3,62.92-145,9.51-287.39-6.41-423.49-61.47-12.32-5-23.73-12.24-35.56-18.44C364.74,337.06,365.26,336,365.78,335Z" style="fill:#decdbd"/><path d="M732.43,226.91c-52.83,70.75-124,86.49-207.08,66.34-65.83-16-131.56-32.77-198-45.66-87.4-17-168.91,5.33-246.69,44.84C74,295.82,67.21,299.1,59.58,300c88.11-60.26,184.59-90.93,291.86-74.65C407,233.79,462,246.54,516.8,259.1,604.32,279.13,654.53,271.79,732.43,226.91Z" style="fill:#decdbd"/><path d="M1162.27,471.87c-56.79,78.17-133,91.44-221.15,69.86C873.16,525.08,805,508.42,736,497c-77.3-12.82-150.84,5.45-220.35,40.56-5.92,3-12.29,5.09-22.47,9.24,55.51-50.91,182.11-85.83,266.56-72.91,56.72,8.67,113.61,18.37,169,33C1012.43,528.91,1090.15,524,1162.27,471.87Z" style="fill:#decdbd"/><path d="M376.24,104.19c51.68-14.67,103.46-7.88,155,5.23C575,120.58,618.63,128,664,106c-24.12,27.81-50.48,36.43-88.83,28.25-31.33-6.68-61.89-17.72-93.44-22.43C447.12,106.69,411.76,106.55,376.24,104.19Z" style="fill:#decdbd"/><path d="M7.88,861.2q-.66-13.41-1.31-26.8a181.3,181.3,0,0,0,0-36.68,269,269,0,0,0,0-36.69c3.14-2.6.37-9.57,7.46-9.63,1.88,0,1.23-3.61-.5-4.22-8.22-2.92-4.44-8.95-2.74-14.86,3.2,6.3,6.74,12.46,9.46,19,1.34,3.19-2.6,4.33-4.34,6.27-1,1.09-2.39,2-1.7,3.85s2.32,1.78,3.8,1.72c4.21-.18,8.51-1.06,11.74,3,.41.51,3.11.06,3.13-.14.44-3.7,5-6.57,2.92-10.49-2.39-4.48-2.16-6.75,3.36-7.21,2.47-.21,3.15-2.57,4.14-4.46,1.47-2.79,2.82-5.83,6.62-2.36,1.43,1.3,3.39,1.73,4.91.15s.95-3.59-.38-4.91c-3.46-3.4.2-7-.4-10.43-.27-1.51,0-6,2.45-3.61,2.68,2.65,8.72-5.11,8.16,3.28-.55,8.23,7.47,6.52,11.44,9,3.46,2.15,4.71-3.44,6.91-5.69,4.18-4.3-1.84-4.94-3.14-6.88,3.15-3.63,9.37-2.67,9.13-8.82,0-1.28,2-1.61,2.89-.69,3.89,4.13,10.52,6.9,10.61,13.13.16,12,7.14,22.75,14.67,27.21,7.35,4.36,10.94,12.9,19.85,15.14-8.84,0-12.32,8.35-19.18,11-2.28.89-2,2.84-1.17,4.57,1.29,2.56,1.37,6.2,5.26,6.64,3,.34,6.54,1.51,8.86-.53,4.35-3.83,9.56-3.69,14.55-4.15,4.43-.41,9.46.1,8.92-6.06-.43-4.87,2.33-12.28-7.68-12.23-5.58,0-9.81-12.68-6-16.76,36.45-38.65,75.66-73.71,124.6-95.94,6.6-3,13.32-5.77,20-8.5,3.53-1.44,4.89-1.75,3.4-7.22-2.14-7.82-2-16.43-4.49-24.53-.94-3.06-.71-6.19-2.72-9.31-4.27-6.6,1.54-12,3.91-17.46.82-1.87,3.95-1.13,5.1,2.26,4.72,13.93,13.74,25.23,23.21,36.08,3.53,4,5.35,7.89,3.68,13.51-3.5,0-7.16-5.31-10.76-.24-2.61,3.67-4.3,6.56-.44,11.18,2.92,3.51-3,13.32-7.73,14.46-6.61,1.59-17.54,21.28-15.16,27.51,1.38,3.61,4.5,4.78,8,4.83,4.44.07,4.35-3.22,4.53-6.39.12-2-.56-4.32,1.43-6,4,10.56.47,49-5.57,57,7.5-.53,11.53-6.71,18.49-9.14-7.62-.53-7-4.4-6.06-9.56a222,222,0,0,0,2.7-24.46c1.47-20.77,6.57-39.46,22.44-54.76,7.16-6.9,15.81-7.75,23.07-8.34,22-1.77,44.09-3.7,67.87-5.36-6.89,7.09-14,11-20.63,15.33-9.54,6.25-18.43,11.54-25.46,22.32C359.2,691,341.74,712.67,316,726a22.18,22.18,0,0,0,12.34-3c24.32-16,49.56-30.62,73.76-46.9,13.06-8.78,27.4-15.67,40.35-24.81,2.08-1.46,5.69-4.33,7.61-.19,1.36,3-2.15,4.4-4.4,5.87-10.86,7.12-22.46,13.17-32.78,21.9,3.4,2.22,5.14.59,7.22-.68,27.42-16.71,55.13-33,82.23-50.19,9.07-5.76,18.19-11.46,27.39-17,3.58-2.15,6.74-4.77,4-8.2s-6,.51-8.47,2.44c-17.17,13.2-36.2,23.56-54,35.81-1.17.81-3,.63-4.27,1.33-2.2,1.2-4.43,2.93-6-.46-1.27-2.76,1.36-3.56,3-4.67q17.31-11.55,34.66-23.06c14.69-9.74,29.82-18.87,43.93-29.4A52,52,0,0,1,572,574.2c22.51-1.14,39.73-12.35,54.67-28.13a9.53,9.53,0,0,1,6-3.3c7.36-1.17,13-5.53,17.78-11.17l0,0c5.4-.59,9.17-3.89,12.67-7.66,1.38.18,2.76.39,3.83-.84,4.48.12,9.09.71,12.45-3.36,7.8,1.79,12.65-2.81,16.66-8.33,3.59-4.93,5.71-9.84,4.71-17-.44-3.19,10.39-5.79,13-12.18.79-1.94,1.91-3.78,1.41-6.1-.6-2.77.6-5.31,3.18-5.75,7.31-1.26,9.57-7.95,14-12.32.71-1.92-.07-4.59,2.16-5.7,3.31-1.66,7.68-6.18,9.9-4,4.37,4.23-2.89,4.92-4.3,7.68-1,1.87-2.69,3.28-1.44,6.4,8.07-4.68,13.91-11.88,20.37-18,7-6.63,15.81-10.87,21.86-18.61a9.78,9.78,0,0,0,2.54-6.29l.48-.32-.32.49c-8.36,6.37-17.53,11.68-25.09,19.13-1.55,1.53-3.31,4.88-5.67,1.92-1.7-2.14-1.17-5.37,1.87-7,2.64-1.38,5.87-1.95,6.72-5.63-1.54-1.52-3.24-.48-4.83-.12-15.73,3.55-23.53-1.69-20.29-17.29,1.8-8.69-.68-16.19,0-24.21.49-5.75-.09-11.61-.3-17.41-.08-2.36.68-5.43-2.06-6.55-7.06-2.89-6.17-6.89-2.65-12.18,1.69-2.55-6.4-13.27-10.82-14.84-.84-.29-1.84-.1-2.69-.38-6.8-2.24-14.47-4.24-16.16-12.24-1.84-8.67,6.3-11.41,11.84-14a187.68,187.68,0,0,1,64.32-17.21c20.82-1.78,41.7-5.22,62.61-2.67,16.35,2,33.27,1.75,48.3,10.71,10,6,10.26,13.7.43,21-4,3-10,3-12.41,8.35-.78,1.36-3.37,1.26-2.91,3.64-3.14,1.76-5.67,4.46-4.75,8,2.46,9.57-1.29,18.68-1.56,28-.14,4.72,1.85,6.1,4.87,4.74,6.92-3.12,15.31.09,21.52-5.47a4.3,4.3,0,0,1,2.58-.77c19.17-.65,37.9-6.5,57.36-4.59,3.58.35,6.75,5.12,10.72,1.28,1.72,1.24,3.41.46,5.11-.06,2.37,3.72,5.82,2.47,9.1,2a9,9,0,0,0,7.08.92c13,5.07,26.56,8.25,40.21,11l2,.88c.85,2.8,2.78,3.42,5.37,2.71l2.2.46c2,2,3.62,4.6,7.07,3.84l3.54.82c.84,4.6,4.52,3.12,7.34,3.48,2.07,3.31,5.3,4.33,8.91,4.6.09,2.33,2.08,2.72,3.6,3.56,12.18,6.73,22.65,15.73,32.92,25,1.75,1.58,4.18,2.65,4.19,5.52,0,3.66-15.91,23.1-19.39,24.1-2.15.61-5.46-2.2-6.29,1.2-.7,2.89,2.74,4.39,4.52,6.25,12,12.52,26.81,22.7,35.49,37.89C1129.79,519.94,1150,525,1172,527.53l5.63,1.28c.36,3.2,3.09,2.59,5.06,3.21.29,3.23,4,5.14,3.37,8.72-5.09,4.83-12.91,4.63-17.83,9.79-1.41-.56-2.53.06-3.58.94-2.3-.12-4.79-.61-5.3,2.76-3.77.08-6.34,2.06-8.13,5.25a7.15,7.15,0,0,0-5.71,4.73c-2.56,4.3.85,7.67,1.77,11.43,2.55,12.79,3.58,25.9,7.65,38.39l.33,36.84c-1.57,11.91-5.09,23.54-5.23,35.67l-.13.75c-6.29,3-2.49,8.68-3.33,13.12a2.65,2.65,0,0,0-1.26,3.35c-2.17,1.36-2.13,3.39-1.69,5.55l-2.07,7.24c-6.33,9-10.26,19.43-14.6,29.15-17.72,39.77-49,66.75-82.46,91.35-6.44,4.73-8,8.51-6.86,14.1a333.9,333.9,0,0,0,9.5,37c1,3.12-.41,10,4.61,9.13,4.5-.8,1.87-6.93,1.62-10.45-.54-7.5,5.13-7.59,9.44-8.55,4.92-1.09,6.21,2.68,7.67,6.9,2.56,7.45.22,15.3,2.74,22.62-.82,4.31-1.1,8.61.19,12.89,1.22,6.08,6,2.69,9.21,3.51l3.54.38c16.87,4.13,33.9-.39,51,1.16,22.33,2,44.94-.52,67.41,1.32,2.89.24,6.72,2.19,8.89-2l9.55-.56c11.47,6.18,23.74,3.25,35.2,1.3,6.16-1,11,1.54,16.51,1.11,10-.8,4.32,9,8.24,12.2a5.56,5.56,0,0,0,.61,5.36c-1.17,11.39,2.22,22.24,5.18,32.85.87,3.12.57,9.68,6.69,10.53-.68,3.6,2.22,4.86,4.3,6.65,1.78,5.38,6.43,3.69,10,3.74,15.78.22,31.56.14,47.33.13q39.53,0,79-.09l-.11-.12c2.93,5.07-1.62,11.76,3.51,16.35a2.89,2.89,0,0,0,.47,3.45c.12,13.69.26,27.38.35,41.07,0,2.65,1.49,4.49,3,6.47,21.57,28.33,24.06,58.14,6.68,89.45a13.66,13.66,0,0,0-.82,2.51l-.41.29.08.5c-4.22,2.08-6.63,6.05-9.57,9.42-7.12,8.19-18.23,9.39-26.47,15.57l-3.63.58c-14.29.52-28.64,1.93-42.29-4.33-3.93-1.81-7.49-5.31-12.47-3.7a255.27,255.27,0,0,0-36.48,0,262.8,262.8,0,0,0-36.48,0,64.13,64.13,0,0,0-18.25,0c-5.18-.49-5.24,3.61-5.1,6.69.29,6.4-2.11,11.53-5.11,17a203.08,203.08,0,0,1-13.55,21.07c-1.75,2.41-3.56,4.42-.5,6.86,5.34,4.26,6.78,10.64,8.19,16.62,1.73,7.33,4.81,12.67,12.47,14.44l-.41,3.53c-6.39-.38-6.5,3.4-5.93,8.34,1.63,13.93,3,27.88,4.31,41.84.77,8.18-.18,17-4.48,23.19-2.51,3.59-4.89,5.65-2.37,9.13,2.83,3.9,6.86,5.35,11.82,2.58,7.73-4.33,11.13-2.72,13.37,5.94.74,2.88.29,6.37,4.63,6.62l.07.08c.74,4.64,7,4.31,7.84,8.89l-4.11,5.88c-5.6,2.78-3.78,5.65-.11,8.54l1,2.11c-1.74,4-4.76,1.92-7.41,1.57l-1.63-1.58c-5-8.72-11.43-15.84-21.3-19.13-3.11-1-7.48-3.53-8.92-.08-1.72,4.12-7.18,9.12-1.64,14,11.52,10.06,10.31,24,11.55,37.08.72,7.59-3.53,10.89-11,11.11-10.47.32-14.52-6.54-17.37-16.15-8.88,12.61-20.33,18.31-34.45,18.86-2.77.11-4.88,2.24-7.3,3.36-16.07,7.44-31.39,6.59-46.21-4-8.29-5.91-11.75-15.93-19.91-21.73-.5-2.28-2.34-2.68-4.17-2.77-11.2-.58-22.42-.74-33.58-1.7s-22.12,5.31-31.89,3.11c-14.66-3.29-28.88-1.74-43.25-1.81-32.7-.16-65.42,0-98.12.82-34.38.88-68.82-.66-103.13,4.83-15,2.4-30.49-1.82-45.3-6.1-6.93-2-11.26-1.21-10.53,7.66a57.62,57.62,0,0,1-.62,13.69c-.52,3.2-1.77,6.39-6.2,6.68-4.78.32-5.4-3.16-6.23-6.3-.79-3-1-6.11-1.79-11.31-5,12.74-10,23.33-22.3,27.42l-9.27.14c-3-1.32-6.57-.83-9.41-3.06-6.48-5.1-13.91-6.14-22.07-6.2-11.36-.08-16.42-9.36-21-18-11.08-20.92-14.63-44.12-18.67-67.06-1.16-6.59-3.87-9.73-10.14-12.14-15.55-6-32.77-6-47.62-14.32-4.37-2.45-3.9,2-4.13,4.48-1.07,11.24-1.63,22.51-4.79,33.48-2.68,9.28-4.45,18.83-7.31,28-2.31,7.45-18.57,10.53-27.62,6.44a61.91,61.91,0,0,0-41.75-3.48c-4.14,1-7.89,2.32-9.75-2.92-1.12-3.16-3.52-2.86-5.9-2.92a46.68,46.68,0,0,0-7.29,0c-13.74,1.93-25.75-3.82-38.26-8-7.52-2.49-15.73-2.12-23.55-4.39-13.28-3.84-27.57-1.77-40-11.87-6.38-5.18-17.45-6.47-26.58-8.45-5.95-1.29-11.33-1.46-15.72-6.83-1.76-2.14-5.64-3.73-9.63-4.15-22.81-2.42-44.65-8-63.07-22.86-3.56-2.87-8-1.39-12.09-3-8.59-3.51-15.39-10.09-24-13.2-8.24-3-16.31-12-25.64-1.55-.92,1-4.28.67-6.1-.06-8.61-3.43-17.39-5.26-26.68-4.36-1,.1-3-.54-3.08-1.08-1.48-8.67-8.24-4.91-13-5.7-6.78-1.13-14.08-4.25-20.22-2.71-8.07,2-15-.65-22.41-.94-5.67-.23-10.73-.68-14.53-5.3-6.84-8.29-17.27-4.39-25.51-7.7-14.54-5.85-31.81-7.33-39.06-25.11-1.71-4.18-9-3.85-10-9.6l-.81-36.72v-73.43q0-18.4,0-36.79t0-36.65V981.33q0-18.39,0-36.79L6,907.89c.13-5.74.3-11.47.38-17.2.09-6.43-1.3-12.9,6.39-17,3.92-2.11,3.31-7.66,1.66-11.66C13.14,858.86,10.4,858.83,7.88,861.2Zm609-293.45c6.15.47,7.69,3.75,7.22,9.76-.6,7.76,4.09,11.74,11.34,9.4,7.86-2.54,15.37-6.25,21.44-12.35,5.32-5.34,3.11-10.56-1.1-14.28-10.17-9-30.95-4.54-38.64,7.71-6,1.94-12.41,3.19-15.13,10.43C615.1,580.47,617.23,578.85,616.91,567.75Zm416.49,200c3.64-12.57-8-23.58-7.59-37.06,0-.86-1.17-2-2.07-2.62-10.65-7.45-23.29-10.46-34.91-15.75-2.29-1-4.66-.41-7.09-.3-14.73.71-26.76,8.18-37.07,17.28a41.91,41.91,0,0,0-13.52,23.46c-3.43,16.47,6,30.09,6.32,45.44.06,3.34,3.12,6.38,6.12,7.55,8.52,3.3,17.15,6.57,26,8.62,17.66,4.1,33.23-4.61,48-11.49C1030.21,797.08,1034.62,783.58,1033.4,767.78Zm-794-28.15c-.21-12,.44-22.36-1.28-32.67-.38-2.3.31-5.35-2.77-6.11-2.68-.66-4.81.39-7.19,2.44-7,6-14.73,11.16-21.91,17-9.59,7.77-21.85,13.51-20.52,29.39,1.23,14.59,1.57,29.25,2.29,43.88.23,4.73,3.51,8.31,7.26,8,12-.9,26.87,7.44,34.32-10.4,1.66-4,8.46-6.33,8.33-11.25C237.51,765.9,241.68,752.08,239.38,739.63Zm302.87-104c-2-3.21-1.91-5.34.26-6.63,3.47-2.06,3.75,1.33,5,3.21,1.06,1.61,2.55,2.64,4.61,1.55,1.38-.73,2.54-1.59,2.21-3.47-.87-5-12.25-9.81-16.84-7.12-19.42,11.36-39,22.43-58.15,34.26-5.82,3.59-14.45,6-12.54,16.31.74,4,1.49,6.51,6.27,3.95,18.26-9.78,37.44-17.48,56.56-25.35C537.28,649.16,538.47,641.13,542.25,635.61Zm-135,71.7c-.5,4.63,1.33,6.59,5.72,4.44,18-8.81,36.45-16.73,49.83-32.76,2.75-3.29,2.51-6.39.93-9-1.8-2.91-4.89-1-7.22.34C442.12,679,427.89,688,413.24,696.18,408.33,698.93,407.5,702.65,407.29,707.31ZM906.7,1390.44c-7.13-4.92-8.62-12.29-16.69-12.3-4.65,0-11.07.9-10.63-7.53.08-1.39-2.49-1.17-4-1.18-5.14,0-10.3-.31-15.42,0-6.56.46-13.63,10.54-12.88,17.27.32,2.78,1.41,3.7,3.93,3.7C868.74,1390.43,886.43,1390.44,906.7,1390.44ZM465,708.5c8-2.63,15.79-4,20.65-10.94.42-.6,2.28-.41,3.41-.22,9,1.55,15.37-3.28,21.18-9.07,2.44-2.44,4.55-4.41,8.41-4.49,13.39-.31,15.69-3.3,13.93-17.85-22,11.59-43.73,23.11-65.54,34.48C463.18,702.41,464.32,705.17,465,708.5Zm39.2,258.74a26.16,26.16,0,0,0,.15,18c.79,2.3,1.81,5.47,5.33,5.43,11.79-.15,23.58-.24,35.36-.61,4.84-.15,6.18-4.84,7.59-8.11,1.11-2.56-2.48-5.52-4.62-5.67-8.71-.59-18-2.25-26.1.07C508,980.32,508.29,981.45,504.18,967.24Zm71.91-124.72c-1.08.71-1.79.91-1.94,1.32-8.67,23.52-9.53,48.73-15.57,72.82-.53,2.12,0,3.64,2.53,3.59,2.12,0,3-1.14,3.45-3.33,4.3-20.76,8.65-41.51,13.23-62.2C578.78,850.26,577.39,846.66,576.09,842.52Zm-1.34-9.06c3-2.12,5.11-4,5.75-6.77,5.12-22.21,9.54-44.56,13-67.09.49-3.21,1.29-7.75-2.94-8.36-3.83-.54-3.9,4.35-4.36,6.88-3.19,17.4-6.46,34.82-8.57,52.37C576.72,817.91,571.93,824.83,574.75,833.46ZM897,1000.6c2.26,2.91,3.77,1.29,5.23.46,6.53-3.71,13.16-7.25,19.51-11.26,12-7.55,24.29-14.67,33.85-25.45,1.87-2.11,5.84-4.32,2.89-7.41-2.79-2.92-5.15.5-7.51,2.43-11.89,9.7-23,20.4-36.14,28.53C908.69,991.72,903,996.33,897,1000.6ZM404.64,705.24a3.5,3.5,0,0,0-4.13-.92c-14.71,6.79-28.11,15.87-41.85,24.36a3.63,3.63,0,0,0-1.08,4.88c1,2,3,2,4.76,1.31a59.16,59.16,0,0,0,9.1-3.92C383.7,724,400.11,722.35,404.64,705.24ZM319.89,929.85c6.82-18.1-11.54-56.37-25.72-55C311.33,888.76,311.61,910.5,319.89,929.85ZM885.54,559.11c7.64.34,12.27-1.53,14-7.12,2-6.46-.69-11.14-6.8-13.94-2.28-1-6-1.37-5.11-5,.79-3.16,4.08-1.41,6.27-1.73,1.49-.21,3.14,0,3.71-1.83a3.18,3.18,0,0,0-1.69-3.84c-4.32-1.65-9-2-13.14.06-3.17,1.54-4.34,4.92-3.32,8.62s.17,8.89,6.85,8.52c4.47-.24,6.75,4.24,6.3,7.19-.59,3.92-4.24,5.28-8.44,2.89-1.67-1-4.44-1.52-4.86,1.74-.33,2.51,1.45,3.85,3.79,4.24A12.7,12.7,0,0,0,885.54,559.11Zm87.71-32.27a19.37,19.37,0,0,1-2,.32,8.39,8.39,0,0,0-7,5.1c-.35.8.19,2.82.83,3.11,2.81,1.26,5.06.13,7.11-2.14,1.57-1.73,4-2,5.59-.18,2.14,2.39,3,5.5,1,8.37a128.5,128.5,0,0,1-10.24,13.17c-3.26,3.53-1.2,7.06,1.45,6.45,4.69-1.09,8.78,1.14,13.15.51,1.66-.24,2.91-.85,3.31-2.52s-.17-2.8-2.12-3.16c-11.69-2.2-3.17-6.29-1-10.1,1.64-2.95,7.19-4,4.34-9.27S981.64,526.67,973.25,526.84ZM647.33,546c6.23,2.19,11.39,5,16.52,2.33s7-1.37,8.17,3.71c.74,3.18,3,4.81,6.09,2.77,2.32-1.54,4.3-4,1.75-6.81-4.22-4.62-1.77-6.62,2.58-8.67a5,5,0,0,0,2.93-6c-1-3.79-3.86-2-5.93-1.8C667.65,532.52,657.94,538.35,647.33,546Zm91.1-62.69c17.09-16.07,34.08-32.23,51.77-47.64C769.65,448,752,463.44,738.43,483.29Zm190.34,55.22c-.55-5.57-2.47-10.85-8.67-11.85-5.74-.93-11.27.4-14.2,6.56s2.6,8.11,5.64,11.29c2.81,3,10.63,4.43,2.7,10.47-2.29,1.75.43,3.95,1.59,5.09a3,3,0,0,0,4.68-.93C923.5,552.38,928.69,546.51,928.77,538.51ZM604.18,1260.89c.2-8.37-2.52-15.21-6.24-15-6.91.34-11.83,3.8-11.76,11.13.1,10,9.5,5.54,14.36,8.17C603.54,1266.79,604.45,1263.68,604.18,1260.89Zm541.73-713.17c4.73.36,8.77-3.81,13.84-4.75,2.2-.41,4.37-1.11,4.35-3.78,0-3.43-2.86-3.53-5.25-3.64a62.53,62.53,0,0,1-23.35-6.22c-3-1.42-3.72-.56-4,2.18C1130.64,538,1138.89,547.81,1145.91,547.72ZM948,526.53a30.23,30.23,0,0,0-4.9.05c-2.38.44-6.44-1.09-6.33,2.93.09,3.44,3.84,2.12,5.92,2,5.57-.25,6,2.87,4.9,7-1.32,5-2.89,9.9-4.37,14.84-.63,2.09-3.12,4.55.92,5.73,3.59,1,3.73-2.11,4.54-4.22,2.36-6.12,3.73-12.79,6.46-18.54C959.92,526.35,954.54,526.35,948,526.53ZM680.59,921.05c4.93-.71,9.92.37,14.08-3.29,2.41-2.12,4.92-4.07,3.56-7.53-1.26-3.19-4.46-2.46-7.16-2.56-6.89-.26-11.77,4.3-17.3,7.28-1.5.8-3.68,1.62-3,3.92.61,2.13,2.86,2,4.59,2.14A48.54,48.54,0,0,0,680.59,921.05Zm-65.67,51.3c-1.57-.22-4.44,1.12-3.48,5,.75,3.07.41,10.14,4.07,8.34,6-3,12-2.42,18-3.68,1.09-.23,2.1-2.07,2.66-3.38s-.59-2.4-1.86-2.19C628,977.51,623,972.8,614.92,972.35Zm-451.59-166h2.31c.45-.71,1.27-1.41,1.3-2.14.61-15.55,1.19-31.1,1.59-46.65.05-2-.51-4.82-3.14-4.81s-2.69,3-3,4.91C159.34,774.06,164.12,790.1,163.33,806.39Zm178.72-64c-.47-2.77-2-3.26-3.93-2.18-6,3.4-12,6.89-17.86,10.51-1.37.84-1.57,2.57-1,4.11.74,1.89,2.34,1.75,3.79,1.19,6.15-2.39,12.26-4.93,16.9-9.89A16.22,16.22,0,0,0,342.05,742.34Zm218.88,235c.31,3.28-.84,7,1.59,9.68,2,2.15,1,7.22,4.91,6.77,5.35-.63-.72-4.29,1-6.29.56-.67.61-2,1.24-2.33,10.45-4.7,2.22-8.19-.86-11.69-1.64-1.87-3.34-5.35-6.44-3.7C559.52,971.26,561.14,974.71,560.93,977.33ZM845.16,392.28c-1.2.34-2.72,1.06-2.06,2.31q4.95,9.32,10.43,18.31c.29.48,2.36.38,3.22-.12,1.33-.77.55-1.94-.12-3-3.14-5.05-6.17-10.17-9.31-15.22C846.77,393.67,847,392,845.16,392.28ZM406.79,916.65c11.5,11.19,13,11.21,19.35.34C419.67,919.35,414,915.56,406.79,916.65ZM940.72,427.53A30.3,30.3,0,0,0,944.59,406c-.28-1.65-.32-3.28-2.14-3.29-2.12,0-1.78,1.79-1.76,3.35C940.76,413.18,940.72,420.36,940.72,427.53ZM597.82,743.65c-.87-4.74-3.46-7.71-6.65-10.1a3.88,3.88,0,0,0-5,.44c-1,1-2.07,2.57-2,3.86.08,2.65,2.54,2.1,4.17,2C591.94,739.64,593.87,743.23,597.82,743.65ZM724,504.23c-7.63,2.5-14,8-22.05,9.39C711.89,516.49,719.27,513.45,724,504.23ZM883.29,399.76c5.74-9.19,2.79-16.6-7.29-19.07C880.94,386.2,883.61,392.31,883.29,399.76Zm12.13-22.89c-5.09,10.25-3.75,14.9,6.5,20.11C896.79,390.24,895.68,383.76,895.42,376.87ZM868,404.15c-4-5-4.52-11.66-7.81-17.77C856.36,396.9,858,400.67,868,404.15ZM860.87,440c3.39-7.87-3.91-11.07-3.49-16.62.11-1.58-2.23-1.54-3.69-1-1.87.74-1.75,1.9-.8,3.5C855.41,430.11,857.77,434.45,860.87,440Zm89.06-46.9c3.55-6.36-3.56-9.25-3.62-14.1,0-1-1.13-3.45-3-1.69-.86.83-2.9,2.05-1,4.4C945.13,385,947.25,388.94,949.93,393.06Zm-40.6,39.46c-3-5-6-8.11-11.48-7.49C901.07,427.79,902.69,432.92,909.33,432.52Zm-17.66-15.09c-2.62-2.69-3.68-7.57-9.7-6.34C885.4,416.7,885.4,416.7,891.67,417.43Zm159.87,352.31a2.7,2.7,0,0,0,2.39-3.44,3.39,3.39,0,0,0-3.61-3.16c-1.79,0-3.76.32-3.55,2.84S1048.7,769.44,1051.54,769.74ZM804,403.47c-7-.91-7-.91-6.2,5.8A12.32,12.32,0,0,0,804,403.47ZM268.75,702.75c4.16,1.94,6.61,1,8.46-2.44.69-1.29.65-2.61-.65-2.83C272.69,696.82,271,699.61,268.75,702.75ZM734.42,486.44c-.45,1.11-.87,2.11-1.18,3.14a5.87,5.87,0,0,0,1.26.55,19.85,19.85,0,0,0,1.34-2.88A10.3,10.3,0,0,0,734.42,486.44Zm-2.82-15.63a7.66,7.66,0,0,0-1.13-.86c-.09-.05-.61.39-.58.49a8.71,8.71,0,0,0,.65,1.34Zm-4,26.7a9,9,0,0,0-.6,1.34c0,.14.34.39.53.59a8.47,8.47,0,0,0,.62-1.38C728.24,497.94,727.84,497.69,727.65,497.51Z" style="fill:#312a25"/><path d="M545.12,519.36c5.2,2.64,10.94,3.28,16.55,4.26a8.25,8.25,0,0,1,6.27,4.74c1.5,3.44-2.71,3.32-4.27,4.66-7.76,6.69-14.67,13.94-19.21,23.34-1.93,4-18.71,8.24-24.75,5.76-7-2.89-14.08-3.31-21.37-2.89-4.92.28-7.32-1.54-7-6.83s-.27-9.92-7.5-11.24c-3.48-.64-7.89-4.29-7.88-8.82,0-4.11,4.46-5.19,7.79-6.63,11.28-4.91,23.76-3.45,35.33-6.78C527.73,519.6,536.41,520.27,545.12,519.36Z" style="fill:#312a25"/><path d="M431.91,631.29c9.48-17.91,15.54-37,20.23-56.65,1.39-5.83,6.46-7.74,11.92-8,5.7-.23,11.64.84,15.24-5.47,1-1.71,3.12-1.84,4.94-1.24,2.78.93,2,3.45,2,5.43,0,10.53-6,18.82-10.73,27.42-9,16.53-23.05,28.23-38.76,38A4.83,4.83,0,0,1,431.91,631.29Z" style="fill:#312a25"/><path d="M783.4,272.07c11.83,1.58,23.6-.75,35.42-.51,14.45.29,28.56,2.08,42.31,6.67,2.81.94,5.83,2.69,5.28,5.15-.81,3.64-4.54,2.92-7.67,2.49-35.07-4.82-70-4.41-104.74,2.91-6.1,1.28-12.32,2-18.1,4.61-2.08.94-4.82,3.05-6.44.22-1.37-2.39.89-4.39,2.85-6.05.81-.68,1-2.06,1.53-3.12l.47-.19c5.33.56,10-2.46,14.07-4.62,7.79-4.13,17.32-.54,24.23-6.7a2.91,2.91,0,0,0,3.54-.29,2.8,2.8,0,0,0,3.67-.32Z" style="fill:#312a25"/><path d="M181.63,696.86c-.63-3.31,1.55-5.47,3.76-6.77,5.16-3,10.38-5.69,10.06-13.63,1.47,4.75,8.77,7.93,3.76,12.22-4.82,4.12-8.47,13.23-17.78,8Z" style="fill:#312a25"/><path d="M801.17,256.46c2.79.13,3.56,1.79,3.22,4.3s-1.92,3.73-4.39,3.41c-2.28-.3-2.67-2.09-2.74-4C797.16,257.38,798.6,256.32,801.17,256.46Z" style="fill:#312a25"/><path d="M522.23,503.32c2.78.14,3.56,1.8,3.22,4.31s-1.92,3.72-4.39,3.4c-2.28-.29-2.67-2.08-2.74-4C518.21,504.25,519.66,503.19,522.23,503.32Z" style="fill:#312a25"/><path d="M1038.28,359.66c2.78.14,3.55,1.8,3.21,4.31s-1.92,3.72-4.39,3.41c-2.28-.3-2.67-2.09-2.74-4C1034.26,360.59,1035.71,359.53,1038.28,359.66Z" style="fill:#312a25"/><path d="M318.6,610.71c2.78.14,3.56,1.8,3.22,4.31s-1.92,3.72-4.39,3.4c-2.28-.29-2.67-2.08-2.74-4C314.59,611.64,316,610.58,318.6,610.71Z" style="fill:#312a25"/><path d="M177.73,700.27c.15,1.51.44,3.15-1.79,3.23a1.57,1.57,0,0,1-1.12-1c-.07-2.3,1.64-2,3.1-2Z" style="fill:#312a25"/><path d="M177.92,700.47c-.25-2.76.85-4.1,3.71-3.61l-.2-.2c.33,2.83-.87,4.07-3.7,3.61Z" style="fill:#312a25"/><path d="M923.25,537.17c-1,2.25-2.55,4.15-4.66,3.77-3.11-.57-5.33-2.59-5.05-6.37.24-3.21,2.76-3.13,4.61-2.9C921.14,532,922.16,534.8,923.25,537.17Z" style="fill:#312a25"/><rect x="-115.5" y="-454.5" width="1479" height="1990" style="fill:#fff;stroke:#000;stroke-miterlimit:10;opacity:0.25"/></g></svg>