<?xml version="1.0" encoding="utf-8"?>
<!-- Generator: Adobe Illustrator 24.0.1, SVG Export Plug-In . SVG Version: 6.00 Build 0)  -->
<svg version="1.1" id="Layer_1" xmlns="http://www.w3.org/2000/svg" xmlns:xlink="http://www.w3.org/1999/xlink" x="0px" y="0px"
	 viewBox="0 0 457 457" style="enable-background:new 0 0 457 457;" xml:space="preserve">
<style type="text/css">
	.st0{fill:#CDC3C5;stroke:#312A25;stroke-miterlimit:10;}
	.st1{fill:#312A25;stroke:#312A25;stroke-miterlimit:10;}
	.st2{fill:#CDC3C5;}
	.st3{fill:#312A25;}
</style>
<g>
	<circle class="st0" cx="228.5" cy="228.5" r="208.5"/>
	<path class="st1" d="M228.5,26C340.3,26,431,116.7,431,228.5S340.3,431,228.5,431S26,340.3,26,228.5S116.7,26,228.5,26 M228.5,14
		c-29,0-57,5.7-83.5,16.9c-25.5,10.8-48.5,26.3-68.2,46c-19.7,19.7-35.2,42.6-46,68.2C19.7,171.5,14,199.5,14,228.5
		s5.7,57,16.9,83.5c10.8,25.5,26.3,48.5,46,68.2c19.7,19.7,42.6,35.2,68.2,46c26.5,11.2,54.5,16.9,83.5,16.9s57-5.7,83.5-16.9
		c25.5-10.8,48.5-26.3,68.2-46c19.7-19.7,35.2-42.6,46-68.2c11.2-26.5,16.9-54.5,16.9-83.5s-5.7-57-16.9-83.5
		c-10.8-25.5-26.3-48.5-46-68.2c-19.7-19.7-42.6-35.2-68.2-46C285.5,19.7,257.5,14,228.5,14L228.5,14z"/>
</g>
<g>
	<path class="st2" d="M228.5,14C347,14,443,110,443,228.5S347,443,228.5,443S14,347,14,228.5S110,14,228.5,14 M228.5,0
		c-30.8,0-60.8,6-88.9,18c-27.2,11.5-51.6,28-72.6,49c-21,21-37.5,45.4-49,72.6C6,167.7,0,197.7,0,228.5s6,60.8,18,88.9
		c11.5,27.2,28,51.6,49,72.6c21,21,45.4,37.5,72.6,49c28.2,11.9,58.1,18,88.9,18s60.8-6,88.9-18c27.2-11.5,51.6-28,72.6-49
		c21-21,37.5-45.4,49-72.6c11.9-28.2,18-58.1,18-88.9s-6-60.8-18-88.9c-11.5-27.2-28-51.6-49-72.6c-21-21-45.4-37.5-72.6-49
		C289.3,6,259.3,0,228.5,0L228.5,0z"/>
</g>
<g>
	<g>
		<path class="st3" d="M228.8,322.4c-43.5,0-78.8-35.4-78.8-78.8s35.4-78.8,78.8-78.8s78.8,35.4,78.8,78.8S272.2,322.4,228.8,322.4z
			 M228.8,175.9c-37.3,0-67.7,30.4-67.7,67.7c0,37.3,30.4,67.7,67.7,67.7c37.3,0,67.7-30.4,67.7-67.7
			C296.5,206.3,266.1,175.9,228.8,175.9z"/>
	</g>
	<g>
		<path class="st3" d="M359.2,323H98.4L228.5,68.6L359.2,323z M116.6,311.9H341L228.5,93L116.6,311.9z"/>
	</g>
	<g>
		<rect x="223" y="80.8" class="st3" width="11.1" height="236.1"/>
	</g>
</g>
</svg>
