<svg id="Layer_1" data-name="Layer 1" xmlns="http://www.w3.org/2000/svg" viewBox="0 0 939.45 1334.35"><defs><style>.cls-1{fill:#bbaeb0;}.cls-2{fill:#312a25;}.cls-3{fill:#decdbd;}</style></defs><title>hogwarts bg</title><path class="cls-1" d="M-173.36,614.49c0-26.43.05-52.86-.07-79.3,0-2.66.45-3.31,3.26-3.31q466.28.12,932.55,0c3.4,0,3.61,1,3.6,3.89q-.11,197.12-.06,394.23c-.6-.07-1.61.06-1.75-.22-2.28-4.75-6-1.58-9.13-2,1.87,1.26,4.33.13,6,1.83-4.28,1.74-9.15,0-10-4.24-.92-4.87-4.07-5.67-8.1-5.72a25.7,25.7,0,0,1-3.13-.38c-1.36-.19-3-.27-3.42-1.78-.56-2.24,2-1.75,3-2.73-1.39-1-3.51.87-4.52-1.09-2.17-4.22-2.13-4.24-6.31-5.67,4.84,5.31,1.31,11.1,1.2,16.57-.06,2.93.18,4.23,2.34,6,3,2.49,4.16,5.84,1.65,9.55l.09-.07c-2.6-.2-2.22,5-5.67,3,2,.61,4.08,2.07,6,1.9,2.74-.24,2.31,1.25,2.19,2.63-.25,2.75-2.19,1-3.08.77-5.92-1.4-11.79-3-17.67-4.59-10.31-2.77-20.64-5.5-30.92-8.39-1.25-.36-4.59-.86-2.76-2.71,2.5-2.51,0-2.74-.78-3.82-1.39-2-3.91-1.75-5.83-2.14-2.64-.55-3.09-1.38-2.4-3.75.42-1.47,1.2-3.58-.32-4.5-2.82-1.71-3.1-1.56-2.46-4.19.32-1.34.81-2.53.33-4q-7-21.62-14-43.26c-3.51-11-6.91-22.1-10.36-33.15-.79-2.53-.34-5.59-3.64-8.07,3.07,21,3.08,41.28,3.84,61.66a4.58,4.58,0,0,1-1.85-1.5c-1.52-1.93-.28-4.28-1.06-6.53-1.06-3.07-4.39-2.27-5.29-4.11-4-8.18-9.41-15.83-11.19-24.94-1.74-8.83-2.85-17.78-4.36-26.66a4.94,4.94,0,0,1,1.19-4.52c3.64-4.36,2.69-8.78-2.31-11.74-.92-.55-2-.82-2.17-2.1-.71-5.36-3.28-10-5.34-14.92a204,204,0,0,1-7.24-21.54c-4.83-16.51-12.37-32.23-14.64-49.5-.07-.51-.6-1-1-1.62-1,6.22.49,12.07.39,18q-.51,29.79-.86,59.57c0,3.36-1.27,6.18-2.71,9.52-2.16-3.44-4-6.39-5.87-9.33-2.17-3.41-3.77-7.3-8.4-8.4-2.17-.51-2.19-2.63-2.14-4.5.14-4.43-1.82-8.22-3.88-12.08v13.44c-2.56-2.88-2.36-5.66-2.58-8.3-.1-1.24,0-2.46-1.76-2.68-2.9-.36-6.69,3.16-6.65,6.06.05,3.33.79,6.62.2,10-2,11.57-4.38,23.1-5.74,34.74-1,8.58-4.9,16.64-4.21,25.46-3.66,2.07-7.18,2.12-10.7-.41-1-.68-2.3-.77-3.38-1.3-6.08-3-12.9-3.88-18.44-8.52a70.57,70.57,0,0,0-34.4-15.4,13.7,13.7,0,0,1-8.73-5.4c-2.89-3.66-5.38-7.64-9.45-10.29-2.08-1.37-3.18-3.06-1.81-6.15,1.8-4.05-1.3-7.82-5.87-7.49-2.86.21-1.93-1.76-1.55-2.54,1.48-3,2.39-6.19-1-8-2.82-1.52-2.85-5.65-6.47-6-6.22-.59-12-3.46-18.27-3.73-1.35-6.2-5.45-11.17-7.44-17.16-6.72-20.28-13.84-40.43-20.86-60.61-5.37-15.46-10.83-30.89-16.22-46.35-.49-1.41-1.29-2.82-.78-4.42,1.11-3.5,1.12-3.5-1.68-7.54,1.07,7.08,1,13.31-2.78,18.85-1.92-.11-2.91,1.07-4.06,2.44-1.64,1.93-7.37,1.7-8.82,0-2.1-2.55-1.79-8.56.09-10.39,3.68-3.56,9.32-5.42,10.19-11.5.16-1.09,1.16-1.06,2.08-1.33,5.49-1.59,11-3.27,15.6-8.06-3,.36-5.45.73-7.94.93-9.69.79-19.59,4.1-28-4.62-3.22-3.34-13.91-.62-14.78,3.21s-2.58,3.67-5.55,2.47a17.24,17.24,0,0,0-20.37,5c-2.34,2.74-5,3.29-8.16,1.74-1.64-.81-3.08-2.24-4.78-2.65-3.11-.75-6.61-3.57-9.36.65-3.08,4.71-7.76,6.58-13,7.48-1.48.26-3.07-.05-4.39.95a45.68,45.68,0,0,0-13.78,17.51c-1.28,2.76-2.54,3.63-5.34,3.64-5.64,0-6.72,1-7.14,6.54-.21,2.77-1.18,4.46-3.78,5.62-2.4,1.07-4.32,2.89-4.51,5.87a15.36,15.36,0,0,0,1.77,7.5c1.29,2.8.49,4-2.54,4.83-3.69,1-7.53,1.2-11.13,2.25-7.9,2.31-15.9,4.2-23.79,6.47-4.77,1.38-10.38,2.25-13.22,7.34-1.39,2.49-3,4.17-6.05,4-1.31-.08-2,.4-2.47,2a7.41,7.41,0,0,1-9.41,4.53c-3.63-1.23-5.39-.14-6.4,3.42-1.84,6.5-6.69,9-13.2,7.28-6.22-1.67-11.72-2.15-17,3.63-4.65,5.14-12.06,3.81-18.36,3.66-6.93-.16-13.89-2.39-20.73-2-8.57.52-15.59-1.26-21.37-7.66-.68-.75-1.76-1.84-2.52-1.74-7.62.95-14.56-2.77-22-3.05-2.41-.09-5.11.45-5.9-2.88-.73-3,.15-5,3.09-6.72,6.15-3.58,7.19-8.46,3.85-15.12a9.22,9.22,0,0,1-.45-7.15c1.4-4,2-7.94.89-12.1-.24-.89-.21-1.92.89-2.3a1.66,1.66,0,0,1,2.17,1.19c1.22,3.77,4.21,3.65,7.39,3.89,4.41.34,8.46-.94,12.53-2.1,3.88-1.11,4.32-4.52,4-7.79-.28-2.85-1.27-5.47-5.26-4.53-2.09.5-2.6-1.06-2.64-2.77a5.29,5.29,0,0,1,6.21-5.55,25.28,25.28,0,0,0,6.36.61c3.38-.29,3.24-2.17,1.86-4.42-.86-1.42-2.53-1.51-3.92-2.11-3.7-1.59-7.93-2.24-10.34-6.21-1.91-3.14-5-4.85-8.6-3.28s-2.09,4.87-1.73,7.65c.21,1.6,1.1,3.46-1.22,4.28a43.85,43.85,0,0,1-7,2.14c-4.52.76-6.91-1.75-6.4-6.37.18-1.65,1.17-3.29.43-4.94-4.06-9.12-6.47-19.14-14.58-26.05-2-1.7-4.51-2.43-6.37-4.38C19.47,608.43,8,605-3.89,602.58c-3.43-.69-6.58-1.76-8.21-5.09a8.63,8.63,0,0,0-5.06-4.36c-4.42-1.65-8.88-3.22-13.32-4.86-5.12-1.89-10.93-2.36-15.11-6.24a12,12,0,0,0-9.59-3.31c-8.16.53-16.41,1.94-24.05-2.59A24.33,24.33,0,0,0-83,574.6c-1.3-.5-2.55-.35-3.08,1-1.66,4.29-5,4.4-8.72,3.7-1.23-.24-2.37-.53-3.34.64-3.83,4.61-7.68,9.27-7.25,15.75.26,3.9-1.43,5.41-5.08,6s-7.66.87-10.47,4c-5.1,5.72-14.4,7.36-21.38,4.12-4.44-2.06-8.29-5.2-13-6.67-3.44-1.06-5.82-.46-8.38,2.53C-166.53,609-169.32,612.5-173.36,614.49Zm902.68,303.7-.19.09a1.51,1.51,0,0,0,.09-.18,1.86,1.86,0,0,0,.31-.21s0-.15,0-.23Zm14.5-7.43a.87.87,0,0,0-.26-1.43c-.16-.08-.93.46-.92.7,0,.8.75.61,1.28.66-.18,1.1-.23,2.26,1.17,2.48.83.13.77-.95.76-1.38C745.82,910.38,744.6,910.94,743.82,910.76Zm-15.44-13.57v7.6C730.08,901.61,731.42,899.43,728.38,897.19Zm-2,26,.37-.13-.37-.11Zm19.73-7.79-.15.31h.3Zm1.24-1.51c-.1-.09-.2-.26-.3-.27s-.21.17-.31.26c.09.1.19.28.29.28S747.26,914,747.37,913.9Z" transform="translate(173.45 0.35)"/><path class="cls-2" d="M733.81,940.09c2.51-3.71,1.32-7.06-1.65-9.55-2.16-1.8-2.4-3.1-2.34-6,.11-5.47,3.64-11.26-1.2-16.57,4.18,1.43,4.14,1.45,6.31,5.67,1,2,3.13.11,4.52,1.09-1,1-3.53.49-3,2.73.38,1.51,2.06,1.59,3.42,1.78a25.7,25.7,0,0,0,3.13.38c4,0,7.18.85,8.1,5.72.8,4.19,5.67,6,10,4.24-1.71-1.7-4.17-.57-6-1.83,3.08.46,6.85-2.71,9.13,2,.14.28,1.15.15,1.75.22v4.58c-1.13,2.24-2.75,1.78-4.68,1.1-1.76-.62-4.28-.34-1.52-3.15.37-.38-1.12-.4-1.23-.28-1,1.1-2.19,2.56-.22,3.56,2.47,1.25,4.54,3.54,7.65,3.36v10.08A14.62,14.62,0,0,0,760,953c2.27,1.63,4.05-.09,5.9-.06,0,34.37-.06,68.75.08,103.12,0,3.33-.57,4.28-4.15,4.28q-350.19-.16-700.39-.1c-.57-2,.29-4-1.51-6.25s-2.84-1-4-.49c-1.89.8-.61,2.23-.11,3.32s2.78,1.43,1.93,3.42q-113.73,0-227.48.09c-3.14,0-3.81-.61-3.76-3.76.22-14.06.09-28.12.09-42.18-.06-.66.12-1.36.87-1.17,1.33.34,2.14,3,3.72,1.57,1.88-1.69-1.68-2.34-1.37-4.06.11-.64-.27-1.91-.62-2-1.93-.4-1.62-1.37-.84-2.52,1.17-1.72,1.73.18,2.49.51,1.63.72,2.4.42,1.87-1.42-.83-2.93.9-5.07,2.09-7.38-.11,1.16.32,2.2,1.47,2.34.84.1.94-1.08.93-1.68,0-1.81-1.31-1-2.22-.91a8,8,0,0,0,7.24-3.77c1.57-2.19,2.61-5.81,6.47-2.73,1.24,1,2.22-.16,3.27-.63.06,1-.29,2.8.62,2.84,4,.21.47,2.46,1.1,3.5-2.39.28-1.26,4.34-4.37,4-.64-.06-.82,1.17-.48,1.88s1,.5,1.52.23c1.62-.75,3.19-1.35,3.46,1.35-2.94,1.7-4,5.38-8.69,6.38,3,1,4.06-.06,5.33-.26,2.33-.25,5-2.07,6.59,1.34a6.8,6.8,0,0,0,.79-.29c3.34,0,4.36-4.45,8.06-4.25v4.19c-.58,0-1,.14-1,.85-.42.11-.75.42-.39.75s.61,0,.65-.46l3.11.51c-4.4,1.72-3.17,5.24-2.82,7.42.31,1.92,3.35.26,5.18.29a2.36,2.36,0,0,0,.44-.07c-.6,1.24-2.5,2.09-1.72,3.67.51,1,2.05,1.27,3.25.95,2-.51,1.42-2.29,1.59-3.68,0-.29,0-.59.06-.89,2.86-.41,4-1.3,3.16-2.58-2-3.29-2-3.29,1.45-4,.23.51.57,1.25.77.05.12-.73,0-1.45.87-1.74l2-2.19c2.37.58,1.08-3.07,3.18-2.76,3.55.52,3.59-2.35,4.57-4.48.36-.78.62-3.2,2.45-1.34,2.58,2.63,3.42.46,3.85-1.46.74-3.36,1.58-6.2,5.58-7.19a2.61,2.61,0,0,0,1.5-4.29c2,.4,2.61-.57,2.87-2.43.3-2.08.43-3.84-2.23-4.49,4.55.53,5.5-1.15,3.87-6.62.3,0,.6-.06.89-.12,1.28-.27.77,2.82,2.54,1.42,1.5-1.18.27-2.1-.58-2.9-1.42-1.34,0-1.94.75-2.25,3.55-1.42,2-3,.24-4.61,1.66.24,3.44.49,3.89-1.7.38-1.83,1.58-4-.93-5.34,1.17,0,2.46-.24,2.85,1.37-1.4,5.22-1.35,10.14,3.18,14.44-3.27-1.47-4.49.41-5.37,2.68-.13.34-.47,1.77,1,1.11,1.8-.8,5.63,2.51,5.3-2.62-.09-1.42.86-1.56,2-1.89,1.71-.5,3.81-1.17,1.79-3.72-.11-.12-.47-1.89.66-2.27a1.72,1.72,0,0,1,2,.82c1.45,2.13,3.41,1.44,5.82,1.33-3.06-2.86-3.06-2.86-2.89-7.79,2-.26,2.3-3.12,4.53-3.1,1.42.45,3.46,4.22,4,.79.64-3.92,1.92-8.62-1.21-12.47.52-.53,1.07-1.54,1.55-1.5,4.1.32,4.74-2.26,4.8-5.42l0,0,1.8-.58c-.12,1.65-.22,3.29-.38,4.94-.08.85.14,1.49,1,1.66s2.23.31,2.27-.77c.18-4.63,3.52-8.55,2.91-13.32v0c2-1.3,2.48-3.32,2.7-5.35,1.81,5.63-2.79,11.13-.81,16.94.28.81-.53,1.38-1.25,1.47-2.23.25-1.62,1.65-1.38,3,.77,4.4,3.37,6.27,7.64,5.55-1.48,3.12-4.81,3.07-7.34,4.19-4.33,1.9-4.69,2.33-1.56,6.27l-2.67,0c1.63,1.37,1.32,5,1.76,4.93,4.09-.49,1.75,2.89,2.71,4.16.74,1,.56,1-2.5,3.13-.77.53-1.85,1.76-1.67,2.28.48,1.38,2,1.75,3.41,1.7,1.15-.05,3.43-.52,2.94-1.27-1.74-2.68,1.85-4.22.23-6.72,2.23.59,1.76,4.25,4.58,2.58,2.19-1.3-2.19-1.41-.2-2.72,2.41.7,5,1.47,7.59,2.2,1.19.33,2.33-.09,2.2-1.34-.23-2.17-9.23-7.59-12-7.46,1.52-.09,2-3,3.32-2,2.38,1.76,5.49,1.83,7.7,4a3.84,3.84,0,0,0,5.32.33L-26,969l-.66-.33-.92-1.74c1.7-.06,1.31-1,.83-2a.84.84,0,0,0,.72-.38c.51-.37,5.1-1.76,6.09-2.13,1.22-.46,2.86-.19,3.58-1.57,1-1.87-1.32-1.93-2-2.92-.46-.73-.45-2.16-1.83-2.22l-.35-.16,1-1.31L-21,954l-.68-2.06,1.24-.63c1.21,1.23,2.93.56,4.31,1.16s2.59.48,3.22-.75-.53-2.21-1.14-3.23c-.39-.65-2.56-.19-1.14-2.05.74-1,1.31-1.53,2.56-1.24,2.37.55,4.08-1,5.8-2.14,1.38-.95,2.64-1.93,4.92-1.66-2.92,2.57-3.46,6.48-6.82,8.6,2.53-.08,4.12,1.36,5.84,2.53-.45,1-2.33-.16-2.39,1.53s1.3,1.35,2.22,1.68c1.26.47,2.5,1,3.74,1.48-1.69,1.29-3.86.46-5.61,1.24-.66.29-1.79.89-1.58,2,.28,1.37,1.44.81,2.21.61,1.76-.48,3.47-1.12,5.21-1.7,2.4-.15,4.51,1.75,7,1-4.56,2.11-10.38.34-14.47,4.27,1.11,1.71,3.18.34,4.06,1.94-1.57,1.51-3.46.88-5.23,1-.89,0-1.87,0-2.41.86-.13.21.14.85.4,1.11.8.76,1.68,1.37,2.8.5,2.6-2,5.65-1.22,8.79-1.74a5.19,5.19,0,0,1-3.71,3.48A2.57,2.57,0,0,0-3.54,975c.47,1.62,2.15,1.15,3.11.87A20.57,20.57,0,0,0,6.19,973c1.58-1.19,2.6-1.17,4-.24l.24.28-.14.91-1.1,1c-.53.14-1.31.1-1.54.44s0,1.1.72,1.23c-.3,1.15-1.58,2.29.05,3.46.19.14,1.94.29.34,1-.6.28-1.72,0-1.39,1,.23.73,1.13,1.24,1.72,1.84a7.57,7.57,0,0,0-5.27.51,19.4,19.4,0,0,1-11.45,2l.08.07c-3.73-1.92-3.14,2.45-5.09,3,2.82,3,6.87,2.23,9.85,4.37,1.26.9,3-.47,2.27-2.47-1.18-3.21.13-3.48,2.89-3.09,1.06.15,2.21-.13,3.43,0,3,.36,5.11-1,5.71-4.2l1.59.74c-.2,1.11,1.48,3.12.15,3.1-4.15,0-4.44,3.9-6.94,5.57,3.73,1.54,7.05,2.73,9.65-1.86,1.36-2.4,4-1,5.65-.13.89.47,4,.64,2.31,3.37-.81-.24-1.31-.11-1.09.9l.09-.34-.34-.1c-.31.19-.83.32-.9.57-.25,1,.71,1,1.24,1.31l1.4.91,2.29.46a1.86,1.86,0,0,0,1.79.74c.85,1.33-.56,1.41-1.1,1.92-2.31,2.19-.79,4.88-.12,6.77s2.69.2,4.09-.59c1.74-1,3.16-.25,4.31,1.19-1.12-.18-.77,1.25-1.82,1.5-3.28.8-3.29,1-1,3.28.39.4.44.51.23.92s-.56,1.11-1.31,1c-1.13-.19-2.25-1.11-3.28-.16,1.4,5.3,6.23,5,10.6,6.11-2.63.95-3.75,4.1-2.2,6.12,1.2,1.55,1.47,2.51-.36,3.34-3.43,1.55-1.69,2.69-.17,4.63,1.16,1.49-2.76,4.76.81,5.87,3.24,1,6.68,2.85,10.4,1.1-1.63-2.09-1.64-2.12-4.52-1.53-.75.15-1.58.52-1.95-.37a1.76,1.76,0,0,1,.62-1.5c1.52-1.2,8.25-.25,9.06,1.45,2,4.14,6.81,4.11,9.11,3.45,3.4-1,5.47.12,7.91,1.33,1.85.93,3.51,1.92,5.33,0,.52-.54,1.59-1.3,1-1.73-1.56-1.11-2-3.65-4.64-3.42-1.52.13-3.5.08-3.45-2,.05-1.84,2-2,3.49-2.14,2.18-.28,5.18.79,4.77-3.34,0-.44,1.56-1.56,1.74.13.23,2.17,2,1.94,3,1.93,4.6,0,9.72,1.05,12.38-4.48.16-.33.72-.78,1-.71,6.14,1.8,4.07-3.48,4.77-5.88.57-1.94.7-2.62,3.11-3.15,3.14-.69,5,3.53,7.89.82.64,2-1.37,3.59.16,5.13,2.62-4.62,2.23-6-2.13-8.07-.72-.34-1.84-.71-1.16-2,0-.24,0-.47-.05-.7l0,.79c-2.14-.63-3.69-1.58-.62-3,2.39-1.12,2.36-2.7,1.7-4.7,1.36-1.37,5.15.45,4.4-3.93-.58-3.4,0-3.49,3.5-3.32,2.59.66,1.06-2.62,2.72-2.85-.76,3.33,1.25,5.18,3.31,6.33.14,2.32-3.07.6-2.71,3,.27,1.72,2.08,2,3.22,2,.94,0,2-1.16,2.85-2,10.52-10.22,19.45-21.82,28.23-33.47,3.78-5,7.54-10.29,9.42-16.57.86-2.86.12-4.8-2.19-6.14s-3.91-3.39-5.6-5.3c-1.9-2.15-.27-9.76,2.14-11.17a7.59,7.59,0,0,0,.27,1.23c5.87-.41,11.7-1.1,17.25-3.16-5.41-.64-10.51,2.13-15.92,1,3.92-2.22,8.4-2,12.64-2.65,3.52-.53,5.38-2.38,5.55-5.56.42-8.25,2.21-16.19,4.38-24.12.78-2.87.2-6.12,1.08-8.94,2.47-7.93,1.38-16.27,3.48-24.33,2.41-9.23,1.9-19.24,7.75-28.11.4,5.24,1.78,9.95.86,14.87-.17.89-.68,2.32.75,2.7,1.26.35,1.72-.69,2.18-1.78,1.06-2.49,2.36-4.88,3.49-7.35,2.87-6.28,6.66-12.35,8.31-18.95,2.23-8.86,2.79-18.15,4.11-27.25.14-.94.35-1.81-.34-2.58-1.79-2-.9-3.61.66-5.12a11.78,11.78,0,0,0,2.67-4.73c1.37-3.84,2.73-7.69,4.26-12,2.21,4.12,1.75,8.14,2.36,12,.53,3.26,2.28,7,1.27,9.67-1.5,4-1.5,8-2.4,12s.8,3.87,3.78,3.09Q249.33,808.55,275,802c2.35-.6,2.9-1.69,3.4-3.89.94-4.12-.75-8.11,0-12.1,1.28-6.9,2.7-13.78,4.16-20.64s2-13.72,3.45-20.41c2.49-11.07,5.44-22,6.53-33.34a1.22,1.22,0,0,1,1.92,0c1,22.25,2,44.51,3.05,66.76.24,4.85,1.06,9.65-.85,14.4-1.2,3-.05,3.75,3,2.9,10.72-3,21.49-5.76,32.25-8.59,4.91-1.3,6.42-2.83,4.76-7.55-2.11-6,.07-10.59,2.91-15.41,2.15-3.65,3-8,3.94-11.91.92-3.64,4.77-6.65,2.95-11,5.43-4.12,4.45-10.09,4.54-15.75-.49-6.14,2.23-12.15-2.35-18.55-2.49-3.48-4.94-9.35-3.12-15.15.82-2.61,0-5.72,0-8.61-.76-4.94,2.1-8.94,3.32-13.48,2.12,1.39.42,5.75,4.66,5.39.4,0,1.11,3.69,1.72,5.8,2.42-2.58,2.63-2.63,3.28.11,1.37,5.82,4.17,11.34,3.45,17.68,2.72-3.82,3.73-8.09,5.12-12.18,3.37-9.92,7.47-19.6,9.92-29.82,3.82-5.54,3.85-11.77,2.78-18.85,2.8,4,2.79,4,1.68,7.54-.51,1.6.29,3,.78,4.42,5.39,15.46,10.85,30.89,16.22,46.35,7,20.18,14.14,40.33,20.86,60.61,2,6,6.09,11,7.44,17.16a84.51,84.51,0,0,0-1.57,14.42c-.21,8.34,2.77,17-2.25,25-.62,1-.11,2.69-.08,4.07.29,12.06.62,24.11.88,36.17.18,8.38.09,8.11,8.47,6.71,4.41-.74,5.77-2.88,6.4-7,1.9-12.52,4.09-25,6.48-37.42,1.34-7,1.83-14.11,4.25-20.86l1.75.43a23.58,23.58,0,0,0,.44,4.06q7.2,25.58,14.57,51.09c.23.82,0,2.33,1.71,2.08,0-4.53,0-9,0-13.55,0-1-.5-2.27,1.16-2.43s1.63,1,1.64,2.11a17.11,17.11,0,0,0,.62,4.48c.79,3-.79,7.45,1.75,8.73,2.32,1.16,6.32-.13,9.25-1.23,8.23-3.1,15-1.68,20.23,5.54a7.75,7.75,0,0,0,3.42,3.14l1,1c7.4,7.8,15.45,14.88,23.92,22.63.67-5.11-1-9.42.33-14.29a41,41,0,0,1,1.89,9.44c.5,4.35.64,9,4.92,11.74,4.78,3.07,6.36,7.5,5.75,12.9a4.26,4.26,0,0,0,.76,3c4.06,6.4,8.83,12.35,12,19.3.44,1,1.08,2.33,2.85,1.78a14.91,14.91,0,0,0,.17-2.67q-3.59-31.38-7.23-62.73c-.09-.84.13-2-1.14-2.14-2.75-.38-2.9-2.72-3.61-4.65a12,12,0,0,0-.63-5.57c-.69-8.82,3.2-16.88,4.21-25.46,1.36-11.64,3.72-23.17,5.74-34.74.59-3.36-.15-6.65-.2-10,0-2.9,3.75-6.42,6.65-6.06,1.72.22,1.66,1.44,1.76,2.68.22,2.64,0,5.42,2.58,8.3V770.47c2.06,3.86,4,7.65,3.88,12.08,0,1.87,0,4,2.14,4.5,4.63,1.1,6.23,5,8.4,8.4,1.87,2.94,3.71,5.89,5.87,9.33,1.44-3.34,2.67-6.16,2.71-9.52q.32-29.79.86-59.57c.1-5.89-1.42-11.74-.39-18,.43.66,1,1.11,1,1.62,2.27,17.27,9.81,33,14.64,49.5A204,204,0,0,0,614,790.39c2.06,4.91,4.63,9.56,5.34,14.92.17,1.28,1.25,1.55,2.17,2.1,5,3,6,7.38,2.31,11.74a4.94,4.94,0,0,0-1.19,4.52c1.51,8.88,2.62,17.83,4.36,26.66,1.78,9.11,7.17,16.76,11.19,24.94.9,1.84,4.23,1,5.29,4.11.78,2.25-.46,4.6,1.06,6.53a4.58,4.58,0,0,0,1.85,1.5c-.76-20.38-.77-40.7-3.84-61.66,3.3,2.48,2.85,5.54,3.64,8.07,3.45,11,6.85,22.12,10.36,33.15q6.88,21.66,14,43.26c.48,1.46,0,2.65-.33,4-.64,2.63-.36,2.48,2.46,4.19,1.52.92.74,3,.32,4.5-.69,2.37-.24,3.2,2.4,3.75,1.92.39,4.44.11,5.83,2.14.75,1.08,3.28,1.31.78,3.82-1.83,1.85,1.51,2.35,2.76,2.71,10.28,2.89,20.61,5.62,30.92,8.39,5.88,1.57,11.75,3.19,17.67,4.59.89.21,2.83,2,3.08-.77.12-1.38.55-2.87-2.19-2.63-1.89.17-3.93-1.29-6-1.9,3.45,2,3.07-3.19,5.67-3-.5.93-1.08,1.92.39,2.48.23.09.88-.31,1-.62C735.88,940.45,735.18,940,733.81,940.09ZM9.26,1003.2c.21.67.2,1.51,1.21,1.55.09,0,.27-.21.27-.33,0-1.13-1.1-.67-1.57-1.13-.85-1.33.42-1.84,1-2.61h4.3c-.51-1.49-.32-3.13-2-3.13-2,0-1.43,2.18-2.28,3.22-1-.34-1.8-.2-2.09.89A1.15,1.15,0,0,0,9.26,1003.2Zm47.58,44.22c.43.54-1.84,1.6.31,1.75.75,0,2.16.36,1.85-1.08-.22-1-1.36-.92-2.26-.57-.79-2.85-.79-2.85-4.49-.92ZM748.4,940.11c6.33-3.58,6.33-3.61.42-7.92a11.87,11.87,0,0,0-1.14-.65l-.16.18.26-.12c0,3.94-.93,7.38-5,9.17,1.86-.62,3.92.51,5.7-.73Zm-2,10.46c3.11,0,3.92-.9,3.79-4.42-.08-1.83-1.3-3.89-2.71-3.83-3.54.15-3.48,3.44-3.84,6C743.4,950.36,744.58,951.06,746.44,950.57ZM737.31,920c.86,2.11,1.25,4.35,2.51,5.85,1.52,1.81,3.89.13,5.88.29a1.52,1.52,0,0,0,1.74-1.65c-.16-1.66-1.35-.34-1.91-.57-1.18-.48-2.86.08-3.41-2S739.66,919.57,737.31,920Zm-87.16-2.78c-2.74,5.3-1.67,10.55,2,11.7C651.54,925.29,650.94,921.78,650.15,917.23ZM-33.32,984.72c-2.75-1.63-5.43-2.86-8.44-2.14-.84.2-.46,1.42.17,1.87C-39.11,986.2-36.49,986.78-33.32,984.72Zm78.55,70.68c2.55-2.12,4.74.77,7.25.78C50.51,1051.76,47.92,1053.63,45.23,1055.4Zm-29.61-50.84c4.1-1.57,3-4.7,3.86-6.92.22-.58,1.09-1.3-.21-1.68-1-.28-1.84-.12-2.1,1C16.66,999.27,16.23,1001.58,15.62,1004.56Zm6.9,16.28c.51,1,1.55,1.11,1.7,2.19.17,1.26,1,2.36,2.53,1.66.87-.41,2.24-1.47,2.13-1.93a2.61,2.61,0,0,0-3.08-1.94A29.5,29.5,0,0,1,22.52,1020.84Zm732.9-68.07a2.82,2.82,0,0,0,2.33-3.27c-.07-1.23-.22-2.88-1.52-2.92-2.1-.05-2.36,2.07-2.7,3.61C753.25,951.45,754,952.43,755.42,952.77Zm8-5.13c-.25-1.39-.69-2.4-2.34-1.87-1,.31-2.65-.64-2.57,1.42,0,1.25.37,2.4,2,2.37C761.9,949.54,763.15,949.28,763.4,947.64Zm-909.31,69.21c.2,1.41-.81,2.83,1.26,3.1,2.76.37,2.58-2,3.2-3.42.35-.82-.41-1.62-1.3-2C-143.17,1016.13-146.88,1014-145.91,1016.85Zm260,2.22-2.93,4.76C113.53,1022.76,114.38,1021.28,114.06,1019.07ZM338,869.68v5.52C338.66,873.69,339.55,872.24,338,869.68ZM63.56,1050.23a.85.85,0,0,0-1.18-.85,3.2,3.2,0,0,0-1.65,1.2c-.23.43.22,1.1,1,1.11A1.82,1.82,0,0,0,63.56,1050.23ZM26.4,1013.64c-.14.17-.47.49-.44.53a7.32,7.32,0,0,0,.84.83c.15-.21.42-.41.43-.63C27.26,1013.87,27,1013.57,26.4,1013.64ZM-87.46,977a5,5,0,0,0-1.05-.57c-.13,0-.36.28-.55.43a3.39,3.39,0,0,0,.86.67C-88.07,977.59-87.79,977.26-87.46,977Zm87.31,8.45c-.09-.1-.17-.28-.27-.28s-.21.14-.31.23c.09.1.17.27.27.28S-.26,985.54-.15,985.46Z" transform="translate(173.45 0.35)"/><path class="cls-3" d="M13.09,985.05l-1.59-.74a2.54,2.54,0,0,0-2.42-.23c-.59-.6-1.49-1.11-1.72-1.84-.33-1,.79-.77,1.39-1,1.6-.75-.15-.9-.34-1-1.63-1.17-.35-2.31-.05-3.46A1.66,1.66,0,0,0,9.18,975l1.1-1c.13-.06.37-.15.36-.2a4.83,4.83,0,0,0-.22-.71l-.24-.28c.27-2.08,5.39-.61,3.29-4.17-1.58-2.7-2-5.79-3.51-8.45a10.24,10.24,0,0,1,.07-2.66c.33-1.19.91-2.68-1-2.3-2.38.47.7,1.06.2,1.87a32.12,32.12,0,0,0-1.51,3.19l.15,0c-2.48.75-4.59-1.15-7-1-.08-.7-.15-1.4-.23-2.1-1.24-.49-2.48-1-3.74-1.48-.92-.33-2.28,0-2.22-1.68s1.94-.49,2.39-1.53c-1.72-1.17-3.31-2.61-5.84-2.53,3.36-2.12,3.9-6,6.82-8.6-2.28-.27-3.54.71-4.92,1.66-1.72,1.18-3.43,2.69-5.8,2.14-1.25-.29-1.82.27-2.56,1.24-1.42,1.86.75,1.4,1.14,2.05.61,1,1.79,2,1.14,3.23s-2,1.31-3.22.75-3.1.07-4.31-1.16c-.48-.65-1.17-1.2-1.85-.57s-.12,1,.61,1.2L-21,954a1.2,1.2,0,0,0,.56,1.59l.34.16c-2,1-1.28,4.52-4.42,4.48-1.22,0-3-.66-3.48,1.12-.41,1.51,1.2,2.23,2,3.24a.84.84,0,0,1-.72.38c-.91.39-.93,1.15-.83,2l.92,1.74a.83.83,0,0,0,0,.62,3.84,3.84,0,0,1-5.32-.33c-2.21-2.16-5.32-2.23-7.7-4-1.35-1-1.8,1.92-3.31,2-3,3.39-4.74,1.11-6.37-1.49-3.13-3.94-2.77-4.37,1.56-6.27,2.53-1.12,5.86-1.07,7.34-4.19-4.27.72-6.87-1.15-7.64-5.55-.24-1.36-.85-2.76,1.38-3,.72-.09,1.53-.66,1.25-1.47-2-5.81,2.62-11.31.81-16.94-.22,2-.71,4.05-2.7,5.35a6.76,6.76,0,0,0-4.48-2.88c-1.37-.27-3.55,1.08-2.65,1.83,3.28,2.7.62,5.81,1.3,8.57h0l-1.8.58c-.29-.6-.34-.68,0,0-.06,3.16-.7,5.74-4.8,5.42-.48,0-1,1-1.55,1.5-9.77.49-19.07-2.86-28.76-3.58-5.71-.43-11.55-1.87-17.47-2-1.81,0-4.07.39-5.36-.51-7.08-4.92-15.16-3.68-22.55-2.74-6,.77-11,.3-16.15-2.24-2.73-1.36-5.5-3.65-8.18.17-.19.27-1.27.23-1.69,0-3.61-2.44-8-1.53-11.88-3V911.63c2.54.62,3.61-4.06,6.41-1.94,5.61,4.25,12.62,5.06,19,6.94,5.69,1.69,10.43,3.74,14.24,8.11.75.86,1.76,1.82,2.7,1.15,3.67-2.6,7.86-1.85,11.86-2.06s8.26-2.35,11.51-1.39c9,2.65,17.75-2.06,26.57.08,2.07.5,3.41-1,4.33-2.69,1-2-.28-3.16-1.48-4.35-4-4-9.26-6.37-13-10.71-1.47-1.7-3.75-1.43-4.91.89s-2.77,2-4.93,1.43c-2.85-.72-5.36-3.54-8.57-2-2.91,1.43-5.25.7-7.65-1-1.22-.88-3-2.21-4.12-1-3.15,3.54-5.92.87-8.56-.3a56.53,56.53,0,0,1-8.21-5,10.45,10.45,0,0,0-10.48-1c-5.6,2.61-11,2.3-16.56.45-2.74-.92-5.4-2-8.1-3.06V614.49c4-2,6.83-5.52,9.6-8.76,2.56-3,4.94-3.59,8.38-2.53,4.74,1.47,8.59,4.61,13,6.67,7,3.24,16.28,1.6,21.38-4.12,2.81-3.14,6.77-3.39,10.47-4s5.34-2.12,5.08-6c-.43-6.48,3.42-11.14,7.25-15.75,1-1.17,2.11-.88,3.34-.64,3.7.7,7.06.59,8.72-3.7.53-1.38,1.78-1.53,3.08-1a24.33,24.33,0,0,1,3.8,1.53c7.64,4.53,15.89,3.12,24.05,2.59A12,12,0,0,1-45.59,582c4.18,3.88,10,4.35,15.11,6.24,4.44,1.64,8.9,3.21,13.32,4.86a8.63,8.63,0,0,1,5.06,4.36c1.63,3.33,4.78,4.4,8.21,5.09,11.9,2.38,23.36,5.85,32.09,15,1.86,2,4.37,2.68,6.37,4.38,8.11,6.91,10.52,16.93,14.58,26.05.74,1.65-.25,3.29-.43,4.94-.51,4.62,1.88,7.13,6.4,6.37a43.85,43.85,0,0,0,7-2.14c2.32-.82,1.43-2.68,1.22-4.28-.36-2.78-1.91-6.07,1.73-7.65s6.69.14,8.6,3.28c2.41,4,6.64,4.62,10.34,6.21,1.39.6,3.06.69,3.92,2.11,1.38,2.25,1.52,4.13-1.86,4.42a25.28,25.28,0,0,1-6.36-.61,5.29,5.29,0,0,0-6.21,5.55c0,1.71.55,3.27,2.64,2.77,4-.94,5,1.68,5.26,4.53.33,3.27-.11,6.68-4,7.79-4.07,1.16-8.12,2.44-12.53,2.1-3.18-.24-6.17-.12-7.39-3.89a1.66,1.66,0,0,0-2.17-1.19c-1.1.38-1.13,1.41-.89,2.3,1.16,4.16.51,8.07-.89,12.1a9.22,9.22,0,0,0,.45,7.15c3.34,6.66,2.3,11.54-3.85,15.12-2.94,1.71-3.82,3.69-3.09,6.72.79,3.33,3.49,2.79,5.9,2.88,7.42.28,14.36,4,22,3.05.76-.1,1.84,1,2.52,1.74,5.78,6.4,12.8,8.18,21.37,7.66,6.84-.42,13.8,1.81,20.73,2,6.3.15,13.71,1.48,18.36-3.66,5.23-5.78,10.73-5.3,17-3.63,6.51,1.75,11.36-.78,13.2-7.28,1-3.56,2.77-4.65,6.4-3.42a7.41,7.41,0,0,0,9.41-4.53c.47-1.57,1.16-2.05,2.47-2,3.06.18,4.66-1.5,6.05-4,2.84-5.09,8.45-6,13.22-7.34,7.89-2.27,15.89-4.16,23.79-6.47,3.6-1,7.44-1.21,11.13-2.25,3-.86,3.83-2,2.54-4.83a15.36,15.36,0,0,1-1.77-7.5c.19-3,2.11-4.8,4.51-5.87,2.6-1.16,3.57-2.85,3.78-5.62.42-5.54,1.5-6.51,7.14-6.54,2.8,0,4.06-.88,5.34-3.64a45.68,45.68,0,0,1,13.78-17.51c1.32-1,2.91-.69,4.39-.95,5.22-.9,9.9-2.77,13-7.48,2.75-4.22,6.25-1.4,9.36-.65,1.7.41,3.14,1.84,4.78,2.65,3.14,1.55,5.82,1,8.16-1.74a17.24,17.24,0,0,1,20.37-5c3,1.2,4.68,1.41,5.55-2.47s11.56-6.55,14.78-3.21c8.41,8.72,18.31,5.41,28,4.62,2.49-.2,5-.57,7.94-.93-4.62,4.79-10.11,6.47-15.6,8.06-.92.27-1.92.24-2.08,1.33-.87,6.08-6.51,7.94-10.19,11.5-1.88,1.83-2.19,7.84-.09,10.39,1.45,1.75,7.18,2,8.82,0,1.15-1.37,2.14-2.55,4.06-2.44-2.45,10.22-6.55,19.9-9.92,29.82-1.39,4.09-2.4,8.36-5.12,12.18.72-6.34-2.08-11.86-3.45-17.68-.65-2.74-.86-2.69-3.28-.11-.61-2.11-1.32-5.83-1.72-5.8-4.24.36-2.54-4-4.66-5.39-1.22,4.54-4.08,8.54-3.32,13.48a3.2,3.2,0,0,0-1.77,1.95c-5.82,12.68-13.21,14.47-25,10.92-3.39-1-3.34.67-3.21,2.86.11,1.76.87,3.36-.31,5.23a8,8,0,0,0,2.72,11,81.06,81.06,0,0,0,33,10.37c-.09,5.66.89,11.63-4.54,15.75,1.82,4.31-2,7.32-2.95,11-1,3.93-1.79,8.26-3.94,11.91-2.84,4.82-5,9.39-2.91,15.41,1.66,4.72.15,6.25-4.76,7.55-10.76,2.83-21.53,5.62-32.25,8.59-3.08.85-4.23.09-3-2.9,1.91-4.75,1.09-9.55.85-14.4-1.09-22.25-2-44.51-3.05-66.76V699.54l-.8,0q-.56,6-1.12,12.08c-1.09,11.33-4,22.27-6.53,33.34-1.49,6.69-2,13.65-3.45,20.41s-2.88,13.74-4.16,20.64c-.74,4,.95,8,0,12.1-.5,2.2-1.05,3.29-3.4,3.89q-25.73,6.48-51.38,13.31c-3,.78-4.67.83-3.78-3.09s.9-8,2.4-12c1-2.69-.74-6.41-1.27-9.67-.61-3.82-.15-7.84-2.36-12-1.53,4.29-2.89,8.14-4.26,12a11.78,11.78,0,0,1-2.67,4.73c-1.56,1.51-2.45,3.15-.66,5.12.69.77.48,1.64.34,2.58-1.32,9.1-1.88,18.39-4.11,27.25-1.65,6.6-5.44,12.67-8.31,18.95-1.13,2.47-2.43,4.86-3.49,7.35-.46,1.09-.92,2.13-2.18,1.78-1.43-.38-.92-1.81-.75-2.7.92-4.92-.46-9.63-.86-14.87-5.85,8.87-5.34,18.88-7.75,28.11-2.1,8.06-1,16.4-3.48,24.33-.88,2.82-.3,6.07-1.08,8.94-2.17,7.93-4,15.87-4.38,24.12-.17,3.18-2,5-5.55,5.56-4.24.63-8.72.43-12.64,2.65l.06-.06-1,1a.76.76,0,0,0-.61-.08c-2.41,1.41-4,9-2.14,11.17,1.69,1.91,3.29,3.95,5.6,5.3s3,3.28,2.19,6.14c-1.88,6.28-5.64,11.56-9.42,16.57-8.78,11.65-17.71,23.25-28.23,33.47-.85.82-1.91,2-2.85,2-1.14,0-3-.27-3.22-2-.36-2.36,2.85-.64,2.71-3-2.06-1.15-4.07-3-3.31-6.33,2.2,2.56,4-.87,6.24-.2-1.58-1.31-3.05-2.61-2.1-4.62s3.07-.38,4.54-1.16a1.26,1.26,0,0,1,1.93,1.18c0,1.4-.48,2.83,1.88,2.49,2.59-.38,1.47-2.07,1.44-3.47a13.7,13.7,0,0,1,.31-2.69c.63-3.74-1-5.72-4.44-7.34-3.31-1.56-7,0-10-2-1.61-1.09-2.53-.7-4,.2-4.08,2.5-7.53,6.15-12.71,6.74-2.49.28-3.45,2.33-3.25,4.74a4.1,4.1,0,0,0,4.76,3.89c3.91-1.1,8.39.75,11.79-2.25,1.23-1.08,1.8-1.1,2.78.31.88,1.25,1.22,2-.41,2.71-2,.89-1.7,2.63-1.47,4.31-3.53-.17-4.08-.08-3.5,3.32.75,4.38-3,2.56-4.4,3.93-2.27-3.84-4.57.94-6.85,0l0,0c.49,3.76-1.94,6.09-4,8.8-3,4-7.64.51-10.94,2.9a2.32,2.32,0,0,1-3.07-1.15l2.08-.83c-6.78-3.53-6.78-3.53-9.64-2.59,1.1,1.67,4.14.79,4.44,3.38l-.91.55c-1-.33-1.6-1.9-2.73.37-3,6-5.69,6.46-11.59,3-1.38-.81-2.79-2.08-4.61-1-1,.58-1.89.54-2.17-.58s.86-1.84,1.71-2.37c1.71-1.07,3.46,1,5.53,0-1.93-2.3-5.74-.52-7.05-3.48a1.9,1.9,0,0,0-2.6-1.19c-1.25.64.05,1.52.23,2.29a1.89,1.89,0,0,1-.91,2.32c-.94.51-1.6,0-2.41-.57-3.41-2.55-1.36-5,0-7.52.29-.54,2.34-.08.91-1.58-.6-.63-1.12-1.64-1.82-1.79-.91-.18-1.78.84-1.86,1.67-.41,3.89-2.82,2.76-5.34,2.65-2.89-.13-4.4-2.44-6.75-3.28-1.15-1.44-2.57-2.19-4.31-1.19-1.4.79-3.4,2.54-4.09.59s-2.19-4.58.12-6.77c.54-.51,1.95-.59,1.11-1.92-.27-2.57,2.84-6.33-1.47-7.45-5-1.31-5.35-4.91-5.86-8.78,1.88-.1,3.37,2.57,5.76.77-1.66-.83-3.15-1.53-4.59-2.32-1-.56-.79-2.18-.27-2,3.4,1,3.07-2.19,4.44-3.54-5.29-1.33-5.78,3.52-8,6.09C17.83,985.52,15.09,984.57,13.09,985.05Zm131.8-59.89c.46-3.95-.55-7.07-5.07-7-8.28.14-16.41-1.72-24.6-1.78-12.07-.08-24.08-1.69-36.15-1.11a13.52,13.52,0,0,1-3.63-.39c-11.1-2.52-22.64-2-33.68-4.89a8,8,0,0,0-2.28,0c-14.36.75-28.49,4.25-43,3.48a3.91,3.91,0,0,0-2.22.38c-5.86,3.75-11.42,2.35-17-.74A15.36,15.36,0,0,0-30,910.81c-1.86,0-4.28-1-5.35,1.37-.91,2,.1,4.08,1.61,5.4,3.46,3,2.5,6.16.7,9.44-1.65,3-.57,7.41,2.62,7.93,4.17.68,8.19,1.95,12.5,2.35,6.49.61,13-.46,19.51.89,8.41,1.74,17.33,1,25.31,5.09a2.46,2.46,0,0,0,1.79.11c2.32-.89,3.89.45,5.25,1.86,3.45,3.61,7.68,4,12.2,3.22s8.18.61,12,2.95c7.8,4.75,16.23,4.75,24.76,1.87,3.93-1.34,8.1-2.73,11.55.57A13.22,13.22,0,0,0,107,957.5c2-.38,4.62.67,5.52-2,.79-2.4.64-4.77-1.81-6.54-1.4-1-1.54-3,.5-2.76,7.24.83,12-3.59,16-8.06s9.44-5.86,14.52-7.88C144.52,929.1,146.12,928.22,144.89,925.16ZM51.31,1005.5l0,.28.29-.12Z" transform="translate(173.45 0.35)"/><path class="cls-3" d="M-146.14,1004.33c-.27-2.7-1.84-2.1-3.46-1.35-.57.27-1.19.45-1.52-.23s-.16-1.94.48-1.88c3.11.32,2-3.74,4.37-4-.63-1,2.9-3.29-1.1-3.5-.91,0-.56-1.82-.62-2.84,1.94-3-1.08-5.85-.3-8.82-3-.28-.93,3.72-3.33,4a2.56,2.56,0,0,0-.87.24c-7,3.59-13.91,2.41-20.87,0V961.16c5.93.84,11.82,3.23,17.82.12a4.5,4.5,0,0,1,3.14.11c5.69,2,11.52,1,17.17.37,4.34-.44,9.38.43,12.9-3.25,2.6-2.72,5.59-4,9.22-5,4.62-1.38,7.77,2.62,11.89,1.81.22,1.83,6.23,1.76,1.53,5.36-2.4,1.84-.67,3.31,1.61,4.09,3.31,1.12,7,.26,10.17,2,1.78,1.63,3.31,3.19-.24,4.61-.76.31-2.17.91-.75,2.25.85.8,2.08,1.72.58,2.9-1.77,1.4-1.26-1.69-2.54-1.42-.29.06-.59.08-.89.12,1.63,5.47.68,7.15-3.87,6.62,2.66.65,2.53,2.41,2.23,4.49-.26,1.86-.89,2.83-2.88,2.43-.15-1.19-.08-2.46-1.26-3.56-2.86,3.65-7.84,5.36-9.18,10.42a1.44,1.44,0,0,1-1,.88c-3.43.51-2.91,7.51-8.16,5-.07.41-.14.83-.22,1.24-.73,3.63-2.85,5-5.82,2.94s-4.51-.85-6.67,1.05c3.7,1.52,3.85,6.18,7.49,7.47-3.49.73-3.49.73-1.45,4,.79,1.28-.3,2.17-3.16,2.58l.08,0c-1.1-1.33-2.21-.21-3.32,0l.06,0a2.36,2.36,0,0,1-.44.07c-1.83,0-4.87,1.63-5.18-.29-.35-2.18-1.58-5.7,2.82-7.42l-3.11-.51-.27-.3c0-.7.4-.86,1-.83,2.11-1.27,6.65-1.73,1.68-5.33-.49-.35-.27-1.69-.38-2.57.06-.23.13-.46.19-.69l-.65.25c-2.28.34-3.67,3.83-6.79,1.74-.58-.39-3.12,1.85-2.37,2.32,2.57,1.62-.85,3,.26,4.33a6.8,6.8,0,0,1-.79.29c-1.61-3.41-4.26-1.59-6.59-1.34a7.59,7.59,0,0,1,3.26-4.19C-145.31,1005.73-144.8,1005-146.14,1004.33Z" transform="translate(173.45 0.35)"/><path class="cls-1" d="M-87.91,966.78c-3.16-1.79-6.86-.93-10.17-2-2.28-.78-4-2.25-1.61-4.09,4.7-3.6-1.31-3.53-1.53-5.36-4.12.81-7.27-3.19-11.89-1.81-3.63,1.08-6.62,2.32-9.22,5-3.52,3.68-8.56,2.81-12.9,3.25-5.65.58-11.48,1.63-17.17-.37a4.5,4.5,0,0,0-3.14-.11c-6,3.11-11.89.72-17.82-.12v-26.6c3.85,1.42,8.27.51,11.88,3,.42.28,1.5.32,1.69,0,2.68-3.82,5.45-1.53,8.18-.17,5.15,2.54,10.19,3,16.15,2.24,7.39-.94,15.47-2.18,22.55,2.74,1.29.9,3.55.49,5.36.51,5.92.09,11.76,1.53,17.47,2,9.69.72,19,4.07,28.76,3.58,3.13,3.85,1.85,8.55,1.21,12.47-.56,3.43-2.6-.34-4-.79.48-3.77.38-6.3-4.89-6.67-5.82-.41-10.94,2.34-16.56,2.21-2.09,0-5.24,0-5.2,2.37s3.25.88,4.94,1.54a5.42,5.42,0,0,0,.89.19c2.51,1.39,1.31,3.51.93,5.34C-84.47,967.27-86.25,967-87.91,966.78Z" transform="translate(173.45 0.35)"/><path class="cls-1" d="M-173.36,894.21c2.7,1,5.36,2.14,8.1,3.06,5.55,1.85,11,2.16,16.56-.45a10.45,10.45,0,0,1,10.48,1,56.53,56.53,0,0,0,8.21,5c2.64,1.17,5.41,3.84,8.56.3,1.09-1.22,2.9.11,4.12,1,2.4,1.74,4.74,2.47,7.65,1,3.21-1.58,5.72,1.24,8.57,2,2.16.54,3.72,1,4.93-1.43s3.44-2.59,4.91-.89c3.76,4.34,9,6.76,13,10.71,1.2,1.19,2.52,2.4,1.48,4.35-.92,1.72-2.26,3.19-4.33,2.69-8.82-2.14-17.54,2.57-26.57-.08-3.25-1-7.57,1.18-11.51,1.39s-8.19-.54-11.86,2.06c-.94.67-2-.29-2.7-1.15-3.81-4.37-8.55-6.42-14.24-8.11-6.35-1.88-13.36-2.69-19-6.94-2.8-2.12-3.87,2.56-6.41,1.94Z" transform="translate(173.45 0.35)"/><path class="cls-1" d="M-173.36,985.92c7,2.4,13.91,3.58,20.87,0a2.56,2.56,0,0,1,.87-.24c2.4-.26.31-4.26,3.33-4-.78,3,2.24,5.81.3,8.82-1,.47-2,1.62-3.27.63-3.86-3.08-4.9.54-6.47,2.73a8,8,0,0,1-7.24,3.77l-.18.25c-1.19,2.31-2.92,4.45-2.09,7.38.53,1.84-.24,2.14-1.87,1.42-.76-.33-1.32-2.23-2.49-.51-.78,1.15-1.09,2.12.84,2.52.35.08.73,1.35.62,2-.31,1.72,3.25,2.37,1.37,4.06-1.58,1.41-2.39-1.23-3.72-1.57-.75-.19-.93.51-.87,1.17Z" transform="translate(173.45 0.35)"/><path class="cls-1" d="M57.79,1060.2c.85-2-1.39-2.23-1.93-3.42s-1.78-2.52.11-3.32c1.14-.48,2.24-1.64,4,.49s.94,4.23,1.51,6.25Z" transform="translate(173.45 0.35)"/><path class="cls-1" d="M765.92,939.15c-3.11.18-5.18-2.11-7.65-3.36-2-1-.77-2.46.22-3.56.11-.12,1.6-.1,1.23.28-2.76,2.81-.24,2.53,1.52,3.15,1.93.68,3.55,1.14,4.68-1.1Z" transform="translate(173.45 0.35)"/><path class="cls-1" d="M765.92,952.9c-1.85,0-3.63,1.69-5.9.06a14.62,14.62,0,0,1,5.9-3.73Z" transform="translate(173.45 0.35)"/><path class="cls-3" d="M449.4,795c-2.42,6.75-2.91,13.9-4.25,20.86-2.39,12.43-4.58,24.9-6.48,37.42-.63,4.13-2,6.27-6.4,7-8.38,1.4-8.29,1.67-8.47-6.71-.26-12.06-.59-24.11-.88-36.17,0-1.38-.54-3.09.08-4.07,5-8,2-16.68,2.25-25a84.51,84.51,0,0,1,1.57-14.42c6.29.27,12.05,3.14,18.27,3.73,3.62.35,3.65,4.48,6.47,6,3.39,1.82,2.48,5,1,8-.38.78-1.31,2.75,1.55,2.54,4.57-.33,7.67,3.44,5.87,7.49-1.37,3.09-.27,4.78,1.81,6.15,4.07,2.65,6.56,6.63,9.45,10.29a13.7,13.7,0,0,0,8.73,5.4,70.57,70.57,0,0,1,34.4,15.4c5.54,4.64,12.36,5.56,18.44,8.52,1.08.53,2.43.62,3.38,1.3,3.52,2.53,7,2.48,10.7.41a12,12,0,0,1,.63,5.57c-2.88.07-5.53-.87-8.54,1.33-3.49,2.55-8.28.6-9.22-2.63-1.34,1.08.48,4-1.8,4-3.43,0-7.24,1.11-10.28-1-3.86-2.64-8.26-1.42-12.31-2.51-1.51-.4-2.5.8-2.85,2.33-5.27-7.22-12-8.64-20.23-5.54-2.93,1.1-6.93,2.39-9.25,1.23-2.54-1.28-1-5.77-1.75-8.73a17.11,17.11,0,0,1-.62-4.48c0-1.1-.06-2.26-1.64-2.11s-1.15,1.45-1.16,2.43c0,4.51,0,9,0,13.55-1.69.25-1.48-1.26-1.71-2.08q-7.37-25.51-14.57-51.09a23.58,23.58,0,0,1-.44-4.06c.26-4.2-2.27-2-4.5-2Zm.39-4.6c.62-2.22-.17-3.43-.8-4.69C448.65,787.22,447.92,788.73,449.79,790.43Z" transform="translate(173.45 0.35)"/><path class="cls-2" d="M728.38,897.19c3,2.24,1.7,4.42,0,7.6Z" transform="translate(173.45 0.35)"/><path class="cls-2" d="M743.82,910.76c.78.18,2-.38,2,1,0,.43.07,1.51-.76,1.38-1.4-.22-1.35-1.38-1.17-2.48Z" transform="translate(173.45 0.35)"/><path class="cls-2" d="M743.92,910.69c-.53-.05-1.26.14-1.28-.66,0-.24.76-.78.92-.7a.87.87,0,0,1,.26,1.43Z" transform="translate(173.45 0.35)"/><polygon class="cls-2" points="899.85 923.55 899.85 923.32 900.22 923.43 899.85 923.55"/><polygon class="cls-2" points="919.59 915.76 919.73 916.08 919.43 916.07 919.59 915.76"/><path class="cls-2" d="M747.37,913.91c-.11.09-.22.26-.32.26s-.2-.18-.29-.28c.1-.09.21-.26.31-.26S747.27,913.81,747.37,913.91Z" transform="translate(173.45 0.35)"/><polygon class="cls-2" points="902.68 918.45 902.58 918.63 902.78 918.54 902.68 918.45"/><path class="cls-2" d="M729.32,918.19l.23-.53c0,.08,0,.18,0,.23a1.86,1.86,0,0,1-.31.21Z" transform="translate(173.45 0.35)"/><path class="cls-1" d="M502.52,856.34c.35-1.53,1.34-2.73,2.85-2.33,4.05,1.09,8.45-.13,12.31,2.51,3,2.07,6.85,1,10.28,1,2.28,0,.46-3,1.8-4,.94,3.23,5.73,5.18,9.22,2.63,3-2.2,5.66-1.26,8.54-1.33.71,1.93.86,4.27,3.61,4.65,1.27.18,1,1.3,1.14,2.14q3.65,31.37,7.23,62.73a14.91,14.91,0,0,1-.17,2.67c-1.77.55-2.41-.82-2.85-1.78-3.18-6.95-8-12.9-12-19.3a4.26,4.26,0,0,1-.76-3c.61-5.4-1-9.83-5.75-12.9-4.28-2.75-4.42-7.39-4.92-11.74a41,41,0,0,0-1.89-9.44c-1.28,4.87.34,9.18-.33,14.29-8.47-7.75-16.52-14.83-23.92-22.63.59-1.22-.46-.83-1-1A7.75,7.75,0,0,1,502.52,856.34Z" transform="translate(173.45 0.35)"/><path class="cls-1" d="M99.08,1008.83c2.28,1,4.58-3.8,6.85,0,.66,2,.69,3.58-1.7,4.7-3.07,1.44-1.52,2.39.62,3l0-.08c-.68,1.28.44,1.65,1.16,2,4.36,2,4.75,3.45,2.13,8.07-1.53-1.54.48-3.13-.16-5.13-2.88,2.71-4.75-1.51-7.89-.82-2.41.53-2.54,1.21-3.11,3.15-.7,2.4,1.37,7.68-4.77,5.88-.23-.07-.79.38-1,.71-2.66,5.53-7.78,4.43-12.38,4.48-1,0-2.79.24-3-1.93-.18-1.69-1.78-.57-1.74-.13.41,4.13-2.59,3.06-4.77,3.34-1.47.19-3.44.3-3.49,2.14,0,2.06,1.93,2.11,3.45,2,2.59-.23,3.08,2.31,4.64,3.42.61.43-.46,1.19-1,1.73-1.82,1.89-3.48.9-5.33,0-2.44-1.21-4.51-2.3-7.91-1.33-2.3.66-7.13.69-9.11-3.45-.81-1.7-7.54-2.65-9.06-1.45a1.76,1.76,0,0,0-.62,1.5c.37.89,1.2.52,1.95.37,2.88-.59,2.89-.56,4.52,1.53-3.72,1.75-7.16-.08-10.4-1.1-3.57-1.11.35-4.38-.81-5.87-1.52-1.94-3.26-3.08.17-4.63,1.83-.83,1.56-1.79.36-3.34-1.55-2-.43-5.17,2.2-6.12-4.37-1.12-9.2-.81-10.6-6.11,1-1,2.15,0,3.28.16.75.13,1-.43,1.31-1s.16-.52-.23-.92c-2.25-2.3-2.24-2.48,1-3.28,1-.25.7-1.68,1.82-1.5,2.35.84,3.86,3.15,6.75,3.28,2.52.11,4.93,1.24,5.34-2.65.08-.83,1-1.85,1.86-1.67.7.15,1.22,1.16,1.82,1.79,1.43,1.5-.62,1-.91,1.58-1.33,2.52-3.38,5,0,7.52.81.61,1.47,1.08,2.41.57a1.89,1.89,0,0,0,.91-2.32c-.18-.77-1.48-1.65-.23-2.29a1.9,1.9,0,0,1,2.6,1.19c1.31,3,5.12,1.18,7.05,3.48-2.07,1-3.82-1.05-5.53,0-.85.53-2,1.13-1.71,2.37s1.18,1.16,2.17.58c1.82-1.06,3.23.21,4.61,1,5.9,3.43,8.64,2.92,11.59-3,1.13-2.27,1.78-.7,2.73-.37l-.54,8.37c-.07,1.08.36,1.85,1.5,1.75s1.78-1.68,1.64-1.81c-2.86-2.56-.4-6.08-1.69-8.86-.3-2.59-3.34-1.71-4.44-3.38,2.86-.94,2.86-.94,9.64,2.59l-2.08.83a2.32,2.32,0,0,0,3.07,1.15c3.3-2.39,8,1.07,10.94-2.9,2-2.71,4.45-5,4-8.8ZM50.58,1025c3.73,5.1,7.15,9.5,13.69,5,.74-.5,1.87-.64,1.82-1.72s-1.25-1-2.08-1.23C59.83,1025.69,55.46,1025.58,50.58,1025ZM44,1026.91c-1.68,2.07-3.23,3.93-2.18,6.47a1.24,1.24,0,0,0,2,.15C44.89,1031.54,46.56,1029.46,44,1026.91Zm-1.55,8.19c-.64.5-1.75.53-1.87,1.61-.08.72.56,1,1.14,1.09,1.18.23,1.64-.42,1.51-1.47C43.13,1035.92,43.38,1035.11,42.41,1035.1Zm5.9-5.31c.28-.11.63-.15.81-.34s-.13-.48-.21-.73a4.55,4.55,0,0,0-.79.42C47.78,1029.43,47.87,1029.67,48.31,1029.79Z" transform="translate(173.45 0.35)"/><path class="cls-1" d="M351.07,725.51a81.06,81.06,0,0,1-33-10.37,8,8,0,0,1-2.72-11c1.18-1.87.42-3.47.31-5.23-.13-2.19-.18-3.88,3.21-2.86,11.75,3.55,19.14,1.76,25-10.92a3.2,3.2,0,0,1,1.77-1.95c.05,2.89.83,6,0,8.61-1.82,5.8.63,11.67,3.12,15.15C353.3,713.36,350.58,719.37,351.07,725.51Z" transform="translate(173.45 0.35)"/><path class="cls-1" d="M113.83,1001.62c-.23-1.68-.56-3.42,1.47-4.31,1.63-.72,1.29-1.46.41-2.71-1-1.41-1.55-1.39-2.78-.31-3.4,3-7.88,1.15-11.79,2.25a4.1,4.1,0,0,1-4.76-3.89c-.2-2.41.76-4.46,3.25-4.74,5.18-.59,8.63-4.24,12.71-6.74,1.48-.9,2.4-1.29,4-.2,3,2,6.69.43,10,2,3.47,1.62,5.07,3.6,4.44,7.34a13.7,13.7,0,0,0-.31,2.69c0,1.4,1.15,3.09-1.44,3.47-2.36.34-1.89-1.09-1.88-2.49a1.26,1.26,0,0,0-1.93-1.18c-1.47.78-3.63-.79-4.54,1.16s.52,3.31,2.1,4.62c-2.21-.67-4,2.76-6.24.2C114.89,999,116.42,1002.28,113.83,1001.62Z" transform="translate(173.45 0.35)"/><path class="cls-1" d="M10,960.17c1.52,2.66,1.93,5.75,3.51,8.45,2.1,3.56-3,2.09-3.29,4.17-1.39-.93-2.41-.95-4,.24a20.57,20.57,0,0,1-6.62,2.8c-1,.28-2.64.75-3.11-.87a2.57,2.57,0,0,1,1.65-3.3,5.19,5.19,0,0,0,3.71-3.48c-3.14.52-6.19-.28-8.79,1.74-1.12.87-2,.26-2.8-.5-.26-.26-.53-.9-.4-1.11.54-.85,1.52-.82,2.41-.86,1.77-.08,3.66.55,5.23-1-.88-1.6-3-.23-4.06-1.94,4.09-3.93,9.91-2.16,14.47-4.27H7.73Z" transform="translate(173.45 0.35)"/><path class="cls-1" d="M-121.07,1014.18c-3.64-1.29-3.79-5.95-7.49-7.47,2.16-1.9,3.74-3.09,6.67-1.05s5.09.69,5.82-2.94c.08-.41.15-.83.22-1.24,5.25,2.55,4.73-4.45,8.16-5a1.44,1.44,0,0,0,1-.88c1.34-5.06,6.32-6.77,9.18-10.42,1.18,1.1,1.11,2.37,1.26,3.56a2.6,2.6,0,0,1-1.49,4.29c-4,1-4.84,3.83-5.58,7.19-.43,1.92-1.27,4.09-3.85,1.46-1.83-1.86-2.09.56-2.45,1.34-1,2.13-1,5-4.57,4.48-2.1-.31-.81,3.34-3.18,2.77-1-1.93-2.54-2.24-3.74-.42-1,1.46,0,2.43,1.7,2.6-.89.29-.75,1-.87,1.74C-120.5,1015.43-120.84,1014.69-121.07,1014.18Z" transform="translate(173.45 0.35)"/><path class="cls-1" d="M-68.66,963.2c-.17,4.93-.17,4.93,2.89,7.79-2.41.11-4.37.8-5.82-1.33a1.72,1.72,0,0,0-2-.82c-1.13.38-.77,2.15-.66,2.27,2,2.55-.08,3.22-1.79,3.72-1.13.33-2.08.47-2,1.89.33,5.13-3.5,1.82-5.3,2.62-1.47.66-1.13-.77-1-1.11.88-2.27,2.1-4.15,5.37-2.68-4.53-4.3-4.58-9.22-3.18-14.44C-77.74,962.58-73,961.36-68.66,963.2Z" transform="translate(173.45 0.35)"/><path class="cls-3" d="M-68.66,963.2c-4.31-1.84-9.08-.62-13.44-2.09-.39-1.61-1.68-1.37-2.85-1.37a5.42,5.42,0,0,1-.89-.19c-1.69-.66-4.9.88-4.94-1.54s3.11-2.42,5.2-2.37c5.62.13,10.74-2.62,16.56-2.21,5.27.37,5.37,2.9,4.89,6.67C-66.36,960.08-66.62,962.94-68.66,963.2Z" transform="translate(173.45 0.35)"/><path class="cls-1" d="M-49.31,965.47c1.63,2.6,3.34,4.88,6.37,1.49,2.78-.13,11.78,5.29,12,7.46.13,1.25-1,1.67-2.2,1.34-2.59-.73-5.18-1.5-7.59-2.2-2,1.31,2.39,1.42.2,2.72-2.82,1.67-2.35-2-4.58-2.58,1.62,2.5-2,4-.23,6.72.49.75-1.79,1.22-2.94,1.27-1.38,0-2.93-.32-3.41-1.7-.18-.52.9-1.75,1.67-2.28,3.06-2.11,3.24-2.16,2.5-3.13-1-1.27,1.38-4.65-2.71-4.16-.44.06-.13-3.56-1.76-4.93Z" transform="translate(173.45 0.35)"/><path class="cls-1" d="M13.09,985.05c2-.48,4.74.47,5.33-2.75l2.65,1c.51,3.87.83,7.47,5.86,8.78,4.31,1.12,1.2,4.88,1.47,7.45a1.87,1.87,0,0,1-1.8-.74c-.5-1.48-1.31-1.39-2.29-.46l-1.41-.91-.33-1.88.34.1-.09.34,1.09-.9c1.73-2.73-1.42-2.9-2.31-3.37-1.66-.88-4.29-2.27-5.65.13-2.6,4.59-5.92,3.4-9.65,1.86,2.5-1.67,2.79-5.62,6.94-5.57C14.57,988.17,12.89,986.16,13.09,985.05Z" transform="translate(173.45 0.35)"/><path class="cls-1" d="M9.08,984.08a2.54,2.54,0,0,1,2.42.23c-.6,3.18-2.76,4.56-5.71,4.2-1.22-.15-2.37.13-3.43,0-2.76-.39-4.07-.12-2.89,3.09.73,2-1,3.37-2.27,2.47-3-2.14-7-1.4-9.85-4.37,2-.6,1.36-5,5.1-3,.07.21-.57.53.12.63l-.21-.71a19.4,19.4,0,0,0,11.45-2A7.57,7.57,0,0,1,9.08,984.08Z" transform="translate(173.45 0.35)"/><path class="cls-1" d="M-132.76,1003.56c.11.87-.11,2.21.38,2.56,5,3.6.43,4.06-1.68,5.33v-4.2c-3.7-.2-4.72,4.27-8.06,4.25-1.11-1.29,2.31-2.71-.26-4.33-.75-.47,1.79-2.71,2.37-2.32,3.12,2.09,4.51-1.4,6.79-1.74Z" transform="translate(173.45 0.35)"/><path class="cls-1" d="M746.44,950.57c-1.86.49-3-.21-2.76-2.25.36-2.56.3-5.85,3.84-6,1.41-.06,2.63,2,2.71,3.83C750.36,949.67,749.55,950.56,746.44,950.57Z" transform="translate(173.45 0.35)"/><path class="cls-1" d="M747.67,931.54a10.91,10.91,0,0,1,1.15.65c5.91,4.31,5.91,4.34-.42,7.92.4-.83,1.44-1.68-.06-2.47-.47-.25-.89-.1-1,.39-.15.91-.69,2.14,1.12,2-1.78,1.24-3.84.11-5.7.73,4.06-1.79,5-5.23,5-9.17Z" transform="translate(173.45 0.35)"/><path class="cls-1" d="M-26,964.56c-.82-1-2.43-1.73-2-3.24.49-1.78,2.26-1.14,3.48-1.12,3.14,0,2.44-3.51,4.42-4.48,1.39.06,1.38,1.49,1.84,2.22.63,1,2.92,1,2,2.92-.72,1.38-2.36,1.11-3.58,1.57C-20.9,962.8-25.49,964.19-26,964.56Z" transform="translate(173.45 0.35)"/><path class="cls-1" d="M155.22,935.42a.76.76,0,0,1,.61.08c.62-.06,1.18-.19,1-1l-.06.06c5.41,1.08,10.51-1.69,15.92-1-5.55,2.06-11.38,2.75-17.25,3.16A7.59,7.59,0,0,1,155.22,935.42Z" transform="translate(173.45 0.35)"/><path class="cls-3" d="M-47.3,933.41c.61,4.77-2.73,8.69-2.91,13.32,0,1.08-1.38.94-2.27.77s-1.11-.81-1-1.66c.16-1.65.26-3.29.38-4.94h0c2-.42,3-2.08,2.36-3.66C-52.26,933.29-49.89,933.38-47.3,933.41Z" transform="translate(173.45 0.35)"/><path class="cls-1" d="M737.31,920c2.35-.44,4.29-.09,4.81,1.89s2.23,1.55,3.41,2c.56.23,1.75-1.09,1.91.57a1.52,1.52,0,0,1-1.74,1.65c-2-.16-4.36,1.52-5.88-.29C738.56,924.36,738.17,922.12,737.31,920Z" transform="translate(173.45 0.35)"/><path class="cls-1" d="M650.15,917.23c.79,4.55,1.39,8.06,2,11.7C648.48,927.78,647.41,922.53,650.15,917.23Z" transform="translate(173.45 0.35)"/><path class="cls-1" d="M-33.32,984.72c-3.17,2.06-5.79,1.48-8.27-.27-.63-.45-1-1.67-.17-1.87C-38.75,981.86-36.07,983.09-33.32,984.72Z" transform="translate(173.45 0.35)"/><path class="cls-1" d="M-47.3,933.41c-2.59,0-5-.12-3.48,3.84.6,1.58-.33,3.24-2.36,3.66-.68-2.76,2-5.87-1.3-8.57-.9-.75,1.28-2.1,2.65-1.83a6.76,6.76,0,0,1,4.48,2.88Z" transform="translate(173.45 0.35)"/><path class="cls-1" d="M-146.14,1004.33c1.34.71.83,1.4-.1,1.93a7.59,7.59,0,0,0-3.26,4.19c-1.27.2-2.38,1.24-5.33.26C-150.11,1009.71-149.08,1006-146.14,1004.33Z" transform="translate(173.45 0.35)"/><path class="cls-1" d="M45.23,1055.4c2.69-1.77,5.28-3.64,7.25.78C50,1056.17,47.78,1053.28,45.23,1055.4Z" transform="translate(173.45 0.35)"/><path class="cls-1" d="M15.62,1004.56c.61-3,1-5.29,1.55-7.58.26-1.14,1.13-1.3,2.1-1,1.3.38.43,1.1.21,1.68C18.63,999.86,19.72,1003,15.62,1004.56Z" transform="translate(173.45 0.35)"/><path class="cls-1" d="M22.52,1020.84a29.5,29.5,0,0,0,3.28,0,2.61,2.61,0,0,1,3.08,1.94c.11.46-1.26,1.52-2.13,1.93-1.5.7-2.36-.4-2.53-1.66C24.07,1022,23,1021.8,22.52,1020.84Z" transform="translate(173.45 0.35)"/><path class="cls-1" d="M-128.86,1020.73l-.06,0a4.39,4.39,0,0,1,3.32,0l-.08,0c0,.3,0,.6-.06.89-.17,1.39.37,3.17-1.59,3.68-1.2.32-2.74.1-3.25-.95C-131.36,1022.82-129.46,1022-128.86,1020.73Z" transform="translate(173.45 0.35)"/><path class="cls-1" d="M755.42,952.77c-1.45-.34-2.17-1.32-1.89-2.58.34-1.54.6-3.66,2.7-3.61,1.3,0,1.45,1.69,1.52,2.92A2.82,2.82,0,0,1,755.42,952.77Z" transform="translate(173.45 0.35)"/><path class="cls-1" d="M763.4,947.64c-.25,1.64-1.5,1.9-2.91,1.92-1.63,0-2-1.12-2-2.37-.08-2.06,1.61-1.11,2.57-1.42C762.71,945.24,763.15,946.25,763.4,947.64Z" transform="translate(173.45 0.35)"/><path class="cls-1" d="M292.57,711.64q.57-6,1.12-12.08l.8,0v12.08A1.22,1.22,0,0,0,292.57,711.64Z" transform="translate(173.45 0.35)"/><path class="cls-1" d="M-145.91,1016.85c-1-2.85,2.74-.72,3.16-2.33.89.39,1.65,1.19,1.3,2-.62,1.45-.44,3.79-3.2,3.42C-146.72,1019.68-145.71,1018.26-145.91,1016.85Z" transform="translate(173.45 0.35)"/><path class="cls-1" d="M10.27,1000.77c.84-1,.28-3.22,2.27-3.22,1.63,0,1.44,1.64,2,3.13h-4.3Z" transform="translate(173.45 0.35)"/><path class="cls-1" d="M114.06,1019.07c.32,2.21-.53,3.69-2.93,4.76Z" transform="translate(173.45 0.35)"/><path class="cls-1" d="M.66,957.19c.08.7.15,1.4.23,2.1-1.74.58-3.45,1.22-5.21,1.7-.77.2-1.93.76-2.21-.61-.21-1.06.92-1.66,1.58-2C-3.2,957.65-1,958.48.66,957.19Z" transform="translate(173.45 0.35)"/><path class="cls-1" d="M338,869.68c1.51,2.56.62,4,0,5.52Z" transform="translate(173.45 0.35)"/><path class="cls-1" d="M56.83,1047.42l-4.58-.82c3.7-1.93,3.7-1.93,4.49.92Z" transform="translate(173.45 0.35)"/><path class="cls-1" d="M63.56,1050.23a1.82,1.82,0,0,1-1.88,1.46c-.73,0-1.18-.68-1-1.11a3.2,3.2,0,0,1,1.65-1.2A.85.85,0,0,1,63.56,1050.23Z" transform="translate(173.45 0.35)"/><path class="cls-1" d="M449.4,795l-2.75-1.57c2.23,0,4.76-2.2,4.5,2Z" transform="translate(173.45 0.35)"/><path class="cls-1" d="M56.74,1047.52c.9-.35,2-.44,2.26.57.31,1.44-1.1,1.13-1.85,1.08-2.15-.15.12-1.21-.31-1.75Z" transform="translate(173.45 0.35)"/><path class="cls-1" d="M-27.55,966.91c-.1-.82-.08-1.58.83-2C-26.24,965.92-25.85,966.85-27.55,966.91Z" transform="translate(173.45 0.35)"/><path class="cls-1" d="M10.19,1000.68c-.6.77-1.87,1.28-1,2.61l.09-.1a1.13,1.13,0,0,1-1.09-1.53c.29-1.09,1.12-1.23,2.09-.89Z" transform="translate(173.45 0.35)"/><path class="cls-1" d="M-165,997.64c.91-.09,2.2-.9,2.22.91,0,.6-.09,1.78-.93,1.68-1.15-.14-1.58-1.18-1.47-2.34Z" transform="translate(173.45 0.35)"/><path class="cls-1" d="M-21.7,951.91c-.73-.15-1.19-.66-.61-1.2s1.37-.08,1.85.57Z" transform="translate(173.45 0.35)"/><path class="cls-1" d="M733.81,940.09c1.37-.13,2.07.36,1.48,1.79-.12.31-.77.71-1,.62-1.47-.56-.89-1.55-.39-2.48Z" transform="translate(173.45 0.35)"/><path class="cls-1" d="M9.18,975a1.66,1.66,0,0,1-.82,1.67c-.73-.13-1-.75-.72-1.23S8.65,975.16,9.18,975Z" transform="translate(173.45 0.35)"/><path class="cls-1" d="M-20.46,955.56A1.2,1.2,0,0,1-21,954l1.54.28Z" transform="translate(173.45 0.35)"/><path class="cls-3" d="M24.31,998.35c1-.93,1.79-1,2.29.46Z" transform="translate(173.45 0.35)"/><path class="cls-1" d="M9.17,1003.29c.47.46,1.6,0,1.57,1.13,0,.12-.18.33-.27.33-1,0-1-.88-1.21-1.55Z" transform="translate(173.45 0.35)"/><path class="cls-1" d="M26.4,1013.64c.59-.07.86.23.83.73,0,.22-.28.42-.43.63a7.32,7.32,0,0,1-.84-.83S26.26,1013.81,26.4,1013.64Z" transform="translate(173.45 0.35)"/><path class="cls-1" d="M104.85,1016.59l0-.79c0,.23,0,.46.05.7Z" transform="translate(173.45 0.35)"/><path class="cls-3" d="M-87.46,977c-.33.25-.61.58-.74.53a3.39,3.39,0,0,1-.86-.67c.19-.15.42-.47.55-.43A5,5,0,0,1-87.46,977Z" transform="translate(173.45 0.35)"/><path class="cls-3" d="M505.94,859.48c.5.16,1.55-.23,1,1Z" transform="translate(173.45 0.35)"/><path class="cls-3" d="M-134.77,1012.58c0,.42-.26.8-.65.46s0-.64.39-.75Z" transform="translate(173.45 0.35)"/><path class="cls-3" d="M22.57,995.56l.33,1.88c-.52-.34-1.48-.33-1.23-1.31C21.74,995.88,22.26,995.75,22.57,995.56Z" transform="translate(173.45 0.35)"/><path class="cls-1" d="M-.15,985.46c-.11.08-.22.24-.31.23s-.18-.18-.27-.28c.1-.09.21-.24.31-.23S-.24,985.36-.15,985.46Z" transform="translate(173.45 0.35)"/><path class="cls-1" d="M747.78,931.6l-.26.12s.16-.18.15-.18Z" transform="translate(173.45 0.35)"/><path class="cls-1" d="M10.42,973.07a4.83,4.83,0,0,1,.22.71c0,.05-.23.14-.36.2C10.33,973.68,10.38,973.38,10.42,973.07Z" transform="translate(173.45 0.35)"/><path class="cls-1" d="M-26.61,969.27a.83.83,0,0,1,0-.62l.66.33Z" transform="translate(173.45 0.35)"/><path class="cls-3" d="M23.91,995.1l-1.09.9C22.6,995,23.1,994.86,23.91,995.1Z" transform="translate(173.45 0.35)"/><path class="cls-1" d="M144.89,925.16c1.23,3.06-.37,3.94-3.16,5.06-5.08,2-10.41,3.31-14.52,7.88s-8.81,8.89-16,8.06c-2-.24-1.9,1.75-.5,2.76,2.45,1.77,2.6,4.14,1.81,6.54-.9,2.71-3.53,1.66-5.52,2a13.22,13.22,0,0,1-12.51-3.64c-3.45-3.3-7.62-1.91-11.55-.57-8.53,2.88-17,2.88-24.76-1.87-3.85-2.34-7.57-3.69-12-2.95s-8.75.39-12.2-3.22c-1.36-1.41-2.93-2.75-5.25-1.86a2.46,2.46,0,0,1-1.79-.11c-8-4.12-16.9-3.35-25.31-5.09-6.56-1.35-13-.28-19.51-.89-4.31-.4-8.33-1.67-12.5-2.35-3.19-.52-4.27-4.91-2.62-7.93,1.8-3.28,2.76-6.42-.7-9.44-1.51-1.32-2.52-3.39-1.61-5.4,1.07-2.34,3.49-1.39,5.35-1.37a15.36,15.36,0,0,1,7.35,2.35c5.55,3.09,11.11,4.49,17,.74a3.91,3.91,0,0,1,2.22-.38c14.49.77,28.62-2.73,43-3.48a8,8,0,0,1,2.28,0c11,2.9,22.58,2.37,33.68,4.89a13.52,13.52,0,0,0,3.63.39c12.07-.58,24.08,1,36.15,1.11,8.19.06,16.32,1.92,24.6,1.78C144.34,918.09,145.35,921.21,144.89,925.16Z" transform="translate(173.45 0.35)"/><path class="cls-2" d="M21.07,983.32l-2.65-1c2.21-2.57,2.7-7.42,8-6.09-1.37,1.35-1,4.58-4.44,3.54-.52-.16-.77,1.46.27,2,1.44.79,2.93,1.49,4.59,2.32C24.44,985.89,23,983.22,21.07,983.32Zm3.87-6.45c-.44.38-.86.56-1,.85-.25.63.36.71.74.76a1.14,1.14,0,0,0,.74-.31A8.06,8.06,0,0,0,24.94,976.87Z" transform="translate(173.45 0.35)"/><path class="cls-2" d="M78,1019.36c1.29,2.78-1.17,6.3,1.69,8.86.14.13-.62,1.72-1.64,1.81s-1.57-.67-1.5-1.75l.54-8.37Z" transform="translate(173.45 0.35)"/><path class="cls-2" d="M10,960.17l-2.23.1a32.12,32.12,0,0,1,1.51-3.19c.5-.81-2.58-1.4-.2-1.87,1.9-.38,1.32,1.11,1,2.3A10.24,10.24,0,0,0,10,960.17Z" transform="translate(173.45 0.35)"/><polygon class="cls-1" points="224.76 1005.85 225.02 1006.02 224.73 1006.14 224.76 1005.85"/><path class="cls-1" d="M99.06,1008.85l0,0Z" transform="translate(173.45 0.35)"/><path class="cls-2" d="M156.88,934.48c.13.83-.43,1-1,1Z" transform="translate(173.45 0.35)"/><path class="cls-1" d="M-55,941.5c-.3-.7-.25-.62,0,0Z" transform="translate(173.45 0.35)"/><path class="cls-2" d="M-125.6,1020.8a4.39,4.39,0,0,0-3.32,0C-127.81,1020.59-126.7,1019.47-125.6,1020.8Z" transform="translate(173.45 0.35)"/><path class="cls-1" d="M-133.22,1003.11l.65-.25c-.06.23-.13.46-.19.69Z" transform="translate(173.45 0.35)"/><path class="cls-1" d="M449.79,790.43c-1.87-1.7-1.14-3.21-.8-4.69C449.62,787,450.41,788.21,449.79,790.43Z" transform="translate(173.45 0.35)"/><path class="cls-3" d="M50.58,1025c4.88.59,9.25.7,13.43,2.09.83.27,2,0,2.08,1.23s-1.08,1.22-1.82,1.72C57.73,1034.49,54.31,1030.09,50.58,1025Z" transform="translate(173.45 0.35)"/><path class="cls-2" d="M44,1026.91c2.6,2.55.93,4.63-.22,6.62a1.24,1.24,0,0,1-2-.15C40.73,1030.84,42.28,1029,44,1026.91Z" transform="translate(173.45 0.35)"/><path class="cls-2" d="M42.41,1035.1c1,0,.72.82.78,1.23.13,1.05-.33,1.7-1.51,1.47-.58-.12-1.22-.37-1.14-1.09C40.66,1035.63,41.77,1035.6,42.41,1035.1Z" transform="translate(173.45 0.35)"/><path class="cls-2" d="M48.31,1029.78c-.44-.11-.53-.35-.19-.64a4.55,4.55,0,0,1,.79-.42c.08.25.3.64.21.73A2.12,2.12,0,0,1,48.31,1029.78Z" transform="translate(173.45 0.35)"/><path class="cls-2" d="M-119.43,1012.49c-1.66-.17-2.66-1.14-1.7-2.6,1.2-1.82,2.69-1.51,3.74.42Z" transform="translate(173.45 0.35)"/><path class="cls-2" d="M-7.64,986.56l.21.71c-.69-.1-.05-.42-.12-.63Z" transform="translate(173.45 0.35)"/><path class="cls-2" d="M748.49,940c-1.81.13-1.27-1.1-1.12-2,.08-.49.5-.64,1-.39,1.5.79.46,1.64.06,2.47Z" transform="translate(173.45 0.35)"/><path class="cls-3" d="M24.94,976.87a8.06,8.06,0,0,1,.51,1.3,1.14,1.14,0,0,1-.74.31c-.38-.05-1-.13-.74-.76C24.08,977.43,24.5,977.25,24.94,976.87Z" transform="translate(173.45 0.35)"/><rect class="cls-1" x="0.03" width="939.43" height="535.7"/><rect class="cls-2" y="1055.15" width="939.37" height="279.2"/></svg>