<svg id="Layer_1" data-name="Layer 1" xmlns="http://www.w3.org/2000/svg" viewBox="0 0 267.34 184.74"><title>logo</title><path d="M49.6,95.65a13.49,13.49,0,0,1-8.44-13.33q0-8,7.44-11.39t19.45-3.37h3.16q0-10.33-2.85-14.13a9.65,9.65,0,0,0-8.22-3.79,13,13,0,0,0-7.59,2c-1.9,1.34-3.23,3.66-4,7H43.8A29.58,29.58,0,0,1,44.22,53a7.61,7.61,0,0,1,2.22-3.85q1.89-1.89,6.27-2.79a47.28,47.28,0,0,1,9.54-.9q8.53,0,13.49,4.59t5,17.55V96H75.43l-3.69-4.74h-.53a14.62,14.62,0,0,1-5.59,4.11,22.12,22.12,0,0,1-9.17,1.69A18,18,0,0,1,49.6,95.65Zm17.39-5A17.08,17.08,0,0,0,71.21,86V71.78H68.05q-7.81,0-12.34,2.9t-4.53,7.64c0,3.23,1,5.71,2.9,7.43a10.3,10.3,0,0,0,7.11,2.58A9.62,9.62,0,0,0,67,90.65Z" style="fill:#312a25"/><path d="M102.89,93.65a20.89,20.89,0,0,1-7.8-9.28A32,32,0,0,1,92.5,71.25a32.09,32.09,0,0,1,2.59-13.13,20.92,20.92,0,0,1,7.8-9.27,22.78,22.78,0,0,1,12.81-3.43q11.6,0,15.28,3.69a7.84,7.84,0,0,1,2.22,4.38,70.11,70.11,0,0,1,.42,9.33h-2.11q-.42-6.54-4.11-9.86a13.82,13.82,0,0,0-9.6-3.32q-7.59,0-11.43,6t-3.85,15.6q0,9.6,3.85,15.6t11.43,6a17.11,17.11,0,0,0,8.86-2.06,20.86,20.86,0,0,0,6.43-6.37L135.2,86A22.06,22.06,0,0,1,127,94.5a23.32,23.32,0,0,1-11.28,2.58A22.78,22.78,0,0,1,102.89,93.65Z" style="fill:#312a25"/><path d="M153.8,93.65a20.89,20.89,0,0,1-7.8-9.28,32.17,32.17,0,0,1-2.58-13.12A32.25,32.25,0,0,1,146,58.12a20.92,20.92,0,0,1,7.8-9.27,22.8,22.8,0,0,1,12.81-3.43q11.59,0,15.29,3.69a7.83,7.83,0,0,1,2.21,4.38,68.38,68.38,0,0,1,.42,9.33h-2.11Q182,56.28,178.31,53a13.81,13.81,0,0,0-9.59-3.32q-7.59,0-11.44,6t-3.85,15.6q0,9.6,3.85,15.6t11.44,6a17.14,17.14,0,0,0,8.86-2.06A21,21,0,0,0,184,84.43l2.1,1.58a22,22,0,0,1-8.22,8.49,23.26,23.26,0,0,1-11.28,2.58A22.8,22.8,0,0,1,153.8,93.65Z" style="fill:#312a25"/><path d="M198.76,59.13q0-5.39-1.47-8c-1-1.72-2.95-2.59-5.91-2.59h-2.1v-2.1h9.48a13.23,13.23,0,0,1,5.85,1,5.87,5.87,0,0,1,2.8,3.63,28.36,28.36,0,0,1,.84,8V96h-9.49Zm-.15-21a7,7,0,0,1-1.74-4.75,4.61,4.61,0,0,1,1.31-3.48,4.91,4.91,0,0,1,3.53-1.26,5.36,5.36,0,0,1,4.17,2,7,7,0,0,1,1.74,4.75,4.61,4.61,0,0,1-1.32,3.48,4.89,4.89,0,0,1-3.53,1.26A5.32,5.32,0,0,1,198.61,38.15Z" style="fill:#312a25"/><path d="M231,93.65a21.83,21.83,0,0,1-8-9.33,30.59,30.59,0,0,1-2.74-13.07A30.59,30.59,0,0,1,223,58.18a21.83,21.83,0,0,1,8-9.33,24.27,24.27,0,0,1,24.88,0,21.83,21.83,0,0,1,8,9.33,30.59,30.59,0,0,1,2.74,13.07,30.59,30.59,0,0,1-2.74,13.07,21.83,21.83,0,0,1-8,9.33,24.27,24.27,0,0,1-24.88,0ZM250.37,90a18.41,18.41,0,0,0,4.63-7.8,34.78,34.78,0,0,0,1.64-11,34.78,34.78,0,0,0-1.64-11,18.41,18.41,0,0,0-4.63-7.8,9.8,9.8,0,0,0-13.82,0,18.41,18.41,0,0,0-4.63,7.8,34.78,34.78,0,0,0-1.64,11,34.78,34.78,0,0,0,1.64,11,18.41,18.41,0,0,0,4.63,7.8,9.8,9.8,0,0,0,13.82,0Z" style="fill:#312a25"/><path d="M52.65,164.65a20.85,20.85,0,0,1-7.76-9.23,34.49,34.49,0,0,1,0-26.13,20.93,20.93,0,0,1,7.76-9.24,22.75,22.75,0,0,1,12.75-3.41q11.55,0,15.22,3.68a7.76,7.76,0,0,1,2.2,4.35,67.88,67.88,0,0,1,.42,9.29h-2.1q-.42-6.51-4.09-9.81a13.7,13.7,0,0,0-9.55-3.31q-7.56,0-11.39,6t-3.83,15.53q0,9.56,3.83,15.53t11.39,6a17.18,17.18,0,0,0,8.82-2.05,20.81,20.81,0,0,0,6.4-6.35l2.1,1.57a21.87,21.87,0,0,1-8.19,8.45,23.09,23.09,0,0,1-11.23,2.57A22.67,22.67,0,0,1,52.65,164.65Z" style="fill:#312a25"/><path d="M96.25,110.35q0-5.35-1.47-7.92t-5.87-2.58h-2.1V97.76h9.44a13.33,13.33,0,0,1,5.83,1,5.82,5.82,0,0,1,2.78,3.62,28.09,28.09,0,0,1,.84,8V167H96.25Z" style="fill:#312a25"/><path d="M122.8,130.29q0-5.35-1.47-7.93t-5.88-2.57h-2.09v-2.1h9.44a13.23,13.23,0,0,1,5.82,1,5.79,5.79,0,0,1,2.78,3.62,28.09,28.09,0,0,1,.84,8V167H122.8Zm-.16-16.89a7,7,0,0,1-1.73-4.72,4.58,4.58,0,0,1,1.31-3.46,4.88,4.88,0,0,1,3.52-1.26,5.29,5.29,0,0,1,4.14,2,7,7,0,0,1,1.73,4.73,4.56,4.56,0,0,1-1.31,3.46,4.84,4.84,0,0,1-3.51,1.26A5.33,5.33,0,0,1,122.64,113.4Z" style="fill:#312a25"/><path d="M148.61,130.29q0-5.35-1.47-7.93c-1-1.71-2.93-2.57-5.87-2.57h-2.1v-2.1h9.44a13.31,13.31,0,0,1,5.93,1,6.36,6.36,0,0,1,3,3.15h.53a18,18,0,0,1,5.72-3.72,19.63,19.63,0,0,1,7.92-1.53,16.28,16.28,0,0,1,7.55,1.63,11.57,11.57,0,0,1,5,5.72,18.48,18.48,0,0,1,7-5.4,20.77,20.77,0,0,1,8.76-2q6.72,0,10.71,4.2t4,14.69V167h-9.44V135.53q0-7.55-2.1-10.86a7,7,0,0,0-6.3-3.3,11.26,11.26,0,0,0-6.19,2.15,15.76,15.76,0,0,0-4.82,4.67c.34,1.05.52,3.5.52,7.34V167H177V135.53q0-7.55-2.1-10.86a7,7,0,0,0-6.3-3.3q-5.56,0-10.49,5.56V167h-9.45Z" style="fill:#312a25"/><path d="M234.35,166.65a14.08,14.08,0,0,1-5.93-4.67,13.86,13.86,0,0,1-2.47-8.61q0-8,7.4-11.33t19.36-3.36h3.15q0-10.27-2.84-14.06a9.58,9.58,0,0,0-8.18-3.78,12.89,12.89,0,0,0-7.56,2c-1.89,1.33-3.22,3.63-4,6.92h-4.73a29.23,29.23,0,0,1,.42-5.61,7.57,7.57,0,0,1,2.21-3.83q1.89-1.89,6.24-2.78a47,47,0,0,1,9.5-.9q8.49,0,13.43,4.57t4.93,17.47V167h-5.25l-3.67-4.72h-.52a14.55,14.55,0,0,1-5.56,4.09,22,22,0,0,1-9.13,1.68A18,18,0,0,1,234.35,166.65Zm17.31-5a16.93,16.93,0,0,0,4.2-4.62V142.88h-3.15q-7.77,0-12.28,2.88t-4.51,7.61q0,4.83,2.88,7.4a10.26,10.26,0,0,0,7.09,2.57A9.54,9.54,0,0,0,251.66,161.66Z" style="fill:#312a25"/><path d="M59.61,174.08a3.29,3.29,0,0,1,.82,2.43v4.43h-1v-4.32a2.61,2.61,0,0,0-.57-1.82,2.12,2.12,0,0,0-1.62-.62,2.42,2.42,0,0,0-1.87.73,2.84,2.84,0,0,0-.69,2v4h-1v-4.32a2.61,2.61,0,0,0-.57-1.82,2.11,2.11,0,0,0-1.63-.62,2.43,2.43,0,0,0-1.87.73,2.84,2.84,0,0,0-.69,2v4h-1v-7.63h1v1.39A2.77,2.77,0,0,1,50,173.63a3.6,3.6,0,0,1,1.67-.38,3.17,3.17,0,0,1,1.66.41,2.54,2.54,0,0,1,1.06,1.2,2.93,2.93,0,0,1,1.21-1.18,3.66,3.66,0,0,1,1.8-.43A3,3,0,0,1,59.61,174.08Z" style="fill:#312a25"/><path d="M70.23,173.31v7.63h-1v-1.51A3.17,3.17,0,0,1,68,180.61a3.58,3.58,0,0,1-1.72.4,3.86,3.86,0,0,1-1.94-.49A3.56,3.56,0,0,1,63,179.14a4.39,4.39,0,0,1,0-4,3.47,3.47,0,0,1,1.37-1.37,3.86,3.86,0,0,1,1.94-.49,3.71,3.71,0,0,1,1.68.38,3.17,3.17,0,0,1,1.23,1.13v-1.45Zm-2.41,6.42a2.71,2.71,0,0,0,1-1,3.21,3.21,0,0,0,.37-1.56,3.17,3.17,0,0,0-.37-1.55,2.71,2.71,0,0,0-1-1,2.81,2.81,0,0,0-1.44-.37,2.86,2.86,0,0,0-1.46.37,2.62,2.62,0,0,0-1,1,3.17,3.17,0,0,0-.37,1.55,3.21,3.21,0,0,0,.37,1.56,2.62,2.62,0,0,0,1,1,2.86,2.86,0,0,0,1.46.37A2.81,2.81,0,0,0,67.82,179.73Z" style="fill:#312a25"/><path d="M80.17,173.31V180a3.36,3.36,0,0,1-3.82,3.82,6.61,6.61,0,0,1-2-.31,4.21,4.21,0,0,1-1.55-.87l.53-.78a3.9,3.9,0,0,0,1.34.77,5.11,5.11,0,0,0,1.66.27,2.91,2.91,0,0,0,2.13-.67,2.83,2.83,0,0,0,.69-2.1v-1a3.12,3.12,0,0,1-1.26,1.1,3.91,3.91,0,0,1-1.72.38,4.07,4.07,0,0,1-2-.47,3.51,3.51,0,0,1-1.38-1.32,3.77,3.77,0,0,1-.5-1.92,3.71,3.71,0,0,1,.5-1.92,3.45,3.45,0,0,1,1.37-1.31,4.11,4.11,0,0,1,2-.46,3.92,3.92,0,0,1,1.76.39,3.19,3.19,0,0,1,1.26,1.13v-1.46Zm-2.41,6.07a2.68,2.68,0,0,0,1-1,2.92,2.92,0,0,0,.37-1.45,2.87,2.87,0,0,0-.37-1.45,2.68,2.68,0,0,0-1-1,3.19,3.19,0,0,0-1.5-.35,3.06,3.06,0,0,0-1.49.35,2.62,2.62,0,0,0-1,1,3,3,0,0,0,0,2.91,2.72,2.72,0,0,0,1,1,3.07,3.07,0,0,0,1.49.36A3.14,3.14,0,0,0,77.76,179.38Z" style="fill:#312a25"/><path d="M83,171.42a.69.69,0,0,1-.22-.52.7.7,0,0,1,.22-.51.74.74,0,0,1,.54-.22.72.72,0,0,1,.53.21.66.66,0,0,1,.22.5.76.76,0,0,1-1.29.54Zm0,1.89h1v7.63h-1Z" style="fill:#312a25"/><path d="M88.1,180.52a3.47,3.47,0,0,1-1.4-1.39,4.2,4.2,0,0,1,0-4,3.51,3.51,0,0,1,1.4-1.38,4.08,4.08,0,0,1,2-.49,4,4,0,0,1,1.76.38,2.92,2.92,0,0,1,1.23,1.13l-.77.52a2.38,2.38,0,0,0-1-.85,2.77,2.77,0,0,0-1.26-.28,3,3,0,0,0-1.49.37,2.67,2.67,0,0,0-1,1,3.45,3.45,0,0,0,0,3.11,2.67,2.67,0,0,0,1,1,3,3,0,0,0,1.49.37,2.77,2.77,0,0,0,1.26-.28,2.28,2.28,0,0,0,1-.84l.77.52a2.92,2.92,0,0,1-1.23,1.13,4.34,4.34,0,0,1-3.78-.11Z" style="fill:#312a25"/><path d="M102,173.31v7.63h-1v-1.51a3.17,3.17,0,0,1-1.23,1.18A3.61,3.61,0,0,1,98,181a3.83,3.83,0,0,1-1.94-.49,3.5,3.5,0,0,1-1.37-1.38,4.39,4.39,0,0,1,0-4,3.41,3.41,0,0,1,1.37-1.37,3.83,3.83,0,0,1,1.94-.49,3.71,3.71,0,0,1,1.68.38,3.21,3.21,0,0,1,1.22,1.13v-1.45Zm-2.4,6.42a2.71,2.71,0,0,0,1-1,3.33,3.33,0,0,0,.37-1.56,3.29,3.29,0,0,0-.37-1.55,2.71,2.71,0,0,0-1-1,3,3,0,0,0-2.9,0,2.71,2.71,0,0,0-1,1,3.29,3.29,0,0,0-.37,1.55,3.33,3.33,0,0,0,.37,1.56,2.71,2.71,0,0,0,1,1,3,3,0,0,0,2.9,0Z" style="fill:#312a25"/><path d="M105.39,180.43a2.22,2.22,0,0,1-.55-1.61v-8.65h1v8.56a1.5,1.5,0,0,0,.31,1,1.24,1.24,0,0,0,1,.36,1.82,1.82,0,0,0,.7-.13l.07.85a2.68,2.68,0,0,1-.93.16A2.11,2.11,0,0,1,105.39,180.43Z" style="fill:#312a25"/><path d="M124.89,173.31v4.22a3.72,3.72,0,0,1-.81,2.59,3.06,3.06,0,0,1-2.4.89,3.41,3.41,0,0,1-1.67-.38,2.5,2.5,0,0,1-1-1.23,2.56,2.56,0,0,1-1,1.22,3.31,3.31,0,0,1-1.68.39,3.06,3.06,0,0,1-2.4-.89,3.72,3.72,0,0,1-.81-2.59v-4.22h1v4.13a3.15,3.15,0,0,0,.52,2,2,2,0,0,0,1.66.64,2,2,0,0,0,1.66-.65,3.13,3.13,0,0,0,.54-2v-4.1h1v4.1a3.13,3.13,0,0,0,.54,2,2,2,0,0,0,1.67.65,2,2,0,0,0,1.63-.64,3.15,3.15,0,0,0,.53-2v-4.13Z" style="fill:#312a25"/><path d="M132.27,179.84a2.58,2.58,0,0,0,1-.74l.58.66a3.17,3.17,0,0,1-1.26.93,4.11,4.11,0,0,1-1.67.32,4.22,4.22,0,0,1-2.09-.5,3.56,3.56,0,0,1-1.42-1.38,4,4,0,0,1-.51-2,4,4,0,0,1,.49-2,3.49,3.49,0,0,1,1.34-1.38,3.82,3.82,0,0,1,1.95-.49,3.66,3.66,0,0,1,1.83.46,3.52,3.52,0,0,1,1.31,1.29,4,4,0,0,1,.51,1.89l-6.27,1.22a2.73,2.73,0,0,0,1.06,1.46,3.1,3.1,0,0,0,1.82.53A3.33,3.33,0,0,0,132.27,179.84Zm-3-5.34a2.61,2.61,0,0,0-1,1,3.09,3.09,0,0,0-.36,1.51,2.21,2.21,0,0,0,0,.32l5.38-1a2.64,2.64,0,0,0-.88-1.58,2.59,2.59,0,0,0-1.74-.62A2.82,2.82,0,0,0,129.27,174.5Z" style="fill:#312a25"/><path d="M143.42,173.31v7.63h-1v-1.51a3.17,3.17,0,0,1-1.23,1.18,3.61,3.61,0,0,1-1.72.4,3.83,3.83,0,0,1-1.94-.49,3.5,3.5,0,0,1-1.37-1.38,4.39,4.39,0,0,1,0-4,3.41,3.41,0,0,1,1.37-1.37,3.83,3.83,0,0,1,1.94-.49,3.71,3.71,0,0,1,1.68.38,3.21,3.21,0,0,1,1.22,1.13v-1.45Zm-2.4,6.42a2.71,2.71,0,0,0,1-1,3.33,3.33,0,0,0,.37-1.56,3.29,3.29,0,0,0-.37-1.55,2.71,2.71,0,0,0-1-1,3,3,0,0,0-2.9,0,2.71,2.71,0,0,0-1,1,3.29,3.29,0,0,0-.37,1.55,3.33,3.33,0,0,0,.37,1.56,2.71,2.71,0,0,0,1,1,3,3,0,0,0,2.9,0Z" style="fill:#312a25"/><path d="M150.05,180.48a2.12,2.12,0,0,1-.71.4,2.84,2.84,0,0,1-.88.13,2,2,0,0,1-2.24-2.22v-7.15h1v1.67h2.31v.87h-2.31v4.55a1.42,1.42,0,0,0,.34,1,1.25,1.25,0,0,0,1,.36,1.63,1.63,0,0,0,1.13-.39Z" style="fill:#312a25"/><path d="M158.1,174.08a3.25,3.25,0,0,1,.85,2.43v4.43h-1v-4.32a2.53,2.53,0,0,0-.6-1.82,2.23,2.23,0,0,0-1.69-.62,2.61,2.61,0,0,0-2,.73,2.76,2.76,0,0,0-.71,2v4h-1V170.17h1v4.47a2.77,2.77,0,0,1,1.16-1,3.82,3.82,0,0,1,1.69-.36A3.16,3.16,0,0,1,158.1,174.08Z" style="fill:#312a25"/><path d="M166.36,179.84a2.58,2.58,0,0,0,1-.74l.58.66a3.24,3.24,0,0,1-1.26.93A4.11,4.11,0,0,1,165,181a4.22,4.22,0,0,1-2.09-.5,3.56,3.56,0,0,1-1.42-1.38,4,4,0,0,1-.51-2,4,4,0,0,1,.49-2,3.49,3.49,0,0,1,1.34-1.38,3.81,3.81,0,0,1,1.94-.49,3.67,3.67,0,0,1,1.84.46,3.43,3.43,0,0,1,1.3,1.29,3.87,3.87,0,0,1,.52,1.89l-6.27,1.22a2.66,2.66,0,0,0,1.05,1.46,3.15,3.15,0,0,0,1.82.53A3.34,3.34,0,0,0,166.36,179.84Zm-3-5.34a2.52,2.52,0,0,0-1,1,3.09,3.09,0,0,0-.36,1.51,2.21,2.21,0,0,0,0,.32l5.38-1a2.65,2.65,0,0,0-.89-1.58,2.56,2.56,0,0,0-1.74-.62A2.85,2.85,0,0,0,163.35,174.5Z" style="fill:#312a25"/><path d="M172.61,173.64a3.69,3.69,0,0,1,1.78-.39v1h-.25a2.4,2.4,0,0,0-1.88.74,2.91,2.91,0,0,0-.69,2.07v3.89h-1v-7.63h1v1.49A2.48,2.48,0,0,1,172.61,173.64Z" style="fill:#312a25"/><path d="M181.51,171.33a1.52,1.52,0,0,0-.34,1.08v.9h2.35v.87h-2.33v6.76h-1v-8.58a2.11,2.11,0,0,1,2.31-2.26,2.94,2.94,0,0,1,.84.12,2.05,2.05,0,0,1,.69.36l-.35.77a1.72,1.72,0,0,0-1.14-.38A1.3,1.3,0,0,0,181.51,171.33Z" style="fill:#312a25"/><path d="M185.91,180.51a3.61,3.61,0,0,1-1.39-1.38,4.2,4.2,0,0,1,0-4,3.61,3.61,0,0,1,1.39-1.38,4.29,4.29,0,0,1,4,0,3.52,3.52,0,0,1,1.38,1.38,4.27,4.27,0,0,1,0,4,3.52,3.52,0,0,1-1.38,1.38,4.21,4.21,0,0,1-4,0Zm3.45-.78a2.69,2.69,0,0,0,1-1,3.32,3.32,0,0,0,.36-1.56,3.28,3.28,0,0,0-.36-1.55,2.69,2.69,0,0,0-1-1,3.07,3.07,0,0,0-2.92,0,2.71,2.71,0,0,0-1,1,3.29,3.29,0,0,0-.37,1.55,3.33,3.33,0,0,0,.37,1.56,2.71,2.71,0,0,0,1,1,3.07,3.07,0,0,0,2.92,0Z" style="fill:#312a25"/><path d="M196,173.64a3.65,3.65,0,0,1,1.77-.39v1h-.24a2.41,2.41,0,0,0-1.89.74,2.9,2.9,0,0,0-.68,2.07v3.89h-1v-7.63h1v1.49A2.56,2.56,0,0,1,196,173.64Z" style="fill:#312a25"/><path d="M215.27,174.08a3.29,3.29,0,0,1,.82,2.43v4.43h-1v-4.32a2.61,2.61,0,0,0-.57-1.82,2.1,2.1,0,0,0-1.62-.62,2.43,2.43,0,0,0-1.87.73,2.88,2.88,0,0,0-.68,2v4h-1v-4.32a2.57,2.57,0,0,0-.58-1.82,2.11,2.11,0,0,0-1.63-.62,2.43,2.43,0,0,0-1.86.73,2.84,2.84,0,0,0-.69,2v4h-1v-7.63h1v1.39a2.71,2.71,0,0,1,1.13-1.07,3.58,3.58,0,0,1,1.67-.38,3.2,3.2,0,0,1,1.66.41,2.47,2.47,0,0,1,1.05,1.2,2.93,2.93,0,0,1,1.21-1.18,3.7,3.7,0,0,1,1.81-.43A3,3,0,0,1,215.27,174.08Z" style="fill:#312a25"/><path d="M225.77,173.31v7.63h-1v-1.39a2.91,2.91,0,0,1-1.12,1.08A3.44,3.44,0,0,1,222,181a3,3,0,0,1-3.22-3.28v-4.42h1v4.32a2.55,2.55,0,0,0,.6,1.83,2.21,2.21,0,0,0,1.7.62,2.5,2.5,0,0,0,1.9-.73,2.86,2.86,0,0,0,.69-2v-4Z" style="fill:#312a25"/><path d="M235.73,173.31V180a3.36,3.36,0,0,1-3.82,3.82,6.7,6.7,0,0,1-2-.31,4.09,4.09,0,0,1-1.54-.87l.52-.78a4,4,0,0,0,1.34.77,5.11,5.11,0,0,0,1.66.27,3,3,0,0,0,2.14-.67,2.87,2.87,0,0,0,.68-2.1v-1a3.12,3.12,0,0,1-1.26,1.1,3.91,3.91,0,0,1-1.72.38,4.13,4.13,0,0,1-1.95-.47,3.65,3.65,0,0,1-1.38-1.32,3.77,3.77,0,0,1-.5-1.92,3.71,3.71,0,0,1,.5-1.92,3.52,3.52,0,0,1,1.37-1.31,4.11,4.11,0,0,1,2-.46,3.89,3.89,0,0,1,1.76.39,3.19,3.19,0,0,1,1.26,1.13v-1.46Zm-2.41,6.07a2.68,2.68,0,0,0,1-1,2.92,2.92,0,0,0,.37-1.45,2.87,2.87,0,0,0-.37-1.45,2.65,2.65,0,0,0-1-1,3.19,3.19,0,0,0-1.5-.35,3,3,0,0,0-1.49.35,2.5,2.5,0,0,0-1,1,3,3,0,0,0,0,2.91,2.59,2.59,0,0,0,1,1,3,3,0,0,0,1.49.36A3.1,3.1,0,0,0,233.32,179.38Z" style="fill:#312a25"/><path d="M245.68,173.31V180a3.85,3.85,0,0,1-1,2.88,3.9,3.9,0,0,1-2.86.94,6.61,6.61,0,0,1-2-.31,4.13,4.13,0,0,1-1.55-.87l.52-.78a4,4,0,0,0,1.35.77,5.07,5.07,0,0,0,1.66.27,2.91,2.91,0,0,0,2.13-.67,2.82,2.82,0,0,0,.68-2.1v-1a3.09,3.09,0,0,1-1.25,1.1,3.91,3.91,0,0,1-1.72.38,4.07,4.07,0,0,1-2-.47,3.51,3.51,0,0,1-1.38-1.32,3.67,3.67,0,0,1-.5-1.92,3.62,3.62,0,0,1,.5-1.92,3.45,3.45,0,0,1,1.37-1.31,4.08,4.08,0,0,1,2-.46,3.85,3.85,0,0,1,1.75.39,3.15,3.15,0,0,1,1.27,1.13v-1.46Zm-2.41,6.07a2.55,2.55,0,0,0,1-1,2.82,2.82,0,0,0,.37-1.45,2.77,2.77,0,0,0-.37-1.45,2.59,2.59,0,0,0-1-1,3.19,3.19,0,0,0-1.5-.35,3.06,3.06,0,0,0-1.49.35,2.56,2.56,0,0,0-1,1,3,3,0,0,0,0,2.91,2.65,2.65,0,0,0,1,1,3.26,3.26,0,0,0,3,0Z" style="fill:#312a25"/><path d="M249.13,180.43a2.22,2.22,0,0,1-.56-1.61v-8.65h1v8.56a1.5,1.5,0,0,0,.32,1,1.21,1.21,0,0,0,1,.36,1.86,1.86,0,0,0,.7-.13l.07.85a2.68,2.68,0,0,1-.93.16A2.08,2.08,0,0,1,249.13,180.43Z" style="fill:#312a25"/><path d="M257.49,179.84a2.58,2.58,0,0,0,1-.74l.58.66a3.17,3.17,0,0,1-1.26.93,4.11,4.11,0,0,1-1.67.32,4.22,4.22,0,0,1-2.09-.5,3.56,3.56,0,0,1-1.42-1.38,4,4,0,0,1-.51-2,4,4,0,0,1,.49-2,3.49,3.49,0,0,1,1.34-1.38,3.82,3.82,0,0,1,1.95-.49,3.66,3.66,0,0,1,1.83.46,3.52,3.52,0,0,1,1.31,1.29,4,4,0,0,1,.51,1.89l-6.27,1.22a2.73,2.73,0,0,0,1.06,1.46,3.1,3.1,0,0,0,1.82.53A3.33,3.33,0,0,0,257.49,179.84Zm-3-5.34a2.61,2.61,0,0,0-1,1,3.09,3.09,0,0,0-.36,1.51,2.21,2.21,0,0,0,0,.32l5.38-1a2.64,2.64,0,0,0-.88-1.58,2.59,2.59,0,0,0-1.74-.62A2.82,2.82,0,0,0,254.49,174.5Z" style="fill:#312a25"/><path d="M261.94,180.74a3.7,3.7,0,0,1-1.32-.67l.46-.81a3.92,3.92,0,0,0,1.21.61,4.73,4.73,0,0,0,1.51.24,3,3,0,0,0,1.54-.32,1.05,1.05,0,0,0,.5-.92.81.81,0,0,0-.27-.66,1.74,1.74,0,0,0-.7-.37,10.83,10.83,0,0,0-1.12-.24,11.52,11.52,0,0,1-1.49-.35,2.22,2.22,0,0,1-1-.62,1.74,1.74,0,0,1-.4-1.2,1.89,1.89,0,0,1,.8-1.57,3.55,3.55,0,0,1,2.22-.61,5.38,5.38,0,0,1,1.48.2,4.19,4.19,0,0,1,1.22.51l-.45.83a3.83,3.83,0,0,0-2.25-.66,2.64,2.64,0,0,0-1.49.35,1.08,1.08,0,0,0-.5.92.88.88,0,0,0,.29.69,1.6,1.6,0,0,0,.7.39c.28.08.67.16,1.16.25a13.52,13.52,0,0,1,1.47.35,2.21,2.21,0,0,1,.94.59,1.67,1.67,0,0,1,.39,1.17,1.85,1.85,0,0,1-.83,1.58,3.93,3.93,0,0,1-2.32.59A5.86,5.86,0,0,1,261.94,180.74Z" style="fill:#312a25"/><path d="M38.48,158.67a49.46,49.46,0,0,1-5.06-21.9l0-2.41a47.52,47.52,0,0,1,2-14,9.83,9.83,0,0,0-3.14-10.58,3.9,3.9,0,0,1-1.63-3l1.21-65.85c0-1-1.11-1.86-2.52-1.88l-2.71,0c-1.41,0-2.58.77-2.59,1.79l-1.2,65a3.8,3.8,0,0,1-2,3.14,9.75,9.75,0,0,0-4.76,8.29,9.85,9.85,0,0,0,.4,2.89,47.27,47.27,0,0,1,1.76,14.06l0,2.41a49.43,49.43,0,0,1-5.48,21.75,11,11,0,0,0-1.2,4.87c-.06,6.79,5.61,8.16,13.34,8.27s14.6-1.09,14.67-7.88A11.2,11.2,0,0,0,38.48,158.67Z" style="fill:#384a77"/><path d="M34.53,22.29a84.31,84.31,0,0,0-8.39-3.17c-2.43-.78-4.88-1.49-7.35-2.15q.88-3.57,1.57-7.18A79.37,79.37,0,0,0,21.6.91a80.31,80.31,0,0,0-3.17,8.38q-1.14,3.51-2.08,7.06-3.71-.92-7.47-1.64A84.3,84.3,0,0,0,0,13.47a82.71,82.71,0,0,0,8.38,3.18q3.64,1.17,7.35,2.14C15.09,21.36,14.51,24,14,26.56a81.42,81.42,0,0,0-1.24,8.88A84.31,84.31,0,0,0,16,27.05c.82-2.52,1.55-5.07,2.22-7.63,2.48.61,5,1.16,7.48,1.63A79,79,0,0,0,34.53,22.29Z" style="fill:#384a77"/><path d="M49.44,8.34a39.1,39.1,0,0,0-4.3-.42c-1.24-.06-2.47-.09-3.7-.08,0-1.18-.08-2.36-.17-3.55A39.29,39.29,0,0,0,40.73,0a39.31,39.31,0,0,0-.43,4.31c0,1.18-.08,2.36-.07,3.54q-1.84,0-3.69.18a36.88,36.88,0,0,0-4.3.54A37,37,0,0,0,36.55,9c1.23.07,2.46.09,3.69.08,0,1.28.08,2.56.18,3.84A39.29,39.29,0,0,0,41,17.2a39.28,39.28,0,0,0,.42-4.31c.06-1.28.09-2.56.08-3.83q1.84,0,3.69-.18A39.29,39.29,0,0,0,49.44,8.34Z" style="fill:#384a77"/></svg>