<?xml version="1.0" standalone="no"?>
<!DOCTYPE svg PUBLIC "-//W3C//DTD SVG 20010904//EN"
 "http://www.w3.org/TR/2001/REC-SVG-20010904/DTD/svg10.dtd">
<svg version="1.0" xmlns="http://www.w3.org/2000/svg"
 width="500.000000pt" height="500.000000pt" viewBox="0 0 500.000000 500.000000"
 preserveAspectRatio="xMidYMid meet">
<metadata>
Created by potrace 1.11, written by Peter Selinger 2001-2013
</metadata>
<g transform="translate(0.000000,500.000000) scale(0.100000,-0.100000)"
fill="#000000" stroke="none">
<path d="M2315 4839 c-445 -34 -864 -194 -1235 -472 -114 -85 -307 -271 -397
-382 -476 -589 -641 -1346 -452 -2082 78 -308 242 -629 452 -888 201 -248 498
-482 792 -625 652 -316 1398 -316 2050 0 294 143 591 377 792 625 210 259 374
580 452 888 168 654 56 1336 -308 1882 -109 164 -188 260 -327 396 -487 474
-1140 711 -1819 658z m391 -140 c873 -85 1611 -673 1889 -1503 152 -454 152
-938 0 -1392 -221 -662 -737 -1178 -1399 -1399 -292 -97 -603 -133 -902 -104
-873 85 -1611 673 -1889 1503 -152 456 -152 937 1 1395 220 658 737 1175 1395
1395 295 98 605 134 905 105z"/>
<path d="M1790 2870 c-388 -759 -706 -1386 -708 -1395 -3 -13 150 -15 1422
-15 784 0 1426 3 1426 7 0 10 -1425 2782 -1430 2782 -3 0 -322 -620 -710
-1379z m650 650 l0 -319 -37 -6 c-97 -15 -205 -49 -284 -88 l-86 -43 42 81
c24 44 113 218 199 388 87 169 159 307 162 307 2 0 4 -144 4 -320z m329 -67
c105 -204 191 -373 191 -376 0 -2 -35 13 -78 34 -70 35 -183 69 -284 84 l-38
6 0 321 c0 185 4 318 9 313 5 -6 95 -177 200 -382z m-329 -1118 c0 -707 -1
-735 -18 -735 -42 0 -176 41 -246 76 -194 96 -333 270 -387 484 -30 119 -24
291 15 405 39 115 98 209 187 297 64 62 97 86 181 128 89 44 192 77 251 79 16
1 17 -40 17 -734z m236 715 c43 -11 117 -39 164 -61 71 -35 101 -58 180 -138
105 -105 151 -180 192 -311 33 -108 33 -302 0 -410 -88 -279 -325 -487 -600
-525 l-52 -7 0 736 c0 708 1 736 18 736 11 0 54 -9 98 -20z m-1010 -930 c20
-86 89 -230 148 -307 53 -70 133 -146 202 -192 l47 -31 -392 0 -393 0 70 133
c38 72 118 228 178 346 l109 215 8 -50 c4 -27 15 -78 23 -114z m1912 -242 c78
-152 142 -279 142 -282 0 -3 -174 -6 -386 -6 l-385 0 80 61 c168 126 304 353
327 543 3 28 8 58 10 66 6 17 28 -22 212 -382z"/>
</g>
</svg>
